<?xml version="1.0" encoding="utf-8"?>
<svg version="1.1" id="Layer_1" x="0px" y="0px" viewBox="0 0 27.267 26.196" style="enable-background:new 0 0 50 50;" xmlns="http://www.w3.org/2000/svg">
  <style type="text/css">
	.st0{display:none;opacity:0.45;}
	.st1{display:inline;fill:#25AF43;}
	.st2{display:none;}
	.st3{display:inline;}
	.st4{fill:#B1DD94;}
	.st5{display:inline;opacity:0.75;}
	.st6{display:none;fill:#219E3D;}
	.st7{fill:#E0E0E0;}
	.st8{fill:#464C48;}
	.st9{opacity:0.45;fill:#464C48;}
	.st10{fill:#3C383E;}
	.st11{opacity:0.65;fill:#3C383E;}
	.st12{opacity:0.35;fill:#3C383E;}
	.st13{opacity:0.45;fill:#333035;}
	.st14{opacity:0.55;fill:#464C48;}
</style>
  <g transform="matrix(1, 0, 0, 1, -11.366499, -11.902001)">
    <g class="st0">
      <rect class="st1" width="50" height="50"/>
    </g>
    <g class="st2">
      <g class="st3">
        <path class="st4" d="M21.94,47.27c-0.07-0.13-0.23-0.19-0.36-0.12c-0.13,0.07-0.19,0.23-0.12,0.36c0.06,0.11,0.18,0.17,0.29,0.14 L25.54,50h0.56l-4.14-2.57C21.97,47.38,21.96,47.32,21.94,47.27z M21.75,47.48c-0.05,0.03-0.11,0-0.14-0.05 c-0.03-0.05,0-0.11,0.05-0.14c0.05-0.03,0.11,0,0.14,0.05C21.82,47.39,21.8,47.46,21.75,47.48z"/>
        <path class="st4" d="M41.54,44.64c-0.15,0-0.27,0.12-0.27,0.27s0.12,0.27,0.27,0.27c0.09,0,0.17-0.05,0.22-0.12H50v-0.3h-8.24 C41.71,44.68,41.63,44.64,41.54,44.64z M41.53,45.01c-0.06,0-0.1-0.05-0.1-0.1s0.05-0.1,0.1-0.1s0.1,0.05,0.1,0.1 S41.59,45.01,41.53,45.01z"/>
        <path class="st4" d="M45.88,17.14c-0.1,0.04-0.17,0.13-0.17,0.25c0,0.15,0.12,0.27,0.27,0.27c0.15,0,0.27-0.12,0.27-0.27 c0-0.11-0.07-0.21-0.17-0.25v-1.14H50v-0.2h-4.12V17.14z M45.98,17.28c0.06,0,0.1,0.05,0.1,0.1c0,0.06-0.05,0.1-0.1,0.1 c-0.06,0-0.1-0.05-0.1-0.1C45.87,17.33,45.92,17.28,45.98,17.28z"/>
        <path class="st4" d="M43.41,18.51v-1.25h-1.67v-2.55c0.1-0.04,0.16-0.14,0.16-0.25c0-0.15-0.12-0.27-0.27-0.27 c-0.15,0-0.27,0.12-0.27,0.27c0,0.12,0.07,0.21,0.18,0.25v2.74h1.67v1.06c-0.1,0.04-0.16,0.14-0.16,0.25 c0,0.15,0.12,0.27,0.27,0.27c0.15,0,0.27-0.12,0.27-0.27C43.58,18.65,43.51,18.55,43.41,18.51z M41.64,14.57 c-0.06,0-0.1-0.05-0.1-0.1s0.05-0.1,0.1-0.1c0.06,0,0.1,0.05,0.1,0.1S41.7,14.57,41.64,14.57z M43.32,18.87 c-0.06,0-0.1-0.05-0.1-0.1c0-0.04,0.02-0.07,0.05-0.09h0.1c0.03,0.02,0.05,0.05,0.05,0.09C43.42,18.82,43.38,18.87,43.32,18.87z"/>
        <path class="st4" d="M44.43,15.82l-1.7,0v-1.1c0.11-0.04,0.18-0.13,0.18-0.25c0-0.15-0.12-0.27-0.27-0.27s-0.27,0.12-0.27,0.27 c0,0.11,0.06,0.2,0.15,0.24v1.32l2.1,0v-1.73H50v-0.2h-5.57V15.82z M42.64,14.56c-0.06,0-0.1-0.05-0.1-0.1 c0-0.06,0.05-0.1,0.1-0.1s0.1,0.05,0.1,0.1C42.74,14.52,42.7,14.56,42.64,14.56z"/>
        <path class="st4" d="M42.34,22.74l-1.7,0v-1.1c0.11-0.04,0.18-0.13,0.18-0.25c0-0.15-0.12-0.27-0.27-0.27 c-0.15,0-0.27,0.12-0.27,0.27c0,0.11,0.06,0.2,0.15,0.24v1.32l2.1,0v-1.73H50v-0.2h-7.66V22.74z M40.55,21.48 c-0.06,0-0.1-0.05-0.1-0.1s0.05-0.1,0.1-0.1s0.1,0.05,0.1,0.1S40.61,21.48,40.55,21.48z"/>
        <path class="st4" d="M36.87,2c-0.11,0-0.21,0.07-0.25,0.17h-8.36V0.44l-2.1,0v1.32C26.08,1.81,26.02,1.9,26.02,2 c0,0.15,0.12,0.27,0.27,0.27c0.15,0,0.27-0.12,0.27-0.27c0-0.12-0.08-0.22-0.18-0.25v-1.1l1.7,0v1.73h8.56 c0.04,0.1,0.14,0.16,0.25,0.16c0.15,0,0.27-0.12,0.27-0.27C37.14,2.12,37.02,2,36.87,2z M26.38,2c0,0.06-0.05,0.1-0.1,0.1 c-0.06,0-0.1-0.05-0.1-0.1c0-0.06,0.05-0.1,0.1-0.1C26.34,1.9,26.38,1.95,26.38,2z M36.87,2.37c-0.06,0-0.1-0.05-0.1-0.1 c0-0.06,0.05-0.1,0.1-0.1c0.06,0,0.1,0.05,0.1,0.1C36.97,2.33,36.93,2.37,36.87,2.37z"/>
        <path class="st4" d="M27.17,43.99c-0.15,0-0.27,0.12-0.27,0.27c0,0.11,0.07,0.21,0.16,0.25v1.06H25.4v2.74 c-0.1,0.04-0.18,0.13-0.18,0.25c0,0.15,0.12,0.27,0.27,0.27c0.15,0,0.27-0.12,0.27-0.27c0-0.11-0.07-0.21-0.16-0.25v-2.55h1.67 V44.5c0.1-0.04,0.18-0.13,0.18-0.25C27.44,44.11,27.32,43.99,27.17,43.99z M25.6,48.55c0,0.06-0.05,0.1-0.1,0.1 c-0.06,0-0.1-0.05-0.1-0.1s0.05-0.1,0.1-0.1C25.55,48.45,25.6,48.5,25.6,48.55z M27.23,44.34h-0.1 c-0.03-0.02-0.05-0.05-0.05-0.09c0-0.06,0.05-0.1,0.1-0.1c0.06,0,0.1,0.05,0.1,0.1C27.28,44.29,27.26,44.32,27.23,44.34z"/>
        <path class="st4" d="M31.32,48.56c-0.11,0-0.21,0.07-0.25,0.17h-2.59V47l-2.1,0v1.32c-0.09,0.04-0.15,0.13-0.15,0.24 c0,0.15,0.12,0.27,0.27,0.27c0.15,0,0.27-0.12,0.27-0.27c0-0.12-0.08-0.22-0.18-0.25v-1.1l1.7,0v1.73h2.79 c0.04,0.1,0.14,0.16,0.25,0.16c0.15,0,0.27-0.12,0.27-0.27C31.59,48.68,31.47,48.56,31.32,48.56z M26.6,48.56 c0,0.06-0.05,0.1-0.1,0.1c-0.06,0-0.1-0.05-0.1-0.1s0.05-0.1,0.1-0.1C26.55,48.45,26.6,48.5,26.6,48.56z M31.32,48.93 c-0.06,0-0.1-0.05-0.1-0.1c0-0.06,0.05-0.1,0.1-0.1c0.06,0,0.1,0.05,0.1,0.1C31.42,48.88,31.38,48.93,31.32,48.93z"/>
        <path class="st4" d="M42.13,37.45V36.2h-1.67v-2.55c0.1-0.04,0.16-0.14,0.16-0.25c0-0.15-0.12-0.27-0.27-0.27 s-0.27,0.12-0.27,0.27c0,0.12,0.07,0.21,0.18,0.25v2.74h1.67v1.06c-0.1,0.04-0.16,0.14-0.16,0.25c0,0.15,0.12,0.27,0.27,0.27 c0.15,0,0.27-0.12,0.27-0.27C42.31,37.58,42.24,37.48,42.13,37.45z M40.37,33.5c-0.06,0-0.1-0.05-0.1-0.1s0.05-0.1,0.1-0.1 c0.06,0,0.1,0.05,0.1,0.1S40.42,33.5,40.37,33.5z M42.05,37.8c-0.06,0-0.1-0.05-0.1-0.1c0-0.04,0.02-0.07,0.05-0.09h0.1 c0.03,0.02,0.05,0.05,0.05,0.09C42.15,37.75,42.1,37.8,42.05,37.8z"/>
        <path class="st4" d="M46.19,32.86c-0.11,0-0.21,0.07-0.25,0.16h-2.79v1.73l-1.7,0v-1.1c0.11-0.04,0.18-0.13,0.18-0.25 c0-0.15-0.12-0.27-0.27-0.27c-0.15,0-0.27,0.12-0.27,0.27c0,0.11,0.06,0.2,0.15,0.24v1.32l2.1,0v-1.73h2.59 c0.04,0.1,0.13,0.17,0.25,0.17c0.15,0,0.27-0.12,0.27-0.27C46.46,32.98,46.34,32.86,46.19,32.86z M41.36,33.5 c-0.06,0-0.1-0.05-0.1-0.1s0.05-0.1,0.1-0.1c0.06,0,0.1,0.05,0.1,0.1S41.42,33.5,41.36,33.5z M46.19,33.23 c-0.06,0-0.1-0.05-0.1-0.1c0-0.06,0.05-0.1,0.1-0.1c0.06,0,0.1,0.05,0.1,0.1C46.29,33.18,46.25,33.23,46.19,33.23z"/>
        <path class="st4" d="M19.9,47.23c-0.07-0.13-0.23-0.19-0.36-0.12c-0.13,0.07-0.19,0.23-0.12,0.36c0.06,0.11,0.18,0.17,0.29,0.14 L23.56,50h0.56l-4.2-2.61C19.93,47.34,19.92,47.28,19.9,47.23z M19.7,47.44c-0.05,0.03-0.11,0-0.14-0.05 c-0.03-0.05,0-0.11,0.05-0.14c0.05-0.03,0.11,0,0.14,0.05C19.77,47.35,19.75,47.42,19.7,47.44z"/>
        <path class="st4" d="M8.28,46.56c0.15,0,0.27-0.12,0.27-0.27l3.36-2.01c0.05,0.04,0.1,0.06,0.17,0.06c0.09,0,0.17-0.05,0.22-0.12 h4.16c0.05,0.07,0.13,0.12,0.22,0.12c0.15,0,0.27-0.12,0.27-0.27c0-0.15-0.12-0.27-0.27-0.27c-0.09,0-0.17,0.05-0.22,0.12H12.3 c-0.05-0.07-0.13-0.12-0.22-0.12c-0.12,0-0.21,0.07-0.25,0.18l-3.45,2.06c-0.03-0.01-0.07-0.02-0.1-0.02 c-0.09,0-0.17,0.05-0.22,0.12H0v0.3h8.06C8.11,46.52,8.19,46.56,8.28,46.56z M16.69,43.98c0.06,0,0.1,0.05,0.1,0.1 s-0.05,0.1-0.1,0.1c-0.06,0-0.1-0.05-0.1-0.1S16.63,43.98,16.69,43.98z"/>
        <path class="st4" d="M37.21,46.59c-0.04,0-0.07,0.01-0.1,0.02l-3.45-2.06c-0.04-0.1-0.13-0.18-0.25-0.18 c-0.09,0-0.17,0.05-0.22,0.12h-4.16c-0.05-0.07-0.13-0.12-0.22-0.12c-0.15,0-0.27,0.12-0.27,0.27c0,0.15,0.12,0.27,0.27,0.27 c0.09,0,0.17-0.05,0.22-0.12h4.16c0.05,0.07,0.13,0.12,0.22,0.12c0.06,0,0.12-0.02,0.17-0.06l3.36,2.01 c0,0.15,0.12,0.27,0.27,0.27c0.09,0,0.17-0.05,0.22-0.12H50v-0.3H37.43C37.38,46.63,37.3,46.59,37.21,46.59z M28.8,44.74 c-0.06,0-0.1-0.05-0.1-0.1s0.05-0.1,0.1-0.1c0.06,0,0.1,0.05,0.1,0.1S28.86,44.74,28.8,44.74z"/>
        <path class="st4" d="M37.47,47.69c-0.04,0-0.07,0.01-0.1,0.02l-3.45-2.06c-0.04-0.1-0.13-0.18-0.25-0.18 c-0.09,0-0.17,0.05-0.22,0.12h-3.07c-0.05-0.07-0.13-0.12-0.22-0.12c-0.15,0-0.27,0.12-0.27,0.27c0,0.15,0.12,0.27,0.27,0.27 c0.09,0,0.17-0.05,0.22-0.12h3.07c0.05,0.07,0.13,0.12,0.22,0.12c0.06,0,0.12-0.02,0.17-0.06l3.36,2.01 c0,0.15,0.12,0.27,0.27,0.27c0.09,0,0.17-0.05,0.22-0.12H50v-0.3H37.7C37.65,47.74,37.57,47.69,37.47,47.69z M30.16,45.85 c-0.06,0-0.1-0.05-0.1-0.1s0.05-0.1,0.1-0.1c0.06,0,0.1,0.05,0.1,0.1S30.22,45.85,30.16,45.85z"/>
        <path class="st4" d="M37.58,48.92c-0.03,0-0.07,0.01-0.1,0.02l-3.34-2.05c-0.04-0.1-0.13-0.18-0.25-0.18 c-0.09,0-0.17,0.05-0.22,0.12h-2.16c-0.05-0.07-0.13-0.12-0.22-0.12c-0.15,0-0.27,0.12-0.27,0.27c0,0.15,0.12,0.27,0.27,0.27 c0.09,0,0.17-0.05,0.22-0.12h2.16c0.05,0.07,0.13,0.12,0.22,0.12c0.06,0,0.12-0.02,0.17-0.06l3.26,2c0,0,0,0,0,0 c0,0.15,0.12,0.27,0.27,0.27c0.09,0,0.17-0.05,0.22-0.12H50v-0.3H37.8C37.75,48.97,37.67,48.92,37.58,48.92z M31.29,47.07 c-0.06,0-0.1-0.05-0.1-0.1s0.05-0.1,0.1-0.1c0.06,0,0.1,0.05,0.1,0.1S31.35,47.07,31.29,47.07z"/>
        <path class="st4" d="M34.05,47.81c-0.09,0-0.17,0.05-0.22,0.12h-1.07c-0.05-0.07-0.13-0.12-0.22-0.12 c-0.15,0-0.27,0.12-0.27,0.27c0,0.15,0.12,0.27,0.27,0.27c0.09,0,0.17-0.05,0.22-0.12h1.07c0.05,0.07,0.13,0.12,0.22,0.12 c0.06,0,0.12-0.02,0.17-0.06L37.09,50h0.58l-3.37-2.01C34.26,47.89,34.16,47.81,34.05,47.81z M32.54,48.18 c-0.06,0-0.1-0.05-0.1-0.1s0.05-0.1,0.1-0.1s0.1,0.05,0.1,0.1S32.59,48.18,32.54,48.18z"/>
        <path class="st4" d="M47.96,6.45c-0.15,0-0.27,0.12-0.27,0.27c0,0.15,0.12,0.27,0.27,0.27c0.09,0,0.17-0.05,0.22-0.12H50v-0.3 h-1.82C48.13,6.5,48.05,6.45,47.96,6.45z M47.95,6.82c-0.06,0-0.1-0.05-0.1-0.1c0-0.06,0.05-0.1,0.1-0.1s0.1,0.05,0.1,0.1 C48.06,6.77,48.01,6.82,47.95,6.82z"/>
        <path class="st4" d="M43.63,8.4c-0.04,0-0.07,0.01-0.1,0.02l-3.45-2.06c-0.04-0.1-0.13-0.18-0.25-0.18 c-0.09,0-0.17,0.05-0.22,0.12h-4.16c-0.05-0.07-0.13-0.12-0.22-0.12c-0.15,0-0.27,0.12-0.27,0.27c0,0.15,0.12,0.27,0.27,0.27 c0.09,0,0.17-0.05,0.22-0.12h4.16c0.05,0.07,0.13,0.12,0.22,0.12c0.06,0,0.12-0.02,0.17-0.06l3.36,2.01 c0,0.15,0.12,0.27,0.27,0.27c0.09,0,0.17-0.05,0.22-0.12H50v-0.3h-6.15C43.8,8.44,43.72,8.4,43.63,8.4z M35.22,6.55 c-0.06,0-0.1-0.05-0.1-0.1c0-0.06,0.05-0.1,0.1-0.1c0.06,0,0.1,0.05,0.1,0.1C35.33,6.51,35.28,6.55,35.22,6.55z"/>
        <path class="st4" d="M43.89,9.5c-0.04,0-0.07,0.01-0.1,0.02l-3.45-2.06c-0.04-0.1-0.13-0.18-0.25-0.18 c-0.09,0-0.17,0.05-0.22,0.12h-3.07c-0.05-0.07-0.13-0.12-0.22-0.12c-0.15,0-0.27,0.12-0.27,0.27c0,0.15,0.12,0.27,0.27,0.27 c0.09,0,0.17-0.05,0.22-0.12h3.07C39.92,7.78,40,7.82,40.1,7.82c0.06,0,0.12-0.02,0.17-0.06l3.36,2.01 c0,0.15,0.12,0.27,0.27,0.27c0.09,0,0.17-0.05,0.22-0.12H50v-0.3h-5.88C44.07,9.55,43.99,9.5,43.89,9.5z M36.58,7.66 c-0.06,0-0.1-0.05-0.1-0.1c0-0.06,0.05-0.1,0.1-0.1c0.06,0,0.1,0.05,0.1,0.1C36.69,7.61,36.64,7.66,36.58,7.66z"/>
        <path class="st4" d="M44,10.73c-0.03,0-0.07,0.01-0.1,0.02L40.56,8.7c-0.04-0.1-0.13-0.18-0.25-0.18c-0.09,0-0.17,0.05-0.22,0.12 h-2.16c-0.05-0.07-0.13-0.12-0.22-0.12c-0.15,0-0.27,0.12-0.27,0.27c0,0.15,0.12,0.27,0.27,0.27c0.09,0,0.17-0.05,0.22-0.12h2.16 c0.05,0.07,0.13,0.12,0.22,0.12c0.06,0,0.12-0.02,0.17-0.06l3.26,2c0,0,0,0,0,0c0,0.15,0.12,0.27,0.27,0.27 c0.09,0,0.17-0.05,0.22-0.12H50v-0.3h-5.78C44.17,10.78,44.09,10.73,44,10.73z M37.71,8.89c-0.06,0-0.1-0.05-0.1-0.1 c0-0.06,0.05-0.1,0.1-0.1c0.06,0,0.1,0.05,0.1,0.1C37.81,8.84,37.77,8.89,37.71,8.89z"/>
        <path class="st4" d="M44.27,11.84c-0.04,0-0.07,0.01-0.1,0.02L40.72,9.8c-0.04-0.1-0.13-0.18-0.25-0.18 c-0.09,0-0.17,0.05-0.22,0.12h-1.07c-0.05-0.07-0.13-0.12-0.22-0.12c-0.15,0-0.27,0.12-0.27,0.27c0,0.15,0.12,0.27,0.27,0.27 c0.09,0,0.17-0.05,0.22-0.12h1.07c0.05,0.07,0.13,0.12,0.22,0.12c0.06,0,0.12-0.02,0.17-0.06L44,12.1c0,0.15,0.12,0.27,0.27,0.27 c0.09,0,0.17-0.05,0.22-0.12H50v-0.3h-5.51C44.44,11.88,44.36,11.84,44.27,11.84z M38.96,9.99c-0.06,0-0.1-0.05-0.1-0.1 c0-0.06,0.05-0.1,0.1-0.1c0.06,0,0.1,0.05,0.1,0.1C39.06,9.95,39.01,9.99,38.96,9.99z"/>
        <path class="st4" d="M4.46,32.36c0.1-0.04,0.17-0.13,0.17-0.25c0-0.15-0.12-0.27-0.27-0.27c-0.15,0-0.27,0.12-0.27,0.27 c0,0.11,0.07,0.21,0.17,0.25v1.14H0v0.2h4.46V32.36z M4.36,32.22c-0.06,0-0.1-0.05-0.1-0.1c0-0.06,0.05-0.1,0.1-0.1 s0.1,0.05,0.1,0.1C4.47,32.17,4.42,32.22,4.36,32.22z"/>
        <path class="st4" d="M9.15,34.79v-2.74H7.48v-1.06c0.1-0.04,0.16-0.14,0.16-0.25c0-0.15-0.12-0.27-0.27-0.27 c-0.15,0-0.27,0.12-0.27,0.27c0,0.12,0.07,0.21,0.18,0.25v1.25h1.67v2.55c-0.1,0.04-0.16,0.14-0.16,0.25 c0,0.15,0.12,0.27,0.27,0.27c0.15,0,0.27-0.12,0.27-0.27C9.32,34.92,9.25,34.82,9.15,34.79z M7.42,30.82h-0.1 c-0.03-0.02-0.05-0.05-0.05-0.09c0-0.06,0.05-0.1,0.1-0.1c0.06,0,0.1,0.05,0.1,0.1C7.48,30.77,7.45,30.81,7.42,30.82z M9.05,35.14c-0.06,0-0.1-0.05-0.1-0.1s0.05-0.1,0.1-0.1c0.06,0,0.1,0.05,0.1,0.1S9.11,35.14,9.05,35.14z"/>
        <path class="st4" d="M5.91,33.68l1.7,0v1.1c-0.11,0.04-0.18,0.13-0.18,0.25c0,0.15,0.12,0.27,0.27,0.27 c0.15,0,0.27-0.12,0.27-0.27c0-0.11-0.06-0.2-0.15-0.24v-1.32l-2.1,0v1.73H0v0.2h5.91V33.68z M7.7,34.94c0.06,0,0.1,0.05,0.1,0.1 c0,0.06-0.05,0.1-0.1,0.1c-0.06,0-0.1-0.05-0.1-0.1C7.6,34.98,7.64,34.94,7.7,34.94z"/>
        <path class="st4" d="M4.2,43.59c0.15,0,0.27-0.12,0.27-0.27c0-0.15-0.12-0.27-0.27-0.27c-0.09,0-0.17,0.05-0.22,0.12H0v0.3h3.98 C4.02,43.54,4.11,43.59,4.2,43.59z M4.2,43.22c0.06,0,0.1,0.05,0.1,0.1s-0.05,0.1-0.1,0.1c-0.06,0-0.1-0.05-0.1-0.1 S4.14,43.22,4.2,43.22z"/>
        <path class="st4" d="M4.16,40.77c0.04,0,0.07-0.01,0.1-0.02l3.45,2.06c0.04,0.1,0.13,0.18,0.25,0.18c0.09,0,0.17-0.05,0.22-0.12 h13.76c0.05,0.07,0.13,0.12,0.22,0.12c0.15,0,0.27-0.12,0.27-0.27s-0.12-0.27-0.27-0.27c-0.09,0-0.17,0.05-0.22,0.12H8.18 c-0.05-0.07-0.13-0.12-0.22-0.12c-0.06,0-0.12,0.02-0.17,0.06L4.42,40.5c0-0.15-0.12-0.27-0.27-0.27c-0.09,0-0.17,0.05-0.22,0.12 H0v0.3h3.93C3.98,40.72,4.06,40.77,4.16,40.77z M22.16,42.61c0.06,0,0.1,0.05,0.1,0.1s-0.05,0.1-0.1,0.1s-0.1-0.05-0.1-0.1 S22.1,42.61,22.16,42.61z"/>
        <path class="st4" d="M3.89,39.66c0.04,0,0.07-0.01,0.1-0.02l3.45,2.06c0.04,0.1,0.13,0.18,0.25,0.18c0.09,0,0.17-0.05,0.22-0.12 h12.67c0.05,0.07,0.13,0.12,0.22,0.12c0.15,0,0.27-0.12,0.27-0.27c0-0.15-0.12-0.27-0.27-0.27c-0.09,0-0.17,0.05-0.22,0.12H7.91 c-0.05-0.07-0.13-0.12-0.22-0.12c-0.06,0-0.12,0.02-0.17,0.06l-3.36-2.01c0-0.15-0.12-0.27-0.27-0.27 c-0.09,0-0.17,0.05-0.22,0.12H0v0.3h3.67C3.72,39.61,3.8,39.66,3.89,39.66z M20.8,41.51c0.06,0,0.1,0.05,0.1,0.1 s-0.05,0.1-0.1,0.1c-0.06,0-0.1-0.05-0.1-0.1S20.74,41.51,20.8,41.51z"/>
        <path class="st4" d="M3.78,38.44c0.03,0,0.07-0.01,0.1-0.02l3.34,2.05c0.04,0.1,0.13,0.18,0.25,0.18c0.09,0,0.17-0.05,0.22-0.12 h7.41c0.05,0.07,0.13,0.12,0.22,0.12c0.15,0,0.27-0.12,0.27-0.27c0-0.15-0.12-0.27-0.27-0.27c-0.09,0-0.17,0.05-0.22,0.12H7.69 c-0.05-0.07-0.13-0.12-0.22-0.12c-0.06,0-0.12,0.02-0.17,0.06l-3.26-2c0,0,0,0,0,0c0-0.15-0.12-0.27-0.27-0.27 c-0.09,0-0.17,0.05-0.22,0.12H0v0.3h3.56C3.61,38.39,3.69,38.44,3.78,38.44z M15.33,40.28c0.06,0,0.1,0.05,0.1,0.1 s-0.05,0.1-0.1,0.1s-0.1-0.05-0.1-0.1S15.27,40.28,15.33,40.28z"/>
        <path class="st4" d="M3.52,37.33c0.04,0,0.07-0.01,0.1-0.02l3.45,2.06c0.04,0.1,0.13,0.18,0.25,0.18c0.09,0,0.17-0.05,0.22-0.12 H8.6c0.05,0.07,0.13,0.12,0.22,0.12c0.15,0,0.27-0.12,0.27-0.27c0-0.15-0.12-0.27-0.27-0.27c-0.09,0-0.17,0.05-0.22,0.12H7.54 c-0.05-0.07-0.13-0.12-0.22-0.12c-0.06,0-0.12,0.02-0.17,0.06l-3.36-2.01c0-0.15-0.12-0.27-0.27-0.27 c-0.09,0-0.17,0.05-0.22,0.12H0v0.3h3.3C3.34,37.28,3.43,37.33,3.52,37.33z M8.83,39.17c0.06,0,0.1,0.05,0.1,0.1 c0,0.06-0.05,0.1-0.1,0.1c-0.06,0-0.1-0.05-0.1-0.1C8.72,39.22,8.77,39.17,8.83,39.17z"/>
        <path class="st4" d="M30.38,40.73c0.08-0.03,0.14-0.11,0.14-0.2c0-0.12-0.09-0.21-0.21-0.21c-0.12,0-0.21,0.09-0.21,0.21 c0,0.09,0.05,0.16,0.13,0.19v2.38h-0.98v-2.79c0.1-0.04,0.17-0.13,0.17-0.25c0-0.15-0.12-0.27-0.27-0.27 c-0.15,0-0.27,0.12-0.27,0.27c0,0.11,0.07,0.2,0.16,0.24v2.79h-0.98v-2.38c0.08-0.03,0.14-0.11,0.14-0.2 c0-0.12-0.09-0.21-0.21-0.21c-0.12,0-0.21,0.09-0.21,0.21c0,0.09,0.05,0.16,0.13,0.19v2.38h-1.45c-0.05-0.07-0.13-0.12-0.22-0.12 c-0.15,0-0.27,0.12-0.27,0.27l-3.36,2.01c-0.05-0.04-0.1-0.06-0.17-0.06c-0.09,0-0.17,0.05-0.22,0.12h-4.16 c-0.05-0.07-0.13-0.12-0.22-0.12c-0.15,0-0.27,0.12-0.27,0.27c0,0.15,0.12,0.27,0.27,0.27c0.09,0,0.17-0.05,0.22-0.12h4.16 c0.05,0.07,0.13,0.12,0.22,0.12c0.12,0,0.21-0.07,0.25-0.18l3.45-2.06c0.03,0.01,0.07,0.02,0.1,0.02c0.09,0,0.17-0.05,0.22-0.12 H50v-0.3H30.38V40.73z M17.83,45.57c-0.06,0-0.1-0.05-0.1-0.1s0.05-0.1,0.1-0.1c0.06,0,0.1,0.05,0.1,0.1S17.89,45.57,17.83,45.57 z M27.91,40.53c0-0.05,0.04-0.08,0.08-0.08c0.05,0,0.08,0.04,0.08,0.08c0,0.05-0.04,0.08-0.08,0.08 C27.94,40.62,27.91,40.58,27.91,40.53z M29.15,40.17c-0.06,0-0.1-0.05-0.1-0.1c0-0.06,0.05-0.1,0.1-0.1c0.06,0,0.1,0.05,0.1,0.1 C29.25,40.12,29.21,40.17,29.15,40.17z M30.22,40.53c0-0.05,0.04-0.08,0.08-0.08c0.05,0,0.08,0.04,0.08,0.08 c0,0.05-0.04,0.08-0.08,0.08C30.26,40.62,30.22,40.58,30.22,40.53z"/>
        <path class="st4" d="M11.74,48.55c0.09,0,0.17-0.05,0.22-0.12h5.92c0.05,0.07,0.13,0.12,0.22,0.12c0.15,0,0.27-0.12,0.27-0.27 c0-0.15-0.12-0.27-0.27-0.27c-0.09,0-0.17,0.05-0.22,0.12h-2v-0.98c0.08-0.03,0.13-0.11,0.13-0.2c0-0.12-0.09-0.21-0.21-0.21 s-0.21,0.09-0.21,0.21c0,0.09,0.05,0.16,0.13,0.19v0.99h-0.98v-1.4c0.1-0.04,0.17-0.13,0.17-0.25c0-0.15-0.12-0.27-0.27-0.27 c-0.15,0-0.27,0.12-0.27,0.27c0,0.11,0.07,0.2,0.16,0.24v1.4h-0.98v-0.98c0.08-0.03,0.14-0.11,0.14-0.2 c0-0.12-0.09-0.21-0.21-0.21c-0.12,0-0.21,0.09-0.21,0.21c0,0.09,0.05,0.16,0.13,0.19v0.99h-1.45c-0.05-0.07-0.13-0.12-0.22-0.12 c-0.15,0-0.27,0.12-0.27,0.27L8.59,50h0.58l2.46-1.47C11.67,48.54,11.7,48.55,11.74,48.55z M18,48.28c0-0.05,0.05-0.1,0.1-0.1 c0.06,0,0.1,0.05,0.1,0.1c0,0.06-0.05,0.1-0.1,0.1c-0.06,0-0.1-0.04-0.1-0.1V48.28z M15.81,46.88c0.05,0,0.08,0.04,0.08,0.08 c0,0.05-0.04,0.08-0.08,0.08c-0.05,0-0.08-0.04-0.08-0.08C15.72,46.91,15.76,46.88,15.81,46.88z M14.65,46.39 c0.06,0,0.1,0.05,0.1,0.1c0,0.06-0.05,0.1-0.1,0.1c-0.06,0-0.1-0.05-0.1-0.1C14.55,46.43,14.59,46.39,14.65,46.39z M13.49,46.88 c0.05,0,0.08,0.04,0.08,0.08c0,0.05-0.04,0.08-0.08,0.08c-0.05,0-0.08-0.04-0.08-0.08C13.41,46.91,13.44,46.88,13.49,46.88z"/>
        <path class="st4" d="M40.36,39.68c-0.15,0-0.27,0.12-0.27,0.27l-3.36,2.01c-0.05-0.04-0.1-0.06-0.17-0.06 c-0.09,0-0.17,0.05-0.22,0.12h-4.16c-0.05-0.07-0.13-0.12-0.22-0.12c-0.15,0-0.27,0.12-0.27,0.27c0,0.15,0.12,0.27,0.27,0.27 c0.09,0,0.17-0.05,0.22-0.12h4.16c0.05,0.07,0.13,0.12,0.22,0.12c0.12,0,0.21-0.07,0.25-0.18l3.45-2.06 c0.03,0.01,0.07,0.02,0.1,0.02c0.09,0,0.17-0.05,0.22-0.12H50v-0.3h-9.42C40.54,39.72,40.46,39.68,40.36,39.68z M31.96,42.26 c-0.06,0-0.1-0.05-0.1-0.1s0.05-0.1,0.1-0.1c0.06,0,0.1,0.05,0.1,0.1S32.02,42.26,31.96,42.26z"/>
        <path class="st4" d="M40.63,38.57c-0.15,0-0.27,0.12-0.27,0.27L37,40.84c-0.05-0.04-0.1-0.06-0.17-0.06 c-0.09,0-0.17,0.05-0.22,0.12h-3.07c-0.05-0.07-0.13-0.12-0.22-0.12c-0.15,0-0.27,0.12-0.27,0.27c0,0.15,0.12,0.27,0.27,0.27 c0.09,0,0.17-0.05,0.22-0.12h3.07c0.05,0.07,0.13,0.12,0.22,0.12c0.12,0,0.21-0.07,0.25-0.18l3.45-2.06 c0.03,0.01,0.07,0.02,0.1,0.02c0.09,0,0.17-0.05,0.22-0.12H50v-0.3h-9.15C40.8,38.62,40.72,38.57,40.63,38.57z M33.32,41.15 c-0.06,0-0.1-0.05-0.1-0.1c0-0.06,0.05-0.1,0.1-0.1c0.06,0,0.1,0.05,0.1,0.1C33.42,41.11,33.38,41.15,33.32,41.15z"/>
        <path class="st4" d="M48.59,24.04c-0.15,0-0.27,0.12-0.27,0.27v0l-3.36,2.01c-0.05-0.04-0.1-0.06-0.17-0.06 c-0.09,0-0.17,0.05-0.22,0.12h-4.16c-0.05-0.07-0.13-0.12-0.22-0.12c-0.15,0-0.27,0.12-0.27,0.27c0,0.15,0.12,0.27,0.27,0.27 c0.09,0,0.17-0.05,0.22-0.12h4.16c0.05,0.07,0.13,0.12,0.22,0.12c0.12,0,0.21-0.07,0.25-0.18l3.45-2.06 c0.03,0.01,0.07,0.02,0.1,0.02c0.09,0,0.17-0.05,0.22-0.12H50v-0.3h-1.19C48.76,24.09,48.68,24.04,48.59,24.04z M40.18,26.63 c-0.06,0-0.1-0.05-0.1-0.1c0-0.06,0.05-0.1,0.1-0.1s0.1,0.05,0.1,0.1C40.29,26.58,40.24,26.63,40.18,26.63z"/>
        <path class="st4" d="M48.85,22.94c-0.15,0-0.27,0.12-0.27,0.27l-3.36,2.01c-0.05-0.04-0.1-0.06-0.17-0.06 c-0.09,0-0.17,0.05-0.22,0.12h-3.07c-0.05-0.07-0.13-0.12-0.22-0.12c-0.15,0-0.27,0.12-0.27,0.27c0,0.15,0.12,0.27,0.27,0.27 c0.09,0,0.17-0.05,0.22-0.12h3.07c0.05,0.07,0.13,0.12,0.22,0.12c0.12,0,0.21-0.07,0.25-0.18l3.45-2.06 c0.03,0.01,0.07,0.02,0.1,0.02c0.09,0,0.17-0.05,0.22-0.12H50v-0.3h-0.93C49.03,22.98,48.94,22.94,48.85,22.94z M41.54,25.52 c-0.06,0-0.1-0.05-0.1-0.1s0.05-0.1,0.1-0.1s0.1,0.05,0.1,0.1S41.6,25.52,41.54,25.52z"/>
        <path class="st4" d="M34.42,4.53c-0.15,0-0.27,0.12-0.27,0.27l-3.36,2.01c-0.05-0.04-0.1-0.06-0.17-0.06 c-0.09,0-0.17,0.05-0.22,0.12h-4.16c-0.05-0.07-0.13-0.12-0.22-0.12c-0.15,0-0.27,0.12-0.27,0.27c0,0.15,0.12,0.27,0.27,0.27 c0.09,0,0.17-0.05,0.22-0.12h4.16c0.05,0.07,0.13,0.12,0.22,0.12c0.12,0,0.21-0.07,0.25-0.18l3.45-2.06 c0.03,0.01,0.07,0.02,0.1,0.02c0.09,0,0.17-0.05,0.22-0.12H50v-0.3H34.65C34.6,4.58,34.52,4.53,34.42,4.53z M26.02,7.12 c-0.06,0-0.1-0.05-0.1-0.1c0-0.06,0.05-0.1,0.1-0.1c0.06,0,0.1,0.05,0.1,0.1C26.12,7.07,26.08,7.12,26.02,7.12z"/>
        <path class="st4" d="M34.69,3.43c-0.15,0-0.27,0.12-0.27,0.27L31.06,5.7c-0.05-0.04-0.1-0.06-0.17-0.06 c-0.09,0-0.17,0.05-0.22,0.12H27.6c-0.05-0.07-0.13-0.12-0.22-0.12c-0.15,0-0.27,0.12-0.27,0.27c0,0.15,0.12,0.27,0.27,0.27 c0.09,0,0.17-0.05,0.22-0.12h3.07c0.05,0.07,0.13,0.12,0.22,0.12c0.12,0,0.21-0.07,0.25-0.18l3.45-2.06 c0.03,0.01,0.07,0.02,0.1,0.02c0.09,0,0.17-0.05,0.22-0.12H50v-0.3H34.91C34.86,3.47,34.78,3.43,34.69,3.43z M27.38,6.01 c-0.06,0-0.1-0.05-0.1-0.1c0-0.06,0.05-0.1,0.1-0.1c0.06,0,0.1,0.05,0.1,0.1C27.48,5.97,27.44,6.01,27.38,6.01z"/>
        <path class="st4" d="M48.34,36.58c-0.09,0-0.17,0.05-0.22,0.12h-4.16c-0.05-0.07-0.13-0.12-0.22-0.12 c-0.15,0-0.27,0.12-0.27,0.27c0,0.15,0.12,0.27,0.27,0.27c0.09,0,0.17-0.05,0.22-0.12h4.16c0.05,0.07,0.13,0.12,0.22,0.12 c0.12,0,0.21-0.07,0.25-0.18L50,36.09v-0.35l-1.49,0.89C48.46,36.6,48.41,36.58,48.34,36.58z M43.74,36.95 c-0.06,0-0.1-0.05-0.1-0.1c0-0.06,0.05-0.1,0.1-0.1c0.06,0,0.1,0.05,0.1,0.1C43.84,36.9,43.79,36.95,43.74,36.95z"/>
        <path class="st4" d="M48.61,35.47c-0.09,0-0.17,0.05-0.22,0.12h-3.07c-0.05-0.07-0.13-0.12-0.22-0.12 c-0.15,0-0.27,0.12-0.27,0.27c0,0.15,0.12,0.27,0.27,0.27c0.09,0,0.17-0.05,0.22-0.12h3.07c0.05,0.07,0.13,0.12,0.22,0.12 c0.12,0,0.21-0.07,0.25-0.18L50,35.15V34.8l-1.22,0.73C48.73,35.49,48.67,35.47,48.61,35.47z M45.1,35.84 c-0.06,0-0.1-0.05-0.1-0.1s0.05-0.1,0.1-0.1s0.1,0.05,0.1,0.1S45.15,35.84,45.1,35.84z"/>
        <path class="st4" d="M48.59,29.98c-0.04,0-0.07,0.01-0.1,0.02l-3.45-2.06c-0.04-0.1-0.13-0.18-0.25-0.18 c-0.09,0-0.17,0.05-0.22,0.12h-4.16c-0.05-0.07-0.13-0.12-0.22-0.12c-0.15,0-0.27,0.12-0.27,0.27c0,0.15,0.12,0.27,0.27,0.27 c0.09,0,0.17-0.05,0.22-0.12h4.16c0.05,0.07,0.13,0.12,0.22,0.12c0.06,0,0.12-0.02,0.17-0.06l3.36,2.01 c0,0.15,0.12,0.27,0.27,0.27c0.09,0,0.17-0.05,0.22-0.12H50v-0.3h-1.19C48.76,30.03,48.68,29.98,48.59,29.98z M40.18,28.14 c-0.06,0-0.1-0.05-0.1-0.1s0.05-0.1,0.1-0.1s0.1,0.05,0.1,0.1S40.24,28.14,40.18,28.14z"/>
        <path class="st4" d="M48.85,31.09c-0.04,0-0.07,0.01-0.1,0.02l-3.45-2.06c-0.04-0.1-0.13-0.18-0.25-0.18 c-0.09,0-0.17,0.05-0.22,0.12h-3.07c-0.05-0.07-0.13-0.12-0.22-0.12c-0.15,0-0.27,0.12-0.27,0.27c0,0.15,0.12,0.27,0.27,0.27 c0.09,0,0.17-0.05,0.22-0.12h3.07c0.05,0.07,0.13,0.12,0.22,0.12c0.06,0,0.12-0.02,0.17-0.06l3.36,2.01 c0,0.15,0.12,0.27,0.27,0.27c0.09,0,0.17-0.05,0.22-0.12H50v-0.3h-0.93C49.03,31.14,48.94,31.09,48.85,31.09z M41.54,29.24 c-0.06,0-0.1-0.05-0.1-0.1c0-0.06,0.05-0.1,0.1-0.1s0.1,0.05,0.1,0.1C41.65,29.2,41.6,29.24,41.54,29.24z"/>
        <path class="st4" d="M7.52,5.3c0.15,0,0.27-0.12,0.27-0.27c0-0.15-0.12-0.27-0.27-0.27c-0.09,0-0.17,0.05-0.22,0.12H0v0.3h7.3 C7.35,5.26,7.43,5.3,7.52,5.3z M7.53,4.93c0.06,0,0.1,0.05,0.1,0.1c0,0.06-0.05,0.1-0.1,0.1c-0.06,0-0.1-0.05-0.1-0.1 C7.42,4.98,7.47,4.93,7.53,4.93z"/>
        <path class="st4" d="M7.83,27.43l1.7,0v1.1c-0.11,0.04-0.18,0.13-0.18,0.25c0,0.15,0.12,0.27,0.27,0.27 c0.15,0,0.27-0.12,0.27-0.27c0-0.11-0.06-0.2-0.15-0.24v-1.32l-2.1,0v1.73H0v0.2h7.83V27.43z M9.62,28.68 c0.06,0,0.1,0.05,0.1,0.1c0,0.06-0.05,0.1-0.1,0.1c-0.06,0-0.1-0.05-0.1-0.1C9.51,28.73,9.56,28.68,9.62,28.68z"/>
        <path class="st4" d="M23.57,0.79c-0.15,0-0.27,0.12-0.27,0.27c0,0.11,0.07,0.21,0.16,0.25v2.55H21.8V5.1 c-0.1,0.04-0.18,0.13-0.18,0.25c0,0.15,0.12,0.27,0.27,0.27c0.15,0,0.27-0.12,0.27-0.27c0-0.11-0.07-0.21-0.16-0.25V4.05h1.67 V1.3c0.1-0.04,0.18-0.13,0.18-0.25C23.83,0.9,23.72,0.79,23.57,0.79z M21.89,5.46c-0.06,0-0.1-0.05-0.1-0.1 c0-0.04,0.02-0.07,0.05-0.09h0.1c0.03,0.02,0.05,0.05,0.05,0.09C21.99,5.41,21.94,5.46,21.89,5.46z M23.57,1.16 c-0.06,0-0.1-0.05-0.1-0.1c0-0.06,0.05-0.1,0.1-0.1c0.06,0,0.1,0.05,0.1,0.1C23.67,1.11,23.62,1.16,23.57,1.16z"/>
        <path class="st4" d="M22.56,0.78c-0.15,0-0.27,0.12-0.27,0.27c0,0.12,0.08,0.22,0.18,0.25v1.1l-1.7,0V0.68h-2.79 c-0.04-0.1-0.14-0.16-0.25-0.16c-0.15,0-0.27,0.12-0.27,0.27c0,0.15,0.12,0.27,0.27,0.27c0.11,0,0.21-0.07,0.25-0.17h2.59v1.73 l2.1,0V1.29c0.09-0.04,0.15-0.13,0.15-0.24C22.83,0.9,22.71,0.78,22.56,0.78z M17.74,0.89c-0.06,0-0.1-0.05-0.1-0.1 c0-0.06,0.05-0.1,0.1-0.1c0.06,0,0.1,0.05,0.1,0.1C17.85,0.84,17.8,0.89,17.74,0.89z M22.57,1.15c-0.06,0-0.1-0.05-0.1-0.1 c0-0.06,0.05-0.1,0.1-0.1c0.06,0,0.1,0.05,0.1,0.1C22.67,1.11,22.62,1.15,22.57,1.15z"/>
        <path class="st4" d="M9.32,17.01v-2.74H7.65V13.2c0.1-0.04,0.16-0.14,0.16-0.25c0-0.15-0.12-0.27-0.27-0.27 c-0.15,0-0.27,0.12-0.27,0.27c0,0.12,0.07,0.21,0.18,0.25v1.25h1.67v2.55c-0.1,0.04-0.16,0.14-0.16,0.25 c0,0.15,0.12,0.27,0.27,0.27c0.15,0,0.27-0.12,0.27-0.27C9.49,17.14,9.42,17.05,9.32,17.01z M7.59,13.05h-0.1 C7.46,13.03,7.44,13,7.44,12.96c0-0.06,0.05-0.1,0.1-0.1c0.06,0,0.1,0.05,0.1,0.1C7.65,13,7.62,13.03,7.59,13.05z M9.22,17.36 c-0.06,0-0.1-0.05-0.1-0.1c0-0.06,0.05-0.1,0.1-0.1c0.06,0,0.1,0.05,0.1,0.1C9.33,17.32,9.28,17.36,9.22,17.36z"/>
        <path class="st4" d="M8.34,17.02v-1.32l-2.1,0v1.73H3.64c-0.04-0.1-0.13-0.17-0.25-0.17c-0.15,0-0.27,0.12-0.27,0.27 c0,0.15,0.12,0.27,0.27,0.27c0.11,0,0.21-0.07,0.25-0.16h2.79V15.9l1.7,0v1.1c-0.11,0.04-0.18,0.13-0.18,0.25 c0,0.15,0.12,0.27,0.27,0.27c0.15,0,0.27-0.12,0.27-0.27C8.49,17.16,8.43,17.07,8.34,17.02z M3.4,17.63c-0.06,0-0.1-0.05-0.1-0.1 c0-0.06,0.05-0.1,0.1-0.1c0.06,0,0.1,0.05,0.1,0.1C3.5,17.59,3.46,17.63,3.4,17.63z M8.22,17.37c-0.06,0-0.1-0.05-0.1-0.1 c0-0.06,0.05-0.1,0.1-0.1c0.06,0,0.1,0.05,0.1,0.1C8.33,17.32,8.28,17.37,8.22,17.37z"/>
        <path class="st4" d="M11.85,3.35c0.04,0,0.07-0.01,0.1-0.02l3.45,2.06c0.04,0.1,0.13,0.18,0.25,0.18c0.09,0,0.17-0.05,0.22-0.12 h4.16c0.05,0.07,0.13,0.12,0.22,0.12c0.15,0,0.27-0.12,0.27-0.27c0-0.15-0.12-0.27-0.27-0.27c-0.09,0-0.17,0.05-0.22,0.12h-4.16 c-0.05-0.07-0.13-0.12-0.22-0.12c-0.06,0-0.12,0.02-0.17,0.06l-3.36-2.01v0c0-0.15-0.12-0.27-0.27-0.27 c-0.09,0-0.17,0.05-0.22,0.12H0v0.3h11.63C11.68,3.31,11.76,3.35,11.85,3.35z M20.26,5.2c0.06,0,0.1,0.05,0.1,0.1 c0,0.06-0.05,0.1-0.1,0.1c-0.06,0-0.1-0.05-0.1-0.1C20.15,5.25,20.2,5.2,20.26,5.2z"/>
        <path class="st4" d="M11.59,2.25c0.04,0,0.07-0.01,0.1-0.02l3.45,2.06c0.04,0.1,0.13,0.18,0.25,0.18c0.09,0,0.17-0.05,0.22-0.12 h3.07c0.05,0.07,0.13,0.12,0.22,0.12c0.15,0,0.27-0.12,0.27-0.27c0-0.15-0.12-0.27-0.27-0.27c-0.09,0-0.17,0.05-0.22,0.12h-3.07 c-0.05-0.07-0.13-0.12-0.22-0.12c-0.06,0-0.12,0.02-0.17,0.06l-3.36-2.01c0-0.15-0.12-0.27-0.27-0.27 c-0.09,0-0.17,0.05-0.22,0.12H0v0.3h11.36C11.41,2.2,11.49,2.25,11.59,2.25z M18.9,4.09c0.06,0,0.1,0.05,0.1,0.1 c0,0.06-0.05,0.1-0.1,0.1c-0.06,0-0.1-0.05-0.1-0.1C18.79,4.14,18.84,4.09,18.9,4.09z"/>
        <path class="st4" d="M11.48,1.02c0.03,0,0.07-0.01,0.1-0.02l3.34,2.05c0.04,0.1,0.13,0.18,0.25,0.18c0.09,0,0.17-0.05,0.22-0.12 h2.16c0.05,0.07,0.13,0.12,0.22,0.12c0.15,0,0.27-0.12,0.27-0.27c0-0.15-0.12-0.27-0.27-0.27c-0.09,0-0.17,0.05-0.22,0.12h-2.16 c-0.05-0.07-0.13-0.12-0.22-0.12c-0.06,0-0.12,0.02-0.17,0.06l-3.26-2c0,0,0,0,0,0c0-0.15-0.12-0.27-0.27-0.27 c-0.09,0-0.17,0.05-0.22,0.12H0v0.3h11.26C11.31,0.97,11.39,1.02,11.48,1.02z M17.77,2.87c0.06,0,0.1,0.05,0.1,0.1 c0,0.06-0.05,0.1-0.1,0.1c-0.06,0-0.1-0.05-0.1-0.1C17.67,2.91,17.72,2.87,17.77,2.87z"/>
        <path class="st4" d="M15.01,2.13c0.09,0,0.17-0.05,0.22-0.12h1.07c0.05,0.07,0.13,0.12,0.22,0.12c0.15,0,0.27-0.12,0.27-0.27 c0-0.15-0.12-0.27-0.27-0.27c-0.09,0-0.17,0.05-0.22,0.12h-1.07C15.19,1.64,15.1,1.6,15.01,1.6c-0.06,0-0.12,0.02-0.17,0.06 L12.07,0h-0.58l3.27,1.95C14.8,2.05,14.9,2.13,15.01,2.13z M16.52,1.76c0.06,0,0.1,0.05,0.1,0.1c0,0.06-0.05,0.1-0.1,0.1 s-0.1-0.05-0.1-0.1C16.42,1.8,16.47,1.76,16.52,1.76z"/>
        <path class="st4" d="M18.68,8.88c-0.08,0.03-0.14,0.11-0.14,0.2c0,0.12,0.09,0.21,0.21,0.21c0.12,0,0.21-0.09,0.21-0.21 c0-0.09-0.05-0.16-0.13-0.19V6.5h0.98V9.3c-0.1,0.04-0.17,0.13-0.17,0.25c0,0.15,0.12,0.27,0.27,0.27c0.15,0,0.27-0.12,0.27-0.27 c0-0.11-0.07-0.2-0.16-0.24V6.5H21v2.38c-0.08,0.03-0.14,0.11-0.14,0.2c0,0.12,0.09,0.21,0.21,0.21c0.12,0,0.21-0.09,0.21-0.21 c0-0.09-0.05-0.16-0.13-0.19V6.5h1.45c0.05,0.07,0.13,0.12,0.22,0.12c0.15,0,0.27-0.12,0.27-0.27l3.36-2.01 c0.05,0.04,0.1,0.06,0.17,0.06c0.09,0,0.17-0.05,0.22-0.12H31c0.05,0.07,0.13,0.12,0.22,0.12c0.15,0,0.27-0.12,0.27-0.27 c0-0.15-0.12-0.27-0.27-0.27c-0.09,0-0.17,0.05-0.22,0.12h-4.16c-0.05-0.07-0.13-0.12-0.22-0.12c-0.12,0-0.21,0.07-0.25,0.18 l-3.45,2.06c-0.03-0.01-0.07-0.02-0.1-0.02c-0.09,0-0.17,0.05-0.22,0.12H0v0.3h18.68V8.88z M31.23,4.04c0.06,0,0.1,0.05,0.1,0.1 c0,0.06-0.05,0.1-0.1,0.1c-0.06,0-0.1-0.05-0.1-0.1C31.13,4.08,31.17,4.04,31.23,4.04z M21.15,9.07c0,0.05-0.04,0.08-0.08,0.08 c-0.05,0-0.08-0.04-0.08-0.08c0-0.05,0.04-0.08,0.08-0.08C21.12,8.99,21.15,9.03,21.15,9.07z M19.91,9.44 c0.06,0,0.1,0.05,0.1,0.1c0,0.06-0.05,0.1-0.1,0.1s-0.1-0.05-0.1-0.1C19.81,9.48,19.85,9.44,19.91,9.44z M18.84,9.07 c0,0.05-0.04,0.08-0.08,0.08c-0.05,0-0.08-0.04-0.08-0.08c0-0.05,0.04-0.08,0.08-0.08C18.8,8.99,18.84,9.03,18.84,9.07z"/>
        <path class="st4" d="M8.7,9.93c0.15,0,0.27-0.12,0.27-0.27l3.36-2.01c0.05,0.04,0.1,0.06,0.17,0.06c0.09,0,0.17-0.05,0.22-0.12 h4.16c0.05,0.07,0.13,0.12,0.22,0.12c0.15,0,0.27-0.12,0.27-0.27c0-0.15-0.12-0.27-0.27-0.27c-0.09,0-0.17,0.05-0.22,0.12h-4.16 c-0.05-0.07-0.13-0.12-0.22-0.12c-0.12,0-0.21,0.07-0.25,0.18L8.8,9.42C8.77,9.41,8.73,9.4,8.7,9.4c-0.09,0-0.17,0.05-0.22,0.12 H0v0.3h8.48C8.52,9.88,8.61,9.93,8.7,9.93z M17.1,7.35c0.06,0,0.1,0.05,0.1,0.1c0,0.06-0.05,0.1-0.1,0.1S17,7.51,17,7.45 C17,7.39,17.04,7.35,17.1,7.35z"/>
        <path class="st4" d="M8.43,11.04c0.15,0,0.27-0.12,0.27-0.27l3.36-2.01c0.05,0.04,0.1,0.06,0.17,0.06c0.09,0,0.17-0.05,0.22-0.12 h3.07c0.05,0.07,0.13,0.12,0.22,0.12C15.89,8.82,16,8.7,16,8.56c0-0.15-0.12-0.27-0.27-0.27c-0.09,0-0.17,0.05-0.22,0.12h-3.07 c-0.05-0.07-0.13-0.12-0.22-0.12c-0.12,0-0.21,0.07-0.25,0.18l-3.45,2.06c-0.03-0.01-0.07-0.02-0.1-0.02 c-0.09,0-0.17,0.05-0.22,0.12H0v0.3h8.21C8.26,10.99,8.34,11.04,8.43,11.04z M15.74,8.45c0.06,0,0.1,0.05,0.1,0.1 c0,0.06-0.05,0.1-0.1,0.1c-0.06,0-0.1-0.05-0.1-0.1C15.64,8.5,15.68,8.45,15.74,8.45z"/>
        <path class="st4" d="M0.48,26.12c0.15,0,0.27-0.12,0.27-0.27l3.36-2.01c0.05,0.04,0.1,0.06,0.17,0.06c0.09,0,0.17-0.05,0.22-0.12 h4.16c0.05,0.07,0.13,0.12,0.22,0.12c0.15,0,0.27-0.12,0.27-0.27c0-0.15-0.12-0.27-0.27-0.27c-0.09,0-0.17,0.05-0.22,0.12H4.49 c-0.05-0.07-0.13-0.12-0.22-0.12c-0.12,0-0.21,0.07-0.25,0.18l-3.45,2.06c-0.03-0.01-0.07-0.02-0.1-0.02 c-0.09,0-0.17,0.05-0.22,0.12H0V26h0.25C0.3,26.07,0.38,26.12,0.48,26.12z M8.88,23.53c0.06,0,0.1,0.05,0.1,0.1 s-0.05,0.1-0.1,0.1c-0.06,0-0.1-0.05-0.1-0.1S8.82,23.53,8.88,23.53z"/>
        <path class="st4" d="M0.48,26.96l3.36-2.01c0.05,0.04,0.1,0.06,0.17,0.06c0.09,0,0.17-0.05,0.22-0.12h3.07 c0.05,0.07,0.13,0.12,0.22,0.12c0.15,0,0.27-0.12,0.27-0.27c0-0.15-0.12-0.27-0.27-0.27c-0.09,0-0.17,0.05-0.22,0.12H4.23 c-0.05-0.07-0.13-0.12-0.22-0.12c-0.12,0-0.21,0.07-0.25,0.18l-3.45,2.06c-0.03-0.01-0.07-0.02-0.1-0.02 c-0.09,0-0.16,0.04-0.21,0.1v0.02v0.3v0.02c0.05,0.06,0.12,0.1,0.21,0.1C0.36,27.23,0.48,27.11,0.48,26.96z M7.52,24.64 c0.06,0,0.1,0.05,0.1,0.1c0,0.06-0.05,0.1-0.1,0.1c-0.06,0-0.1-0.05-0.1-0.1C7.42,24.69,7.46,24.64,7.52,24.64z"/>
        <path class="st4" d="M0.72,13.03c0.09,0,0.17-0.05,0.22-0.12H5.1c0.05,0.07,0.13,0.12,0.22,0.12c0.15,0,0.27-0.12,0.27-0.27 c0-0.15-0.12-0.27-0.27-0.27c-0.09,0-0.17,0.05-0.22,0.12H0.94c-0.05-0.07-0.13-0.12-0.22-0.12c-0.12,0-0.21,0.07-0.25,0.18 L0,12.95v0.35l0.55-0.33C0.6,13.01,0.65,13.03,0.72,13.03z M5.32,12.66c0.06,0,0.1,0.05,0.1,0.1s-0.05,0.1-0.1,0.1 c-0.06,0-0.1-0.05-0.1-0.1S5.27,12.66,5.32,12.66z"/>
        <path class="st4" d="M0.45,14.14c0.09,0,0.17-0.05,0.22-0.12h3.07c0.05,0.07,0.13,0.12,0.22,0.12c0.15,0,0.27-0.12,0.27-0.27 c0-0.15-0.12-0.27-0.27-0.27c-0.09,0-0.17,0.05-0.22,0.12H0.67c-0.05-0.07-0.13-0.12-0.22-0.12c-0.12,0-0.21,0.07-0.25,0.18 L0,13.9v0.35l0.28-0.17C0.33,14.11,0.39,14.14,0.45,14.14z M3.96,13.77c0.06,0,0.1,0.05,0.1,0.1c0,0.06-0.05,0.1-0.1,0.1 c-0.06,0-0.1-0.05-0.1-0.1C3.86,13.81,3.91,13.77,3.96,13.77z"/>
        <path class="st4" d="M0.48,20.18c0.04,0,0.07-0.01,0.1-0.02l3.45,2.06c0.04,0.1,0.13,0.18,0.25,0.18c0.09,0,0.17-0.05,0.22-0.12 h4.16c0.05,0.07,0.13,0.12,0.22,0.12c0.15,0,0.27-0.12,0.27-0.27c0-0.15-0.12-0.27-0.27-0.27c-0.09,0-0.17,0.05-0.22,0.12H4.49 c-0.05-0.07-0.13-0.12-0.22-0.12c-0.06,0-0.12,0.02-0.17,0.06l-3.36-2.01c0-0.15-0.12-0.27-0.27-0.27 c-0.09,0-0.17,0.05-0.22,0.12H0v0.3h0.25C0.3,20.13,0.38,20.18,0.48,20.18z M8.88,22.03c0.06,0,0.1,0.05,0.1,0.1 c0,0.06-0.05,0.1-0.1,0.1c-0.06,0-0.1-0.05-0.1-0.1C8.78,22.07,8.82,22.03,8.88,22.03z"/>
        <path class="st4" d="M0.31,19.05l3.45,2.06c0.04,0.1,0.13,0.18,0.25,0.18c0.09,0,0.17-0.05,0.22-0.12h3.07 c0.05,0.07,0.13,0.12,0.22,0.12c0.15,0,0.27-0.12,0.27-0.27c0-0.15-0.12-0.27-0.27-0.27c-0.09,0-0.17,0.05-0.22,0.12H4.23 c-0.05-0.07-0.13-0.12-0.22-0.12c-0.06,0-0.12,0.02-0.17,0.06l-3.36-2.01c0-0.15-0.12-0.27-0.27-0.27c-0.09,0-0.16,0.04-0.21,0.1 v0.02v0.3v0.02c0.05,0.06,0.12,0.1,0.21,0.1C0.24,19.07,0.28,19.07,0.31,19.05z M7.52,20.92c0.06,0,0.1,0.05,0.1,0.1 c0,0.06-0.05,0.1-0.1,0.1c-0.06,0-0.1-0.05-0.1-0.1C7.42,20.97,7.46,20.92,7.52,20.92z"/>
      </g>
      <g class="st5">
        <path class="st4" d="M21.94,47.27c-0.07-0.13-0.23-0.19-0.36-0.12c-0.13,0.07-0.19,0.23-0.12,0.36c0.06,0.11,0.18,0.17,0.29,0.14 L25.54,50h0.56l-4.14-2.57C21.97,47.38,21.96,47.32,21.94,47.27z M21.75,47.48c-0.05,0.03-0.11,0-0.14-0.05 c-0.03-0.05,0-0.11,0.05-0.14c0.05-0.03,0.11,0,0.14,0.05C21.82,47.39,21.8,47.46,21.75,47.48z"/>
        <path class="st4" d="M41.54,44.64c-0.15,0-0.27,0.12-0.27,0.27s0.12,0.27,0.27,0.27c0.09,0,0.17-0.05,0.22-0.12H50v-0.3h-8.24 C41.71,44.68,41.63,44.64,41.54,44.64z M41.53,45.01c-0.06,0-0.1-0.05-0.1-0.1s0.05-0.1,0.1-0.1s0.1,0.05,0.1,0.1 S41.59,45.01,41.53,45.01z"/>
        <path class="st4" d="M45.88,17.14c-0.1,0.04-0.17,0.13-0.17,0.25c0,0.15,0.12,0.27,0.27,0.27c0.15,0,0.27-0.12,0.27-0.27 c0-0.11-0.07-0.21-0.17-0.25v-1.14H50v-0.2h-4.12V17.14z M45.98,17.28c0.06,0,0.1,0.05,0.1,0.1c0,0.06-0.05,0.1-0.1,0.1 c-0.06,0-0.1-0.05-0.1-0.1C45.87,17.33,45.92,17.28,45.98,17.28z"/>
        <path class="st4" d="M43.41,18.51v-1.25h-1.67v-2.55c0.1-0.04,0.16-0.14,0.16-0.25c0-0.15-0.12-0.27-0.27-0.27 c-0.15,0-0.27,0.12-0.27,0.27c0,0.12,0.07,0.21,0.18,0.25v2.74h1.67v1.06c-0.1,0.04-0.16,0.14-0.16,0.25 c0,0.15,0.12,0.27,0.27,0.27c0.15,0,0.27-0.12,0.27-0.27C43.58,18.65,43.51,18.55,43.41,18.51z M41.64,14.57 c-0.06,0-0.1-0.05-0.1-0.1s0.05-0.1,0.1-0.1c0.06,0,0.1,0.05,0.1,0.1S41.7,14.57,41.64,14.57z M43.32,18.87 c-0.06,0-0.1-0.05-0.1-0.1c0-0.04,0.02-0.07,0.05-0.09h0.1c0.03,0.02,0.05,0.05,0.05,0.09C43.42,18.82,43.38,18.87,43.32,18.87z"/>
        <path class="st4" d="M44.43,15.82l-1.7,0v-1.1c0.11-0.04,0.18-0.13,0.18-0.25c0-0.15-0.12-0.27-0.27-0.27s-0.27,0.12-0.27,0.27 c0,0.11,0.06,0.2,0.15,0.24v1.32l2.1,0v-1.73H50v-0.2h-5.57V15.82z M42.64,14.56c-0.06,0-0.1-0.05-0.1-0.1 c0-0.06,0.05-0.1,0.1-0.1s0.1,0.05,0.1,0.1C42.74,14.52,42.7,14.56,42.64,14.56z"/>
        <path class="st4" d="M42.34,22.74l-1.7,0v-1.1c0.11-0.04,0.18-0.13,0.18-0.25c0-0.15-0.12-0.27-0.27-0.27 c-0.15,0-0.27,0.12-0.27,0.27c0,0.11,0.06,0.2,0.15,0.24v1.32l2.1,0v-1.73H50v-0.2h-7.66V22.74z M40.55,21.48 c-0.06,0-0.1-0.05-0.1-0.1s0.05-0.1,0.1-0.1s0.1,0.05,0.1,0.1S40.61,21.48,40.55,21.48z"/>
        <path class="st4" d="M36.87,2c-0.11,0-0.21,0.07-0.25,0.17h-8.36V0.44l-2.1,0v1.32C26.08,1.81,26.02,1.9,26.02,2 c0,0.15,0.12,0.27,0.27,0.27c0.15,0,0.27-0.12,0.27-0.27c0-0.12-0.08-0.22-0.18-0.25v-1.1l1.7,0v1.73h8.56 c0.04,0.1,0.14,0.16,0.25,0.16c0.15,0,0.27-0.12,0.27-0.27C37.14,2.12,37.02,2,36.87,2z M26.38,2c0,0.06-0.05,0.1-0.1,0.1 c-0.06,0-0.1-0.05-0.1-0.1c0-0.06,0.05-0.1,0.1-0.1C26.34,1.9,26.38,1.95,26.38,2z M36.87,2.37c-0.06,0-0.1-0.05-0.1-0.1 c0-0.06,0.05-0.1,0.1-0.1c0.06,0,0.1,0.05,0.1,0.1C36.97,2.33,36.93,2.37,36.87,2.37z"/>
        <path class="st4" d="M27.17,43.99c-0.15,0-0.27,0.12-0.27,0.27c0,0.11,0.07,0.21,0.16,0.25v1.06H25.4v2.74 c-0.1,0.04-0.18,0.13-0.18,0.25c0,0.15,0.12,0.27,0.27,0.27c0.15,0,0.27-0.12,0.27-0.27c0-0.11-0.07-0.21-0.16-0.25v-2.55h1.67 V44.5c0.1-0.04,0.18-0.13,0.18-0.25C27.44,44.11,27.32,43.99,27.17,43.99z M25.6,48.55c0,0.06-0.05,0.1-0.1,0.1 c-0.06,0-0.1-0.05-0.1-0.1s0.05-0.1,0.1-0.1C25.55,48.45,25.6,48.5,25.6,48.55z M27.23,44.34h-0.1 c-0.03-0.02-0.05-0.05-0.05-0.09c0-0.06,0.05-0.1,0.1-0.1c0.06,0,0.1,0.05,0.1,0.1C27.28,44.29,27.26,44.32,27.23,44.34z"/>
        <path class="st4" d="M31.32,48.56c-0.11,0-0.21,0.07-0.25,0.17h-2.59V47l-2.1,0v1.32c-0.09,0.04-0.15,0.13-0.15,0.24 c0,0.15,0.12,0.27,0.27,0.27c0.15,0,0.27-0.12,0.27-0.27c0-0.12-0.08-0.22-0.18-0.25v-1.1l1.7,0v1.73h2.79 c0.04,0.1,0.14,0.16,0.25,0.16c0.15,0,0.27-0.12,0.27-0.27C31.59,48.68,31.47,48.56,31.32,48.56z M26.6,48.56 c0,0.06-0.05,0.1-0.1,0.1c-0.06,0-0.1-0.05-0.1-0.1s0.05-0.1,0.1-0.1C26.55,48.45,26.6,48.5,26.6,48.56z M31.32,48.93 c-0.06,0-0.1-0.05-0.1-0.1c0-0.06,0.05-0.1,0.1-0.1c0.06,0,0.1,0.05,0.1,0.1C31.42,48.88,31.38,48.93,31.32,48.93z"/>
        <path class="st4" d="M42.13,37.45V36.2h-1.67v-2.55c0.1-0.04,0.16-0.14,0.16-0.25c0-0.15-0.12-0.27-0.27-0.27 s-0.27,0.12-0.27,0.27c0,0.12,0.07,0.21,0.18,0.25v2.74h1.67v1.06c-0.1,0.04-0.16,0.14-0.16,0.25c0,0.15,0.12,0.27,0.27,0.27 c0.15,0,0.27-0.12,0.27-0.27C42.31,37.58,42.24,37.48,42.13,37.45z M40.37,33.5c-0.06,0-0.1-0.05-0.1-0.1s0.05-0.1,0.1-0.1 c0.06,0,0.1,0.05,0.1,0.1S40.42,33.5,40.37,33.5z M42.05,37.8c-0.06,0-0.1-0.05-0.1-0.1c0-0.04,0.02-0.07,0.05-0.09h0.1 c0.03,0.02,0.05,0.05,0.05,0.09C42.15,37.75,42.1,37.8,42.05,37.8z"/>
        <path class="st4" d="M46.19,32.86c-0.11,0-0.21,0.07-0.25,0.16h-2.79v1.73l-1.7,0v-1.1c0.11-0.04,0.18-0.13,0.18-0.25 c0-0.15-0.12-0.27-0.27-0.27c-0.15,0-0.27,0.12-0.27,0.27c0,0.11,0.06,0.2,0.15,0.24v1.32l2.1,0v-1.73h2.59 c0.04,0.1,0.13,0.17,0.25,0.17c0.15,0,0.27-0.12,0.27-0.27C46.46,32.98,46.34,32.86,46.19,32.86z M41.36,33.5 c-0.06,0-0.1-0.05-0.1-0.1s0.05-0.1,0.1-0.1c0.06,0,0.1,0.05,0.1,0.1S41.42,33.5,41.36,33.5z M46.19,33.23 c-0.06,0-0.1-0.05-0.1-0.1c0-0.06,0.05-0.1,0.1-0.1c0.06,0,0.1,0.05,0.1,0.1C46.29,33.18,46.25,33.23,46.19,33.23z"/>
        <path class="st4" d="M19.9,47.23c-0.07-0.13-0.23-0.19-0.36-0.12c-0.13,0.07-0.19,0.23-0.12,0.36c0.06,0.11,0.18,0.17,0.29,0.14 L23.56,50h0.56l-4.2-2.61C19.93,47.34,19.92,47.28,19.9,47.23z M19.7,47.44c-0.05,0.03-0.11,0-0.14-0.05 c-0.03-0.05,0-0.11,0.05-0.14c0.05-0.03,0.11,0,0.14,0.05C19.77,47.35,19.75,47.42,19.7,47.44z"/>
        <path class="st4" d="M8.28,46.56c0.15,0,0.27-0.12,0.27-0.27l3.36-2.01c0.05,0.04,0.1,0.06,0.17,0.06c0.09,0,0.17-0.05,0.22-0.12 h4.16c0.05,0.07,0.13,0.12,0.22,0.12c0.15,0,0.27-0.12,0.27-0.27c0-0.15-0.12-0.27-0.27-0.27c-0.09,0-0.17,0.05-0.22,0.12H12.3 c-0.05-0.07-0.13-0.12-0.22-0.12c-0.12,0-0.21,0.07-0.25,0.18l-3.45,2.06c-0.03-0.01-0.07-0.02-0.1-0.02 c-0.09,0-0.17,0.05-0.22,0.12H0v0.3h8.06C8.11,46.52,8.19,46.56,8.28,46.56z M16.69,43.98c0.06,0,0.1,0.05,0.1,0.1 s-0.05,0.1-0.1,0.1c-0.06,0-0.1-0.05-0.1-0.1S16.63,43.98,16.69,43.98z"/>
        <path class="st4" d="M37.21,46.59c-0.04,0-0.07,0.01-0.1,0.02l-3.45-2.06c-0.04-0.1-0.13-0.18-0.25-0.18 c-0.09,0-0.17,0.05-0.22,0.12h-4.16c-0.05-0.07-0.13-0.12-0.22-0.12c-0.15,0-0.27,0.12-0.27,0.27c0,0.15,0.12,0.27,0.27,0.27 c0.09,0,0.17-0.05,0.22-0.12h4.16c0.05,0.07,0.13,0.12,0.22,0.12c0.06,0,0.12-0.02,0.17-0.06l3.36,2.01 c0,0.15,0.12,0.27,0.27,0.27c0.09,0,0.17-0.05,0.22-0.12H50v-0.3H37.43C37.38,46.63,37.3,46.59,37.21,46.59z M28.8,44.74 c-0.06,0-0.1-0.05-0.1-0.1s0.05-0.1,0.1-0.1c0.06,0,0.1,0.05,0.1,0.1S28.86,44.74,28.8,44.74z"/>
        <path class="st4" d="M37.47,47.69c-0.04,0-0.07,0.01-0.1,0.02l-3.45-2.06c-0.04-0.1-0.13-0.18-0.25-0.18 c-0.09,0-0.17,0.05-0.22,0.12h-3.07c-0.05-0.07-0.13-0.12-0.22-0.12c-0.15,0-0.27,0.12-0.27,0.27c0,0.15,0.12,0.27,0.27,0.27 c0.09,0,0.17-0.05,0.22-0.12h3.07c0.05,0.07,0.13,0.12,0.22,0.12c0.06,0,0.12-0.02,0.17-0.06l3.36,2.01 c0,0.15,0.12,0.27,0.27,0.27c0.09,0,0.17-0.05,0.22-0.12H50v-0.3H37.7C37.65,47.74,37.57,47.69,37.47,47.69z M30.16,45.85 c-0.06,0-0.1-0.05-0.1-0.1s0.05-0.1,0.1-0.1c0.06,0,0.1,0.05,0.1,0.1S30.22,45.85,30.16,45.85z"/>
        <path class="st4" d="M37.58,48.92c-0.03,0-0.07,0.01-0.1,0.02l-3.34-2.05c-0.04-0.1-0.13-0.18-0.25-0.18 c-0.09,0-0.17,0.05-0.22,0.12h-2.16c-0.05-0.07-0.13-0.12-0.22-0.12c-0.15,0-0.27,0.12-0.27,0.27c0,0.15,0.12,0.27,0.27,0.27 c0.09,0,0.17-0.05,0.22-0.12h2.16c0.05,0.07,0.13,0.12,0.22,0.12c0.06,0,0.12-0.02,0.17-0.06l3.26,2c0,0,0,0,0,0 c0,0.15,0.12,0.27,0.27,0.27c0.09,0,0.17-0.05,0.22-0.12H50v-0.3H37.8C37.75,48.97,37.67,48.92,37.58,48.92z M31.29,47.07 c-0.06,0-0.1-0.05-0.1-0.1s0.05-0.1,0.1-0.1c0.06,0,0.1,0.05,0.1,0.1S31.35,47.07,31.29,47.07z"/>
        <path class="st4" d="M34.05,47.81c-0.09,0-0.17,0.05-0.22,0.12h-1.07c-0.05-0.07-0.13-0.12-0.22-0.12 c-0.15,0-0.27,0.12-0.27,0.27c0,0.15,0.12,0.27,0.27,0.27c0.09,0,0.17-0.05,0.22-0.12h1.07c0.05,0.07,0.13,0.12,0.22,0.12 c0.06,0,0.12-0.02,0.17-0.06L37.09,50h0.58l-3.37-2.01C34.26,47.89,34.16,47.81,34.05,47.81z M32.54,48.18 c-0.06,0-0.1-0.05-0.1-0.1s0.05-0.1,0.1-0.1s0.1,0.05,0.1,0.1S32.59,48.18,32.54,48.18z"/>
        <path class="st4" d="M47.96,6.45c-0.15,0-0.27,0.12-0.27,0.27c0,0.15,0.12,0.27,0.27,0.27c0.09,0,0.17-0.05,0.22-0.12H50v-0.3 h-1.82C48.13,6.5,48.05,6.45,47.96,6.45z M47.95,6.82c-0.06,0-0.1-0.05-0.1-0.1c0-0.06,0.05-0.1,0.1-0.1s0.1,0.05,0.1,0.1 C48.06,6.77,48.01,6.82,47.95,6.82z"/>
        <path class="st4" d="M43.63,8.4c-0.04,0-0.07,0.01-0.1,0.02l-3.45-2.06c-0.04-0.1-0.13-0.18-0.25-0.18 c-0.09,0-0.17,0.05-0.22,0.12h-4.16c-0.05-0.07-0.13-0.12-0.22-0.12c-0.15,0-0.27,0.12-0.27,0.27c0,0.15,0.12,0.27,0.27,0.27 c0.09,0,0.17-0.05,0.22-0.12h4.16c0.05,0.07,0.13,0.12,0.22,0.12c0.06,0,0.12-0.02,0.17-0.06l3.36,2.01 c0,0.15,0.12,0.27,0.27,0.27c0.09,0,0.17-0.05,0.22-0.12H50v-0.3h-6.15C43.8,8.44,43.72,8.4,43.63,8.4z M35.22,6.55 c-0.06,0-0.1-0.05-0.1-0.1c0-0.06,0.05-0.1,0.1-0.1c0.06,0,0.1,0.05,0.1,0.1C35.33,6.51,35.28,6.55,35.22,6.55z"/>
        <path class="st4" d="M43.89,9.5c-0.04,0-0.07,0.01-0.1,0.02l-3.45-2.06c-0.04-0.1-0.13-0.18-0.25-0.18 c-0.09,0-0.17,0.05-0.22,0.12h-3.07c-0.05-0.07-0.13-0.12-0.22-0.12c-0.15,0-0.27,0.12-0.27,0.27c0,0.15,0.12,0.27,0.27,0.27 c0.09,0,0.17-0.05,0.22-0.12h3.07C39.92,7.78,40,7.82,40.1,7.82c0.06,0,0.12-0.02,0.17-0.06l3.36,2.01 c0,0.15,0.12,0.27,0.27,0.27c0.09,0,0.17-0.05,0.22-0.12H50v-0.3h-5.88C44.07,9.55,43.99,9.5,43.89,9.5z M36.58,7.66 c-0.06,0-0.1-0.05-0.1-0.1c0-0.06,0.05-0.1,0.1-0.1c0.06,0,0.1,0.05,0.1,0.1C36.69,7.61,36.64,7.66,36.58,7.66z"/>
        <path class="st4" d="M44,10.73c-0.03,0-0.07,0.01-0.1,0.02L40.56,8.7c-0.04-0.1-0.13-0.18-0.25-0.18c-0.09,0-0.17,0.05-0.22,0.12 h-2.16c-0.05-0.07-0.13-0.12-0.22-0.12c-0.15,0-0.27,0.12-0.27,0.27c0,0.15,0.12,0.27,0.27,0.27c0.09,0,0.17-0.05,0.22-0.12h2.16 c0.05,0.07,0.13,0.12,0.22,0.12c0.06,0,0.12-0.02,0.17-0.06l3.26,2c0,0,0,0,0,0c0,0.15,0.12,0.27,0.27,0.27 c0.09,0,0.17-0.05,0.22-0.12H50v-0.3h-5.78C44.17,10.78,44.09,10.73,44,10.73z M37.71,8.89c-0.06,0-0.1-0.05-0.1-0.1 c0-0.06,0.05-0.1,0.1-0.1c0.06,0,0.1,0.05,0.1,0.1C37.81,8.84,37.77,8.89,37.71,8.89z"/>
        <path class="st4" d="M44.27,11.84c-0.04,0-0.07,0.01-0.1,0.02L40.72,9.8c-0.04-0.1-0.13-0.18-0.25-0.18 c-0.09,0-0.17,0.05-0.22,0.12h-1.07c-0.05-0.07-0.13-0.12-0.22-0.12c-0.15,0-0.27,0.12-0.27,0.27c0,0.15,0.12,0.27,0.27,0.27 c0.09,0,0.17-0.05,0.22-0.12h1.07c0.05,0.07,0.13,0.12,0.22,0.12c0.06,0,0.12-0.02,0.17-0.06L44,12.1c0,0.15,0.12,0.27,0.27,0.27 c0.09,0,0.17-0.05,0.22-0.12H50v-0.3h-5.51C44.44,11.88,44.36,11.84,44.27,11.84z M38.96,9.99c-0.06,0-0.1-0.05-0.1-0.1 c0-0.06,0.05-0.1,0.1-0.1c0.06,0,0.1,0.05,0.1,0.1C39.06,9.95,39.01,9.99,38.96,9.99z"/>
        <path class="st4" d="M4.46,32.36c0.1-0.04,0.17-0.13,0.17-0.25c0-0.15-0.12-0.27-0.27-0.27c-0.15,0-0.27,0.12-0.27,0.27 c0,0.11,0.07,0.21,0.17,0.25v1.14H0v0.2h4.46V32.36z M4.36,32.22c-0.06,0-0.1-0.05-0.1-0.1c0-0.06,0.05-0.1,0.1-0.1 s0.1,0.05,0.1,0.1C4.47,32.17,4.42,32.22,4.36,32.22z"/>
        <path class="st4" d="M9.15,34.79v-2.74H7.48v-1.06c0.1-0.04,0.16-0.14,0.16-0.25c0-0.15-0.12-0.27-0.27-0.27 c-0.15,0-0.27,0.12-0.27,0.27c0,0.12,0.07,0.21,0.18,0.25v1.25h1.67v2.55c-0.1,0.04-0.16,0.14-0.16,0.25 c0,0.15,0.12,0.27,0.27,0.27c0.15,0,0.27-0.12,0.27-0.27C9.32,34.92,9.25,34.82,9.15,34.79z M7.42,30.82h-0.1 c-0.03-0.02-0.05-0.05-0.05-0.09c0-0.06,0.05-0.1,0.1-0.1c0.06,0,0.1,0.05,0.1,0.1C7.48,30.77,7.45,30.81,7.42,30.82z M9.05,35.14c-0.06,0-0.1-0.05-0.1-0.1s0.05-0.1,0.1-0.1c0.06,0,0.1,0.05,0.1,0.1S9.11,35.14,9.05,35.14z"/>
        <path class="st4" d="M5.91,33.68l1.7,0v1.1c-0.11,0.04-0.18,0.13-0.18,0.25c0,0.15,0.12,0.27,0.27,0.27 c0.15,0,0.27-0.12,0.27-0.27c0-0.11-0.06-0.2-0.15-0.24v-1.32l-2.1,0v1.73H0v0.2h5.91V33.68z M7.7,34.94c0.06,0,0.1,0.05,0.1,0.1 c0,0.06-0.05,0.1-0.1,0.1c-0.06,0-0.1-0.05-0.1-0.1C7.6,34.98,7.64,34.94,7.7,34.94z"/>
        <path class="st4" d="M4.2,43.59c0.15,0,0.27-0.12,0.27-0.27c0-0.15-0.12-0.27-0.27-0.27c-0.09,0-0.17,0.05-0.22,0.12H0v0.3h3.98 C4.02,43.54,4.11,43.59,4.2,43.59z M4.2,43.22c0.06,0,0.1,0.05,0.1,0.1s-0.05,0.1-0.1,0.1c-0.06,0-0.1-0.05-0.1-0.1 S4.14,43.22,4.2,43.22z"/>
        <path class="st4" d="M4.16,40.77c0.04,0,0.07-0.01,0.1-0.02l3.45,2.06c0.04,0.1,0.13,0.18,0.25,0.18c0.09,0,0.17-0.05,0.22-0.12 h13.76c0.05,0.07,0.13,0.12,0.22,0.12c0.15,0,0.27-0.12,0.27-0.27s-0.12-0.27-0.27-0.27c-0.09,0-0.17,0.05-0.22,0.12H8.18 c-0.05-0.07-0.13-0.12-0.22-0.12c-0.06,0-0.12,0.02-0.17,0.06L4.42,40.5c0-0.15-0.12-0.27-0.27-0.27c-0.09,0-0.17,0.05-0.22,0.12 H0v0.3h3.93C3.98,40.72,4.06,40.77,4.16,40.77z M22.16,42.61c0.06,0,0.1,0.05,0.1,0.1s-0.05,0.1-0.1,0.1s-0.1-0.05-0.1-0.1 S22.1,42.61,22.16,42.61z"/>
        <path class="st4" d="M3.89,39.66c0.04,0,0.07-0.01,0.1-0.02l3.45,2.06c0.04,0.1,0.13,0.18,0.25,0.18c0.09,0,0.17-0.05,0.22-0.12 h12.67c0.05,0.07,0.13,0.12,0.22,0.12c0.15,0,0.27-0.12,0.27-0.27c0-0.15-0.12-0.27-0.27-0.27c-0.09,0-0.17,0.05-0.22,0.12H7.91 c-0.05-0.07-0.13-0.12-0.22-0.12c-0.06,0-0.12,0.02-0.17,0.06l-3.36-2.01c0-0.15-0.12-0.27-0.27-0.27 c-0.09,0-0.17,0.05-0.22,0.12H0v0.3h3.67C3.72,39.61,3.8,39.66,3.89,39.66z M20.8,41.51c0.06,0,0.1,0.05,0.1,0.1 s-0.05,0.1-0.1,0.1c-0.06,0-0.1-0.05-0.1-0.1S20.74,41.51,20.8,41.51z"/>
        <path class="st4" d="M3.78,38.44c0.03,0,0.07-0.01,0.1-0.02l3.34,2.05c0.04,0.1,0.13,0.18,0.25,0.18c0.09,0,0.17-0.05,0.22-0.12 h7.41c0.05,0.07,0.13,0.12,0.22,0.12c0.15,0,0.27-0.12,0.27-0.27c0-0.15-0.12-0.27-0.27-0.27c-0.09,0-0.17,0.05-0.22,0.12H7.69 c-0.05-0.07-0.13-0.12-0.22-0.12c-0.06,0-0.12,0.02-0.17,0.06l-3.26-2c0,0,0,0,0,0c0-0.15-0.12-0.27-0.27-0.27 c-0.09,0-0.17,0.05-0.22,0.12H0v0.3h3.56C3.61,38.39,3.69,38.44,3.78,38.44z M15.33,40.28c0.06,0,0.1,0.05,0.1,0.1 s-0.05,0.1-0.1,0.1s-0.1-0.05-0.1-0.1S15.27,40.28,15.33,40.28z"/>
        <path class="st4" d="M3.52,37.33c0.04,0,0.07-0.01,0.1-0.02l3.45,2.06c0.04,0.1,0.13,0.18,0.25,0.18c0.09,0,0.17-0.05,0.22-0.12 H8.6c0.05,0.07,0.13,0.12,0.22,0.12c0.15,0,0.27-0.12,0.27-0.27c0-0.15-0.12-0.27-0.27-0.27c-0.09,0-0.17,0.05-0.22,0.12H7.54 c-0.05-0.07-0.13-0.12-0.22-0.12c-0.06,0-0.12,0.02-0.17,0.06l-3.36-2.01c0-0.15-0.12-0.27-0.27-0.27 c-0.09,0-0.17,0.05-0.22,0.12H0v0.3h3.3C3.34,37.28,3.43,37.33,3.52,37.33z M8.83,39.17c0.06,0,0.1,0.05,0.1,0.1 c0,0.06-0.05,0.1-0.1,0.1c-0.06,0-0.1-0.05-0.1-0.1C8.72,39.22,8.77,39.17,8.83,39.17z"/>
        <path class="st4" d="M30.38,40.73c0.08-0.03,0.14-0.11,0.14-0.2c0-0.12-0.09-0.21-0.21-0.21c-0.12,0-0.21,0.09-0.21,0.21 c0,0.09,0.05,0.16,0.13,0.19v2.38h-0.98v-2.79c0.1-0.04,0.17-0.13,0.17-0.25c0-0.15-0.12-0.27-0.27-0.27 c-0.15,0-0.27,0.12-0.27,0.27c0,0.11,0.07,0.2,0.16,0.24v2.79h-0.98v-2.38c0.08-0.03,0.14-0.11,0.14-0.2 c0-0.12-0.09-0.21-0.21-0.21c-0.12,0-0.21,0.09-0.21,0.21c0,0.09,0.05,0.16,0.13,0.19v2.38h-1.45c-0.05-0.07-0.13-0.12-0.22-0.12 c-0.15,0-0.27,0.12-0.27,0.27l-3.36,2.01c-0.05-0.04-0.1-0.06-0.17-0.06c-0.09,0-0.17,0.05-0.22,0.12h-4.16 c-0.05-0.07-0.13-0.12-0.22-0.12c-0.15,0-0.27,0.12-0.27,0.27c0,0.15,0.12,0.27,0.27,0.27c0.09,0,0.17-0.05,0.22-0.12h4.16 c0.05,0.07,0.13,0.12,0.22,0.12c0.12,0,0.21-0.07,0.25-0.18l3.45-2.06c0.03,0.01,0.07,0.02,0.1,0.02c0.09,0,0.17-0.05,0.22-0.12 H50v-0.3H30.38V40.73z M17.83,45.57c-0.06,0-0.1-0.05-0.1-0.1s0.05-0.1,0.1-0.1c0.06,0,0.1,0.05,0.1,0.1S17.89,45.57,17.83,45.57 z M27.91,40.53c0-0.05,0.04-0.08,0.08-0.08c0.05,0,0.08,0.04,0.08,0.08c0,0.05-0.04,0.08-0.08,0.08 C27.94,40.62,27.91,40.58,27.91,40.53z M29.15,40.17c-0.06,0-0.1-0.05-0.1-0.1c0-0.06,0.05-0.1,0.1-0.1c0.06,0,0.1,0.05,0.1,0.1 C29.25,40.12,29.21,40.17,29.15,40.17z M30.22,40.53c0-0.05,0.04-0.08,0.08-0.08c0.05,0,0.08,0.04,0.08,0.08 c0,0.05-0.04,0.08-0.08,0.08C30.26,40.62,30.22,40.58,30.22,40.53z"/>
        <path class="st4" d="M11.74,48.55c0.09,0,0.17-0.05,0.22-0.12h5.92c0.05,0.07,0.13,0.12,0.22,0.12c0.15,0,0.27-0.12,0.27-0.27 c0-0.15-0.12-0.27-0.27-0.27c-0.09,0-0.17,0.05-0.22,0.12h-2v-0.98c0.08-0.03,0.13-0.11,0.13-0.2c0-0.12-0.09-0.21-0.21-0.21 s-0.21,0.09-0.21,0.21c0,0.09,0.05,0.16,0.13,0.19v0.99h-0.98v-1.4c0.1-0.04,0.17-0.13,0.17-0.25c0-0.15-0.12-0.27-0.27-0.27 c-0.15,0-0.27,0.12-0.27,0.27c0,0.11,0.07,0.2,0.16,0.24v1.4h-0.98v-0.98c0.08-0.03,0.14-0.11,0.14-0.2 c0-0.12-0.09-0.21-0.21-0.21c-0.12,0-0.21,0.09-0.21,0.21c0,0.09,0.05,0.16,0.13,0.19v0.99h-1.45c-0.05-0.07-0.13-0.12-0.22-0.12 c-0.15,0-0.27,0.12-0.27,0.27L8.59,50h0.58l2.46-1.47C11.67,48.54,11.7,48.55,11.74,48.55z M18,48.28c0-0.05,0.05-0.1,0.1-0.1 c0.06,0,0.1,0.05,0.1,0.1c0,0.06-0.05,0.1-0.1,0.1c-0.06,0-0.1-0.04-0.1-0.1V48.28z M15.81,46.88c0.05,0,0.08,0.04,0.08,0.08 c0,0.05-0.04,0.08-0.08,0.08c-0.05,0-0.08-0.04-0.08-0.08C15.72,46.91,15.76,46.88,15.81,46.88z M14.65,46.39 c0.06,0,0.1,0.05,0.1,0.1c0,0.06-0.05,0.1-0.1,0.1c-0.06,0-0.1-0.05-0.1-0.1C14.55,46.43,14.59,46.39,14.65,46.39z M13.49,46.88 c0.05,0,0.08,0.04,0.08,0.08c0,0.05-0.04,0.08-0.08,0.08c-0.05,0-0.08-0.04-0.08-0.08C13.41,46.91,13.44,46.88,13.49,46.88z"/>
        <path class="st4" d="M40.36,39.68c-0.15,0-0.27,0.12-0.27,0.27l-3.36,2.01c-0.05-0.04-0.1-0.06-0.17-0.06 c-0.09,0-0.17,0.05-0.22,0.12h-4.16c-0.05-0.07-0.13-0.12-0.22-0.12c-0.15,0-0.27,0.12-0.27,0.27c0,0.15,0.12,0.27,0.27,0.27 c0.09,0,0.17-0.05,0.22-0.12h4.16c0.05,0.07,0.13,0.12,0.22,0.12c0.12,0,0.21-0.07,0.25-0.18l3.45-2.06 c0.03,0.01,0.07,0.02,0.1,0.02c0.09,0,0.17-0.05,0.22-0.12H50v-0.3h-9.42C40.54,39.72,40.46,39.68,40.36,39.68z M31.96,42.26 c-0.06,0-0.1-0.05-0.1-0.1s0.05-0.1,0.1-0.1c0.06,0,0.1,0.05,0.1,0.1S32.02,42.26,31.96,42.26z"/>
        <path class="st4" d="M40.63,38.57c-0.15,0-0.27,0.12-0.27,0.27L37,40.84c-0.05-0.04-0.1-0.06-0.17-0.06 c-0.09,0-0.17,0.05-0.22,0.12h-3.07c-0.05-0.07-0.13-0.12-0.22-0.12c-0.15,0-0.27,0.12-0.27,0.27c0,0.15,0.12,0.27,0.27,0.27 c0.09,0,0.17-0.05,0.22-0.12h3.07c0.05,0.07,0.13,0.12,0.22,0.12c0.12,0,0.21-0.07,0.25-0.18l3.45-2.06 c0.03,0.01,0.07,0.02,0.1,0.02c0.09,0,0.17-0.05,0.22-0.12H50v-0.3h-9.15C40.8,38.62,40.72,38.57,40.63,38.57z M33.32,41.15 c-0.06,0-0.1-0.05-0.1-0.1c0-0.06,0.05-0.1,0.1-0.1c0.06,0,0.1,0.05,0.1,0.1C33.42,41.11,33.38,41.15,33.32,41.15z"/>
        <path class="st4" d="M48.59,24.04c-0.15,0-0.27,0.12-0.27,0.27v0l-3.36,2.01c-0.05-0.04-0.1-0.06-0.17-0.06 c-0.09,0-0.17,0.05-0.22,0.12h-4.16c-0.05-0.07-0.13-0.12-0.22-0.12c-0.15,0-0.27,0.12-0.27,0.27c0,0.15,0.12,0.27,0.27,0.27 c0.09,0,0.17-0.05,0.22-0.12h4.16c0.05,0.07,0.13,0.12,0.22,0.12c0.12,0,0.21-0.07,0.25-0.18l3.45-2.06 c0.03,0.01,0.07,0.02,0.1,0.02c0.09,0,0.17-0.05,0.22-0.12H50v-0.3h-1.19C48.76,24.09,48.68,24.04,48.59,24.04z M40.18,26.63 c-0.06,0-0.1-0.05-0.1-0.1c0-0.06,0.05-0.1,0.1-0.1s0.1,0.05,0.1,0.1C40.29,26.58,40.24,26.63,40.18,26.63z"/>
        <path class="st4" d="M48.85,22.94c-0.15,0-0.27,0.12-0.27,0.27l-3.36,2.01c-0.05-0.04-0.1-0.06-0.17-0.06 c-0.09,0-0.17,0.05-0.22,0.12h-3.07c-0.05-0.07-0.13-0.12-0.22-0.12c-0.15,0-0.27,0.12-0.27,0.27c0,0.15,0.12,0.27,0.27,0.27 c0.09,0,0.17-0.05,0.22-0.12h3.07c0.05,0.07,0.13,0.12,0.22,0.12c0.12,0,0.21-0.07,0.25-0.18l3.45-2.06 c0.03,0.01,0.07,0.02,0.1,0.02c0.09,0,0.17-0.05,0.22-0.12H50v-0.3h-0.93C49.03,22.98,48.94,22.94,48.85,22.94z M41.54,25.52 c-0.06,0-0.1-0.05-0.1-0.1s0.05-0.1,0.1-0.1s0.1,0.05,0.1,0.1S41.6,25.52,41.54,25.52z"/>
        <path class="st4" d="M34.42,4.53c-0.15,0-0.27,0.12-0.27,0.27l-3.36,2.01c-0.05-0.04-0.1-0.06-0.17-0.06 c-0.09,0-0.17,0.05-0.22,0.12h-4.16c-0.05-0.07-0.13-0.12-0.22-0.12c-0.15,0-0.27,0.12-0.27,0.27c0,0.15,0.12,0.27,0.27,0.27 c0.09,0,0.17-0.05,0.22-0.12h4.16c0.05,0.07,0.13,0.12,0.22,0.12c0.12,0,0.21-0.07,0.25-0.18l3.45-2.06 c0.03,0.01,0.07,0.02,0.1,0.02c0.09,0,0.17-0.05,0.22-0.12H50v-0.3H34.65C34.6,4.58,34.52,4.53,34.42,4.53z M26.02,7.12 c-0.06,0-0.1-0.05-0.1-0.1c0-0.06,0.05-0.1,0.1-0.1c0.06,0,0.1,0.05,0.1,0.1C26.12,7.07,26.08,7.12,26.02,7.12z"/>
        <path class="st4" d="M34.69,3.43c-0.15,0-0.27,0.12-0.27,0.27L31.06,5.7c-0.05-0.04-0.1-0.06-0.17-0.06 c-0.09,0-0.17,0.05-0.22,0.12H27.6c-0.05-0.07-0.13-0.12-0.22-0.12c-0.15,0-0.27,0.12-0.27,0.27c0,0.15,0.12,0.27,0.27,0.27 c0.09,0,0.17-0.05,0.22-0.12h3.07c0.05,0.07,0.13,0.12,0.22,0.12c0.12,0,0.21-0.07,0.25-0.18l3.45-2.06 c0.03,0.01,0.07,0.02,0.1,0.02c0.09,0,0.17-0.05,0.22-0.12H50v-0.3H34.91C34.86,3.47,34.78,3.43,34.69,3.43z M27.38,6.01 c-0.06,0-0.1-0.05-0.1-0.1c0-0.06,0.05-0.1,0.1-0.1c0.06,0,0.1,0.05,0.1,0.1C27.48,5.97,27.44,6.01,27.38,6.01z"/>
        <path class="st4" d="M48.34,36.58c-0.09,0-0.17,0.05-0.22,0.12h-4.16c-0.05-0.07-0.13-0.12-0.22-0.12 c-0.15,0-0.27,0.12-0.27,0.27c0,0.15,0.12,0.27,0.27,0.27c0.09,0,0.17-0.05,0.22-0.12h4.16c0.05,0.07,0.13,0.12,0.22,0.12 c0.12,0,0.21-0.07,0.25-0.18L50,36.09v-0.35l-1.49,0.89C48.46,36.6,48.41,36.58,48.34,36.58z M43.74,36.95 c-0.06,0-0.1-0.05-0.1-0.1c0-0.06,0.05-0.1,0.1-0.1c0.06,0,0.1,0.05,0.1,0.1C43.84,36.9,43.79,36.95,43.74,36.95z"/>
        <path class="st4" d="M48.61,35.47c-0.09,0-0.17,0.05-0.22,0.12h-3.07c-0.05-0.07-0.13-0.12-0.22-0.12 c-0.15,0-0.27,0.12-0.27,0.27c0,0.15,0.12,0.27,0.27,0.27c0.09,0,0.17-0.05,0.22-0.12h3.07c0.05,0.07,0.13,0.12,0.22,0.12 c0.12,0,0.21-0.07,0.25-0.18L50,35.15V34.8l-1.22,0.73C48.73,35.49,48.67,35.47,48.61,35.47z M45.1,35.84 c-0.06,0-0.1-0.05-0.1-0.1s0.05-0.1,0.1-0.1s0.1,0.05,0.1,0.1S45.15,35.84,45.1,35.84z"/>
        <path class="st4" d="M48.59,29.98c-0.04,0-0.07,0.01-0.1,0.02l-3.45-2.06c-0.04-0.1-0.13-0.18-0.25-0.18 c-0.09,0-0.17,0.05-0.22,0.12h-4.16c-0.05-0.07-0.13-0.12-0.22-0.12c-0.15,0-0.27,0.12-0.27,0.27c0,0.15,0.12,0.27,0.27,0.27 c0.09,0,0.17-0.05,0.22-0.12h4.16c0.05,0.07,0.13,0.12,0.22,0.12c0.06,0,0.12-0.02,0.17-0.06l3.36,2.01 c0,0.15,0.12,0.27,0.27,0.27c0.09,0,0.17-0.05,0.22-0.12H50v-0.3h-1.19C48.76,30.03,48.68,29.98,48.59,29.98z M40.18,28.14 c-0.06,0-0.1-0.05-0.1-0.1s0.05-0.1,0.1-0.1s0.1,0.05,0.1,0.1S40.24,28.14,40.18,28.14z"/>
        <path class="st4" d="M48.85,31.09c-0.04,0-0.07,0.01-0.1,0.02l-3.45-2.06c-0.04-0.1-0.13-0.18-0.25-0.18 c-0.09,0-0.17,0.05-0.22,0.12h-3.07c-0.05-0.07-0.13-0.12-0.22-0.12c-0.15,0-0.27,0.12-0.27,0.27c0,0.15,0.12,0.27,0.27,0.27 c0.09,0,0.17-0.05,0.22-0.12h3.07c0.05,0.07,0.13,0.12,0.22,0.12c0.06,0,0.12-0.02,0.17-0.06l3.36,2.01 c0,0.15,0.12,0.27,0.27,0.27c0.09,0,0.17-0.05,0.22-0.12H50v-0.3h-0.93C49.03,31.14,48.94,31.09,48.85,31.09z M41.54,29.24 c-0.06,0-0.1-0.05-0.1-0.1c0-0.06,0.05-0.1,0.1-0.1s0.1,0.05,0.1,0.1C41.65,29.2,41.6,29.24,41.54,29.24z"/>
        <path class="st4" d="M7.52,5.3c0.15,0,0.27-0.12,0.27-0.27c0-0.15-0.12-0.27-0.27-0.27c-0.09,0-0.17,0.05-0.22,0.12H0v0.3h7.3 C7.35,5.26,7.43,5.3,7.52,5.3z M7.53,4.93c0.06,0,0.1,0.05,0.1,0.1c0,0.06-0.05,0.1-0.1,0.1c-0.06,0-0.1-0.05-0.1-0.1 C7.42,4.98,7.47,4.93,7.53,4.93z"/>
        <path class="st4" d="M7.83,27.43l1.7,0v1.1c-0.11,0.04-0.18,0.13-0.18,0.25c0,0.15,0.12,0.27,0.27,0.27 c0.15,0,0.27-0.12,0.27-0.27c0-0.11-0.06-0.2-0.15-0.24v-1.32l-2.1,0v1.73H0v0.2h7.83V27.43z M9.62,28.68 c0.06,0,0.1,0.05,0.1,0.1c0,0.06-0.05,0.1-0.1,0.1c-0.06,0-0.1-0.05-0.1-0.1C9.51,28.73,9.56,28.68,9.62,28.68z"/>
        <path class="st4" d="M23.57,0.79c-0.15,0-0.27,0.12-0.27,0.27c0,0.11,0.07,0.21,0.16,0.25v2.55H21.8V5.1 c-0.1,0.04-0.18,0.13-0.18,0.25c0,0.15,0.12,0.27,0.27,0.27c0.15,0,0.27-0.12,0.27-0.27c0-0.11-0.07-0.21-0.16-0.25V4.05h1.67 V1.3c0.1-0.04,0.18-0.13,0.18-0.25C23.83,0.9,23.72,0.79,23.57,0.79z M21.89,5.46c-0.06,0-0.1-0.05-0.1-0.1 c0-0.04,0.02-0.07,0.05-0.09h0.1c0.03,0.02,0.05,0.05,0.05,0.09C21.99,5.41,21.94,5.46,21.89,5.46z M23.57,1.16 c-0.06,0-0.1-0.05-0.1-0.1c0-0.06,0.05-0.1,0.1-0.1c0.06,0,0.1,0.05,0.1,0.1C23.67,1.11,23.62,1.16,23.57,1.16z"/>
        <path class="st4" d="M22.56,0.78c-0.15,0-0.27,0.12-0.27,0.27c0,0.12,0.08,0.22,0.18,0.25v1.1l-1.7,0V0.68h-2.79 c-0.04-0.1-0.14-0.16-0.25-0.16c-0.15,0-0.27,0.12-0.27,0.27c0,0.15,0.12,0.27,0.27,0.27c0.11,0,0.21-0.07,0.25-0.17h2.59v1.73 l2.1,0V1.29c0.09-0.04,0.15-0.13,0.15-0.24C22.83,0.9,22.71,0.78,22.56,0.78z M17.74,0.89c-0.06,0-0.1-0.05-0.1-0.1 c0-0.06,0.05-0.1,0.1-0.1c0.06,0,0.1,0.05,0.1,0.1C17.85,0.84,17.8,0.89,17.74,0.89z M22.57,1.15c-0.06,0-0.1-0.05-0.1-0.1 c0-0.06,0.05-0.1,0.1-0.1c0.06,0,0.1,0.05,0.1,0.1C22.67,1.11,22.62,1.15,22.57,1.15z"/>
        <path class="st4" d="M9.32,17.01v-2.74H7.65V13.2c0.1-0.04,0.16-0.14,0.16-0.25c0-0.15-0.12-0.27-0.27-0.27 c-0.15,0-0.27,0.12-0.27,0.27c0,0.12,0.07,0.21,0.18,0.25v1.25h1.67v2.55c-0.1,0.04-0.16,0.14-0.16,0.25 c0,0.15,0.12,0.27,0.27,0.27c0.15,0,0.27-0.12,0.27-0.27C9.49,17.14,9.42,17.05,9.32,17.01z M7.59,13.05h-0.1 C7.46,13.03,7.44,13,7.44,12.96c0-0.06,0.05-0.1,0.1-0.1c0.06,0,0.1,0.05,0.1,0.1C7.65,13,7.62,13.03,7.59,13.05z M9.22,17.36 c-0.06,0-0.1-0.05-0.1-0.1c0-0.06,0.05-0.1,0.1-0.1c0.06,0,0.1,0.05,0.1,0.1C9.33,17.32,9.28,17.36,9.22,17.36z"/>
        <path class="st4" d="M8.34,17.02v-1.32l-2.1,0v1.73H3.64c-0.04-0.1-0.13-0.17-0.25-0.17c-0.15,0-0.27,0.12-0.27,0.27 c0,0.15,0.12,0.27,0.27,0.27c0.11,0,0.21-0.07,0.25-0.16h2.79V15.9l1.7,0v1.1c-0.11,0.04-0.18,0.13-0.18,0.25 c0,0.15,0.12,0.27,0.27,0.27c0.15,0,0.27-0.12,0.27-0.27C8.49,17.16,8.43,17.07,8.34,17.02z M3.4,17.63c-0.06,0-0.1-0.05-0.1-0.1 c0-0.06,0.05-0.1,0.1-0.1c0.06,0,0.1,0.05,0.1,0.1C3.5,17.59,3.46,17.63,3.4,17.63z M8.22,17.37c-0.06,0-0.1-0.05-0.1-0.1 c0-0.06,0.05-0.1,0.1-0.1c0.06,0,0.1,0.05,0.1,0.1C8.33,17.32,8.28,17.37,8.22,17.37z"/>
        <path class="st4" d="M11.85,3.35c0.04,0,0.07-0.01,0.1-0.02l3.45,2.06c0.04,0.1,0.13,0.18,0.25,0.18c0.09,0,0.17-0.05,0.22-0.12 h4.16c0.05,0.07,0.13,0.12,0.22,0.12c0.15,0,0.27-0.12,0.27-0.27c0-0.15-0.12-0.27-0.27-0.27c-0.09,0-0.17,0.05-0.22,0.12h-4.16 c-0.05-0.07-0.13-0.12-0.22-0.12c-0.06,0-0.12,0.02-0.17,0.06l-3.36-2.01v0c0-0.15-0.12-0.27-0.27-0.27 c-0.09,0-0.17,0.05-0.22,0.12H0v0.3h11.63C11.68,3.31,11.76,3.35,11.85,3.35z M20.26,5.2c0.06,0,0.1,0.05,0.1,0.1 c0,0.06-0.05,0.1-0.1,0.1c-0.06,0-0.1-0.05-0.1-0.1C20.15,5.25,20.2,5.2,20.26,5.2z"/>
        <path class="st4" d="M11.59,2.25c0.04,0,0.07-0.01,0.1-0.02l3.45,2.06c0.04,0.1,0.13,0.18,0.25,0.18c0.09,0,0.17-0.05,0.22-0.12 h3.07c0.05,0.07,0.13,0.12,0.22,0.12c0.15,0,0.27-0.12,0.27-0.27c0-0.15-0.12-0.27-0.27-0.27c-0.09,0-0.17,0.05-0.22,0.12h-3.07 c-0.05-0.07-0.13-0.12-0.22-0.12c-0.06,0-0.12,0.02-0.17,0.06l-3.36-2.01c0-0.15-0.12-0.27-0.27-0.27 c-0.09,0-0.17,0.05-0.22,0.12H0v0.3h11.36C11.41,2.2,11.49,2.25,11.59,2.25z M18.9,4.09c0.06,0,0.1,0.05,0.1,0.1 c0,0.06-0.05,0.1-0.1,0.1c-0.06,0-0.1-0.05-0.1-0.1C18.79,4.14,18.84,4.09,18.9,4.09z"/>
        <path class="st4" d="M11.48,1.02c0.03,0,0.07-0.01,0.1-0.02l3.34,2.05c0.04,0.1,0.13,0.18,0.25,0.18c0.09,0,0.17-0.05,0.22-0.12 h2.16c0.05,0.07,0.13,0.12,0.22,0.12c0.15,0,0.27-0.12,0.27-0.27c0-0.15-0.12-0.27-0.27-0.27c-0.09,0-0.17,0.05-0.22,0.12h-2.16 c-0.05-0.07-0.13-0.12-0.22-0.12c-0.06,0-0.12,0.02-0.17,0.06l-3.26-2c0,0,0,0,0,0c0-0.15-0.12-0.27-0.27-0.27 c-0.09,0-0.17,0.05-0.22,0.12H0v0.3h11.26C11.31,0.97,11.39,1.02,11.48,1.02z M17.77,2.87c0.06,0,0.1,0.05,0.1,0.1 c0,0.06-0.05,0.1-0.1,0.1c-0.06,0-0.1-0.05-0.1-0.1C17.67,2.91,17.72,2.87,17.77,2.87z"/>
        <path class="st4" d="M15.01,2.13c0.09,0,0.17-0.05,0.22-0.12h1.07c0.05,0.07,0.13,0.12,0.22,0.12c0.15,0,0.27-0.12,0.27-0.27 c0-0.15-0.12-0.27-0.27-0.27c-0.09,0-0.17,0.05-0.22,0.12h-1.07C15.19,1.64,15.1,1.6,15.01,1.6c-0.06,0-0.12,0.02-0.17,0.06 L12.07,0h-0.58l3.27,1.95C14.8,2.05,14.9,2.13,15.01,2.13z M16.52,1.76c0.06,0,0.1,0.05,0.1,0.1c0,0.06-0.05,0.1-0.1,0.1 s-0.1-0.05-0.1-0.1C16.42,1.8,16.47,1.76,16.52,1.76z"/>
        <path class="st4" d="M18.68,8.88c-0.08,0.03-0.14,0.11-0.14,0.2c0,0.12,0.09,0.21,0.21,0.21c0.12,0,0.21-0.09,0.21-0.21 c0-0.09-0.05-0.16-0.13-0.19V6.5h0.98V9.3c-0.1,0.04-0.17,0.13-0.17,0.25c0,0.15,0.12,0.27,0.27,0.27c0.15,0,0.27-0.12,0.27-0.27 c0-0.11-0.07-0.2-0.16-0.24V6.5H21v2.38c-0.08,0.03-0.14,0.11-0.14,0.2c0,0.12,0.09,0.21,0.21,0.21c0.12,0,0.21-0.09,0.21-0.21 c0-0.09-0.05-0.16-0.13-0.19V6.5h1.45c0.05,0.07,0.13,0.12,0.22,0.12c0.15,0,0.27-0.12,0.27-0.27l3.36-2.01 c0.05,0.04,0.1,0.06,0.17,0.06c0.09,0,0.17-0.05,0.22-0.12H31c0.05,0.07,0.13,0.12,0.22,0.12c0.15,0,0.27-0.12,0.27-0.27 c0-0.15-0.12-0.27-0.27-0.27c-0.09,0-0.17,0.05-0.22,0.12h-4.16c-0.05-0.07-0.13-0.12-0.22-0.12c-0.12,0-0.21,0.07-0.25,0.18 l-3.45,2.06c-0.03-0.01-0.07-0.02-0.1-0.02c-0.09,0-0.17,0.05-0.22,0.12H0v0.3h18.68V8.88z M31.23,4.04c0.06,0,0.1,0.05,0.1,0.1 c0,0.06-0.05,0.1-0.1,0.1c-0.06,0-0.1-0.05-0.1-0.1C31.13,4.08,31.17,4.04,31.23,4.04z M21.15,9.07c0,0.05-0.04,0.08-0.08,0.08 c-0.05,0-0.08-0.04-0.08-0.08c0-0.05,0.04-0.08,0.08-0.08C21.12,8.99,21.15,9.03,21.15,9.07z M19.91,9.44 c0.06,0,0.1,0.05,0.1,0.1c0,0.06-0.05,0.1-0.1,0.1s-0.1-0.05-0.1-0.1C19.81,9.48,19.85,9.44,19.91,9.44z M18.84,9.07 c0,0.05-0.04,0.08-0.08,0.08c-0.05,0-0.08-0.04-0.08-0.08c0-0.05,0.04-0.08,0.08-0.08C18.8,8.99,18.84,9.03,18.84,9.07z"/>
        <path class="st4" d="M8.7,9.93c0.15,0,0.27-0.12,0.27-0.27l3.36-2.01c0.05,0.04,0.1,0.06,0.17,0.06c0.09,0,0.17-0.05,0.22-0.12 h4.16c0.05,0.07,0.13,0.12,0.22,0.12c0.15,0,0.27-0.12,0.27-0.27c0-0.15-0.12-0.27-0.27-0.27c-0.09,0-0.17,0.05-0.22,0.12h-4.16 c-0.05-0.07-0.13-0.12-0.22-0.12c-0.12,0-0.21,0.07-0.25,0.18L8.8,9.42C8.77,9.41,8.73,9.4,8.7,9.4c-0.09,0-0.17,0.05-0.22,0.12 H0v0.3h8.48C8.52,9.88,8.61,9.93,8.7,9.93z M17.1,7.35c0.06,0,0.1,0.05,0.1,0.1c0,0.06-0.05,0.1-0.1,0.1S17,7.51,17,7.45 C17,7.39,17.04,7.35,17.1,7.35z"/>
        <path class="st4" d="M8.43,11.04c0.15,0,0.27-0.12,0.27-0.27l3.36-2.01c0.05,0.04,0.1,0.06,0.17,0.06c0.09,0,0.17-0.05,0.22-0.12 h3.07c0.05,0.07,0.13,0.12,0.22,0.12C15.89,8.82,16,8.7,16,8.56c0-0.15-0.12-0.27-0.27-0.27c-0.09,0-0.17,0.05-0.22,0.12h-3.07 c-0.05-0.07-0.13-0.12-0.22-0.12c-0.12,0-0.21,0.07-0.25,0.18l-3.45,2.06c-0.03-0.01-0.07-0.02-0.1-0.02 c-0.09,0-0.17,0.05-0.22,0.12H0v0.3h8.21C8.26,10.99,8.34,11.04,8.43,11.04z M15.74,8.45c0.06,0,0.1,0.05,0.1,0.1 c0,0.06-0.05,0.1-0.1,0.1c-0.06,0-0.1-0.05-0.1-0.1C15.64,8.5,15.68,8.45,15.74,8.45z"/>
        <path class="st4" d="M0.48,26.12c0.15,0,0.27-0.12,0.27-0.27l3.36-2.01c0.05,0.04,0.1,0.06,0.17,0.06c0.09,0,0.17-0.05,0.22-0.12 h4.16c0.05,0.07,0.13,0.12,0.22,0.12c0.15,0,0.27-0.12,0.27-0.27c0-0.15-0.12-0.27-0.27-0.27c-0.09,0-0.17,0.05-0.22,0.12H4.49 c-0.05-0.07-0.13-0.12-0.22-0.12c-0.12,0-0.21,0.07-0.25,0.18l-3.45,2.06c-0.03-0.01-0.07-0.02-0.1-0.02 c-0.09,0-0.17,0.05-0.22,0.12H0V26h0.25C0.3,26.07,0.38,26.12,0.48,26.12z M8.88,23.53c0.06,0,0.1,0.05,0.1,0.1 s-0.05,0.1-0.1,0.1c-0.06,0-0.1-0.05-0.1-0.1S8.82,23.53,8.88,23.53z"/>
        <path class="st4" d="M0.48,26.96l3.36-2.01c0.05,0.04,0.1,0.06,0.17,0.06c0.09,0,0.17-0.05,0.22-0.12h3.07 c0.05,0.07,0.13,0.12,0.22,0.12c0.15,0,0.27-0.12,0.27-0.27c0-0.15-0.12-0.27-0.27-0.27c-0.09,0-0.17,0.05-0.22,0.12H4.23 c-0.05-0.07-0.13-0.12-0.22-0.12c-0.12,0-0.21,0.07-0.25,0.18l-3.45,2.06c-0.03-0.01-0.07-0.02-0.1-0.02 c-0.09,0-0.16,0.04-0.21,0.1v0.02v0.3v0.02c0.05,0.06,0.12,0.1,0.21,0.1C0.36,27.23,0.48,27.11,0.48,26.96z M7.52,24.64 c0.06,0,0.1,0.05,0.1,0.1c0,0.06-0.05,0.1-0.1,0.1c-0.06,0-0.1-0.05-0.1-0.1C7.42,24.69,7.46,24.64,7.52,24.64z"/>
        <path class="st4" d="M0.72,13.03c0.09,0,0.17-0.05,0.22-0.12H5.1c0.05,0.07,0.13,0.12,0.22,0.12c0.15,0,0.27-0.12,0.27-0.27 c0-0.15-0.12-0.27-0.27-0.27c-0.09,0-0.17,0.05-0.22,0.12H0.94c-0.05-0.07-0.13-0.12-0.22-0.12c-0.12,0-0.21,0.07-0.25,0.18 L0,12.95v0.35l0.55-0.33C0.6,13.01,0.65,13.03,0.72,13.03z M5.32,12.66c0.06,0,0.1,0.05,0.1,0.1s-0.05,0.1-0.1,0.1 c-0.06,0-0.1-0.05-0.1-0.1S5.27,12.66,5.32,12.66z"/>
        <path class="st4" d="M0.45,14.14c0.09,0,0.17-0.05,0.22-0.12h3.07c0.05,0.07,0.13,0.12,0.22,0.12c0.15,0,0.27-0.12,0.27-0.27 c0-0.15-0.12-0.27-0.27-0.27c-0.09,0-0.17,0.05-0.22,0.12H0.67c-0.05-0.07-0.13-0.12-0.22-0.12c-0.12,0-0.21,0.07-0.25,0.18 L0,13.9v0.35l0.28-0.17C0.33,14.11,0.39,14.14,0.45,14.14z M3.96,13.77c0.06,0,0.1,0.05,0.1,0.1c0,0.06-0.05,0.1-0.1,0.1 c-0.06,0-0.1-0.05-0.1-0.1C3.86,13.81,3.91,13.77,3.96,13.77z"/>
        <path class="st4" d="M0.48,20.18c0.04,0,0.07-0.01,0.1-0.02l3.45,2.06c0.04,0.1,0.13,0.18,0.25,0.18c0.09,0,0.17-0.05,0.22-0.12 h4.16c0.05,0.07,0.13,0.12,0.22,0.12c0.15,0,0.27-0.12,0.27-0.27c0-0.15-0.12-0.27-0.27-0.27c-0.09,0-0.17,0.05-0.22,0.12H4.49 c-0.05-0.07-0.13-0.12-0.22-0.12c-0.06,0-0.12,0.02-0.17,0.06l-3.36-2.01c0-0.15-0.12-0.27-0.27-0.27 c-0.09,0-0.17,0.05-0.22,0.12H0v0.3h0.25C0.3,20.13,0.38,20.18,0.48,20.18z M8.88,22.03c0.06,0,0.1,0.05,0.1,0.1 c0,0.06-0.05,0.1-0.1,0.1c-0.06,0-0.1-0.05-0.1-0.1C8.78,22.07,8.82,22.03,8.88,22.03z"/>
        <path class="st4" d="M0.31,19.05l3.45,2.06c0.04,0.1,0.13,0.18,0.25,0.18c0.09,0,0.17-0.05,0.22-0.12h3.07 c0.05,0.07,0.13,0.12,0.22,0.12c0.15,0,0.27-0.12,0.27-0.27c0-0.15-0.12-0.27-0.27-0.27c-0.09,0-0.17,0.05-0.22,0.12H4.23 c-0.05-0.07-0.13-0.12-0.22-0.12c-0.06,0-0.12,0.02-0.17,0.06l-3.36-2.01c0-0.15-0.12-0.27-0.27-0.27c-0.09,0-0.16,0.04-0.21,0.1 v0.02v0.3v0.02c0.05,0.06,0.12,0.1,0.21,0.1C0.24,19.07,0.28,19.07,0.31,19.05z M7.52,20.92c0.06,0,0.1,0.05,0.1,0.1 c0,0.06-0.05,0.1-0.1,0.1c-0.06,0-0.1-0.05-0.1-0.1C7.42,20.97,7.46,20.92,7.52,20.92z"/>
      </g>
    </g>
    <polygon class="st6" points="50,27.04 36.07,13.92 13.95,36.03 27.92,50 50,50 &#9;"/>
    <g>
      <g>
        <g>
          <g>
            <polygon class="st7" points="37.21,15.54 34.61,15.54 34.61,16.71 37.21,16.71 37.21,16.37 37.87,16.37 37.87,15.83 &#10;&#9;&#9;&#9;&#9;&#9;&#9;37.21,15.83 &#9;&#9;&#9;&#9;&#9;"/>
            <polygon class="st7" points="37.21,18.07 34.61,18.07 34.61,19.24 37.21,19.24 37.21,18.9 37.87,18.9 37.87,18.36 37.21,18.36 &#10;&#9;&#9;&#9;&#9;&#9;&#9;&#9;&#9;&#9;&#9;&#9;"/>
            <polygon class="st7" points="37.21,20.6 34.61,20.6 34.61,21.77 37.21,21.77 37.21,21.42 37.87,21.42 37.87,20.89 37.21,20.89 &#10;&#9;&#9;&#9;&#9;&#9;&#9;&#9;&#9;&#9;&#9;&#9;"/>
            <polygon class="st7" points="37.21,23.13 34.61,23.13 34.61,24.29 37.21,24.29 37.21,23.95 37.87,23.95 37.87,23.42 &#10;&#9;&#9;&#9;&#9;&#9;&#9;37.21,23.42 &#9;&#9;&#9;&#9;&#9;"/>
            <polygon class="st7" points="37.21,25.66 34.61,25.66 34.61,26.82 37.21,26.82 37.21,26.48 37.87,26.48 37.87,25.95 &#10;&#9;&#9;&#9;&#9;&#9;&#9;37.21,25.95 &#9;&#9;&#9;&#9;&#9;"/>
            <polygon class="st7" points="37.21,28.18 34.61,28.18 34.61,29.35 37.21,29.35 37.21,29.01 37.87,29.01 37.87,28.48 &#10;&#9;&#9;&#9;&#9;&#9;&#9;37.21,28.48 &#9;&#9;&#9;&#9;&#9;"/>
            <polygon class="st7" points="37.21,30.71 34.61,30.71 34.61,31.88 37.21,31.88 37.21,31.54 37.87,31.54 37.87,31 37.21,31 &#10;&#9;&#9;&#9;&#9;&#9;&#9;&#9;&#9;&#9;&#9;&#9;"/>
            <polygon class="st7" points="37.21,33.24 34.61,33.24 34.61,34.41 37.21,34.41 37.21,34.07 37.87,34.07 37.87,33.53 &#10;&#9;&#9;&#9;&#9;&#9;&#9;37.21,33.53 &#9;&#9;&#9;&#9;&#9;"/>
          </g>
          <g>
            <polygon class="st7" points="12.79,15.83 12.13,15.83 12.13,16.37 12.79,16.37 12.79,16.71 15.39,16.71 15.39,15.54 &#10;&#9;&#9;&#9;&#9;&#9;&#9;12.79,15.54 &#9;&#9;&#9;&#9;&#9;"/>
            <polygon class="st7" points="12.79,18.36 12.13,18.36 12.13,18.9 12.79,18.9 12.79,19.24 15.39,19.24 15.39,18.07 12.79,18.07 &#10;&#9;&#9;&#9;&#9;&#9;&#9;&#9;&#9;&#9;&#9;&#9;"/>
            <polygon class="st7" points="12.79,20.89 12.13,20.89 12.13,21.42 12.79,21.42 12.79,21.77 15.39,21.77 15.39,20.6 12.79,20.6 &#10;&#9;&#9;&#9;&#9;&#9;&#9;&#9;&#9;&#9;&#9;&#9;"/>
            <polygon class="st7" points="12.79,23.42 12.13,23.42 12.13,23.95 12.79,23.95 12.79,24.29 15.39,24.29 15.39,23.13 &#10;&#9;&#9;&#9;&#9;&#9;&#9;12.79,23.13 &#9;&#9;&#9;&#9;&#9;"/>
            <polygon class="st7" points="12.79,25.95 12.13,25.95 12.13,26.48 12.79,26.48 12.79,26.82 15.39,26.82 15.39,25.66 &#10;&#9;&#9;&#9;&#9;&#9;&#9;12.79,25.66 &#9;&#9;&#9;&#9;&#9;"/>
            <polygon class="st7" points="12.79,28.48 12.13,28.48 12.13,29.01 12.79,29.01 12.79,29.35 15.39,29.35 15.39,28.18 &#10;&#9;&#9;&#9;&#9;&#9;&#9;12.79,28.18 &#9;&#9;&#9;&#9;&#9;"/>
            <polygon class="st7" points="12.79,31 12.13,31 12.13,31.54 12.79,31.54 12.79,31.88 15.39,31.88 15.39,30.71 12.79,30.71 &#10;&#9;&#9;&#9;&#9;&#9;&#9;&#9;&#9;&#9;&#9;&#9;"/>
            <polygon class="st7" points="12.79,33.53 12.13,33.53 12.13,34.07 12.79,34.07 12.79,34.41 15.39,34.41 15.39,33.24 &#10;&#9;&#9;&#9;&#9;&#9;&#9;12.79,33.24 &#9;&#9;&#9;&#9;&#9;"/>
          </g>
          <g>
            <polygon class="st7" points="34.39,12.1 33.86,12.1 33.86,12.76 33.52,12.76 33.52,15.36 34.69,15.36 34.69,12.76 34.39,12.76 &#10;&#9;&#9;&#9;&#9;&#9;&#9;&#9;&#9;&#9;&#9;&#9;"/>
            <polygon class="st7" points="31.86,12.1 31.33,12.1 31.33,12.76 30.99,12.76 30.99,15.36 32.16,15.36 32.16,12.76 31.86,12.76 &#10;&#9;&#9;&#9;&#9;&#9;&#9;&#9;&#9;&#9;&#9;&#9;"/>
            <polygon class="st7" points="29.34,12.1 28.8,12.1 28.8,12.76 28.46,12.76 28.46,15.36 29.63,15.36 29.63,12.76 29.34,12.76 &#10;&#9;&#9;&#9;&#9;&#9;&#9;&#9;&#9;&#9;&#9;&#9;"/>
            <polygon class="st7" points="26.81,12.1 26.27,12.1 26.27,12.76 25.93,12.76 25.93,15.36 27.1,15.36 27.1,12.76 26.81,12.76 &#10;&#9;&#9;&#9;&#9;&#9;&#9;&#9;&#9;&#9;&#9;&#9;"/>
            <polygon class="st7" points="24.28,12.1 23.74,12.1 23.74,12.76 23.4,12.76 23.4,15.36 24.57,15.36 24.57,12.76 24.28,12.76 &#10;&#9;&#9;&#9;&#9;&#9;&#9;&#9;&#9;&#9;&#9;&#9;"/>
            <polygon class="st7" points="21.75,12.1 21.22,12.1 21.22,12.76 20.88,12.76 20.88,15.36 22.04,15.36 22.04,12.76 21.75,12.76 &#10;&#9;&#9;&#9;&#9;&#9;&#9;&#9;&#9;&#9;&#9;&#9;"/>
            <polygon class="st7" points="19.22,12.1 18.69,12.1 18.69,12.76 18.35,12.76 18.35,15.36 19.51,15.36 19.51,12.76 19.22,12.76 &#10;&#9;&#9;&#9;&#9;&#9;&#9;&#9;&#9;&#9;&#9;&#9;"/>
            <polygon class="st7" points="16.69,12.1 16.16,12.1 16.16,12.76 15.82,12.76 15.82,15.36 16.99,15.36 16.99,12.76 16.69,12.76 &#10;&#9;&#9;&#9;&#9;&#9;&#9;&#9;&#9;&#9;&#9;&#9;"/>
          </g>
          <g>
            <polygon class="st7" points="33.52,37.24 33.86,37.24 33.86,37.9 34.39,37.9 34.39,37.24 34.69,37.24 34.69,34.64 33.52,34.64 &#10;&#9;&#9;&#9;&#9;&#9;&#9;&#9;&#9;&#9;&#9;&#9;"/>
            <polygon class="st7" points="30.99,37.24 31.33,37.24 31.33,37.9 31.86,37.9 31.86,37.24 32.16,37.24 32.16,34.64 30.99,34.64 &#10;&#9;&#9;&#9;&#9;&#9;&#9;&#9;&#9;&#9;&#9;&#9;"/>
            <polygon class="st7" points="28.46,37.24 28.8,37.24 28.8,37.9 29.34,37.9 29.34,37.24 29.63,37.24 29.63,34.64 28.46,34.64 &#10;&#9;&#9;&#9;&#9;&#9;&#9;&#9;&#9;&#9;&#9;&#9;"/>
            <polygon class="st7" points="25.93,37.24 26.27,37.24 26.27,37.9 26.81,37.9 26.81,37.24 27.1,37.24 27.1,34.64 25.93,34.64 &#10;&#9;&#9;&#9;&#9;&#9;&#9;&#9;&#9;&#9;&#9;&#9;"/>
            <polygon class="st7" points="23.4,37.24 23.74,37.24 23.74,37.9 24.28,37.9 24.28,37.24 24.57,37.24 24.57,34.64 23.4,34.64 &#10;&#9;&#9;&#9;&#9;&#9;&#9;&#9;&#9;&#9;&#9;&#9;"/>
            <polygon class="st7" points="20.88,37.24 21.22,37.24 21.22,37.9 21.75,37.9 21.75,37.24 22.04,37.24 22.04,34.64 20.88,34.64 &#10;&#9;&#9;&#9;&#9;&#9;&#9;&#9;&#9;&#9;&#9;&#9;"/>
            <polygon class="st7" points="18.35,37.24 18.69,37.24 18.69,37.9 19.22,37.9 19.22,37.24 19.51,37.24 19.51,34.64 18.35,34.64 &#10;&#9;&#9;&#9;&#9;&#9;&#9;&#9;&#9;&#9;&#9;&#9;"/>
            <polygon class="st7" points="15.82,37.24 16.16,37.24 16.16,37.9 16.69,37.9 16.69,37.24 16.99,37.24 16.99,34.64 15.82,34.64 &#10;&#9;&#9;&#9;&#9;&#9;&#9;&#9;&#9;&#9;&#9;&#9;"/>
          </g>
        </g>
        <g>
          <rect x="15.46" y="15.43" class="st8" width="19.1" height="19.1"/>
          <rect x="15.46" y="15.43" class="st9" width="19.1" height="19.1"/>
          <g>
            <polygon class="st10" points="15.46,15.43 34.56,15.43 36.07,13.92 13.95,13.92 &#9;&#9;&#9;&#9;&#9;"/>
            <polygon class="st10" points="13.95,36.03 15.46,34.52 15.46,15.43 13.95,13.92 &#9;&#9;&#9;&#9;&#9;"/>
            <polygon class="st10" points="34.56,34.52 36.07,36.03 36.07,13.92 34.56,15.43 &#9;&#9;&#9;&#9;&#9;"/>
            <polygon class="st10" points="15.46,34.52 13.95,36.03 36.07,36.03 34.56,34.52 &#9;&#9;&#9;&#9;&#9;"/>
            <polygon class="st10" points="15.46,15.43 34.56,15.43 36.07,13.92 13.95,13.92 &#9;&#9;&#9;&#9;&#9;"/>
            <polygon class="st11" points="13.95,36.03 15.46,34.52 15.46,15.43 13.95,13.92 &#9;&#9;&#9;&#9;&#9;"/>
            <polygon class="st12" points="34.56,34.52 36.07,36.03 36.07,13.92 34.56,15.43 &#9;&#9;&#9;&#9;&#9;"/>
            <polygon class="st13" points="15.46,34.52 13.95,36.03 36.07,36.03 34.56,34.52 &#9;&#9;&#9;&#9;&#9;"/>
          </g>
        </g>
        <path class="st14" d="M17.76,16.71c-0.7,0-1.26,0.57-1.26,1.26c0,0.7,0.57,1.26,1.26,1.26c0.7,0,1.26-0.57,1.26-1.26 C19.03,17.27,18.46,16.71,17.76,16.71z"/>
        <path class="st14" d="M32.26,16.71c-0.7,0-1.26,0.57-1.26,1.26c0,0.7,0.57,1.26,1.26,1.26s1.26-0.57,1.26-1.26 C33.52,17.27,32.95,16.71,32.26,16.71z"/>
        <path class="st14" d="M17.76,30.62c-0.7,0-1.26,0.57-1.26,1.26c0,0.7,0.57,1.26,1.26,1.26c0.7,0,1.26-0.57,1.26-1.26 C19.03,31.18,18.46,30.62,17.76,30.62z"/>
        <path class="st14" d="M32.26,30.62c-0.7,0-1.26,0.57-1.26,1.26c0,0.7,0.57,1.26,1.26,1.26s1.26-0.57,1.26-1.26 C33.52,31.18,32.95,30.62,32.26,30.62z"/>
      </g>
    </g>
  </g>
</svg>