<?xml version="1.0" encoding="utf-8"?>
<svg version="1.1" id="Camada_2" x="0px" y="0px" viewBox="0 0 300 300" style="enable-background:new 0 0 750 500;" xmlns="http://www.w3.org/2000/svg">
  <style type="text/css">
	.st0{fill:#FAFAFA;}
	.st1{fill:#263238;}
	.st2{fill:#455A64;}
	.st3{fill:#FF725E;}
</style>
  <g transform="matrix(1.095388, 0, 0, 1.095388, -239.56929, -90.952522)" style="">
    <polygon class="st0" points="489.64,136.99 221.65,136.99 221.65,302.95 447.25,302.95 473.6,302.95 473.6,302.95 489.64,302.95 &#9;&#10;&#9;&#9;"/>
    <path class="st1" d="M489.5,153.18c0,0.2-59.88,0.37-133.72,0.37s-133.73-0.17-133.73-0.37s59.87-0.32,133.73-0.32 S489.5,152.98,489.5,153.18z"/>
    <path class="st1" d="M235.89,145.86c0,1.22-0.98,2.2-2.2,2.2c-1.22,0-2.2-0.99-2.2-2.2c0-1.22,0.98-2.2,2.2-2.2c0,0,0.01,0,0.01,0 C234.91,143.67,235.89,144.65,235.89,145.86z"/>
    <path class="st1" d="M243.84,145.86c0,1.22-0.98,2.2-2.2,2.2c-1.22,0-2.2-0.99-2.2-2.2c0-1.22,0.98-2.2,2.2-2.2c0,0,0.01,0,0.01,0 C242.86,143.67,243.84,144.65,243.84,145.86z"/>
    <path class="st1" d="M251.79,145.86c0,1.22-0.98,2.2-2.2,2.2c-1.21,0-2.2-0.98-2.2-2.2s0.98-2.2,2.2-2.2 C250.81,143.66,251.79,144.64,251.79,145.86L251.79,145.86z"/>
    <path class="st1" d="M250.88,182.86l-6.36,2.46l6.36,2.45v1.49l-8-3.17v-1.53l8-3.18V182.86z"/>
    <path class="st1" d="M257.5,176.51h1.56l-5.92,16.88h-1.54L257.5,176.51z"/>
    <path class="st1" d="M267.6,184.56v1.54l-8,3.17v-1.49l6.38-2.45l-6.38-2.47v-1.49L267.6,184.56z"/>
    <path class="st1" d="M269.66,190.47c-0.01-0.66,0.52-1.21,1.18-1.22c0.01,0,0.03,0,0.04,0c0.65-0.01,1.18,0.52,1.19,1.17 c0,0.02,0,0.03,0,0.05c0.02,0.66-0.5,1.22-1.16,1.24c-0.01,0-0.02,0-0.03,0c-0.67,0-1.22-0.55-1.22-1.22 C269.66,190.48,269.66,190.48,269.66,190.47z"/>
    <path class="st1" d="M273.74,190.47c-0.02-0.66,0.5-1.2,1.16-1.22c0.02,0,0.04,0,0.06,0c0.65,0,1.18,0.53,1.18,1.18 c0,0.01,0,0.03,0,0.04c0.02,0.66-0.5,1.22-1.16,1.24c-0.01,0-0.01,0-0.02,0c-0.67,0.01-1.21-0.53-1.22-1.2 C273.74,190.5,273.74,190.48,273.74,190.47z"/>
    <path class="st1" d="M277.81,190.47c-0.02-0.66,0.5-1.2,1.16-1.22c0.02,0,0.04,0,0.06,0c0.65,0,1.18,0.53,1.18,1.18 c0,0.01,0,0.03,0,0.04c0.02,0.66-0.5,1.22-1.16,1.24c-0.01,0-0.01,0-0.02,0c-0.67,0.01-1.21-0.53-1.22-1.2 C277.81,190.5,277.81,190.48,277.81,190.47z"/>
    <path class="st2" d="M420.1,206.57c0,0.2-39.61,0.36-88.47,0.36s-88.48-0.16-88.48-0.36c0-0.2,39.61-0.37,88.48-0.37 S420.1,206.36,420.1,206.57z"/>
    <path class="st1" d="M449,207.09c0,0.2-3.8,0.37-8.5,0.37s-8.5-0.17-8.5-0.37c0-0.2,3.81-0.37,8.5-0.37S449,206.86,449,207.09z"/>
    <path class="st1" d="M473.85,207.09c0,0.2-4.16,0.37-9.28,0.37s-9.29-0.17-9.29-0.37c0-0.2,4.16-0.37,9.29-0.37 S473.85,206.86,473.85,207.09z"/>
    <path class="st2" d="M355.83,221.48c0,0.2-25.18,0.36-56.24,0.36s-56.23-0.16-56.23-0.36c0-0.2,25.17-0.37,56.23-0.37 S355.83,221.27,355.83,221.48z"/>
    <path class="st2" d="M355.02,277.11c0,0.2-25.18,0.36-56.23,0.36s-56.24-0.16-56.24-0.36c0-0.2,25.18-0.37,56.24-0.37 S355.02,276.91,355.02,277.11z"/>
    <path class="st1" d="M396.69,221.48c0,0.2-6.85,0.36-15.3,0.36s-15.3-0.16-15.3-0.36c0-0.2,6.85-0.37,15.3-0.37 C389.84,221.11,396.69,221.27,396.69,221.48z"/>
    <path class="st1" d="M396.37,277.11c0,0.2-6.85,0.36-15.3,0.36s-15.3-0.16-15.3-0.36c0-0.2,6.85-0.37,15.3-0.37 C389.52,276.74,396.37,276.91,396.37,277.11z"/>
    <path class="st3" d="M250.74,229.06c0,0.2-1.7,0.37-3.8,0.37s-3.79-0.17-3.79-0.37c0-0.2,1.7-0.36,3.79-0.36 S250.74,228.86,250.74,229.06z"/>
    <path class="st1" d="M276.89,229.22c0,0.2-3.69,0.36-8.24,0.36s-8.24-0.16-8.24-0.36c0-0.2,3.69-0.37,8.24-0.37 S276.89,229.02,276.89,229.22z"/>
    <path class="st1" d="M293.6,229.22c0,0.2-3.16,0.36-7.06,0.36s-7.06-0.16-7.06-0.36c0-0.2,3.16-0.37,7.06-0.37 S293.6,229.02,293.6,229.22z"/>
    <path class="st1" d="M314.82,229.22c0,0.2-3.22,0.36-7.19,0.36s-7.2-0.16-7.2-0.36c0-0.2,3.22-0.37,7.2-0.37 S314.82,229.02,314.82,229.22z"/>
    <path class="st1" d="M333.39,229.22c0,0.2-2.93,0.36-6.54,0.36s-6.54-0.16-6.54-0.36c0-0.2,2.93-0.37,6.54-0.37 S333.39,229.02,333.39,229.22z"/>
    <path class="st1" d="M394.86,229.22c0,0.2-12.88,0.36-28.77,0.36s-28.78-0.16-28.78-0.36c0-0.2,12.88-0.37,28.78-0.37 S394.86,229.02,394.86,229.22z"/>
    <path class="st3" d="M249.69,238.74c0,0.2-1.46,0.37-3.27,0.37s-3.27-0.17-3.27-0.37c0-0.2,1.46-0.37,3.27-0.37 S249.69,238.54,249.69,238.74z"/>
    <path class="st3" d="M249.95,248.68c0,0.2-1.52,0.37-3.4,0.37s-3.4-0.17-3.4-0.37c0-0.2,1.52-0.37,3.4-0.37 S249.95,248.48,249.95,248.68z"/>
    <path class="st3" d="M249.95,259.93c0,0.2-1.52,0.36-3.4,0.36s-3.4-0.16-3.4-0.36c0-0.2,1.52-0.37,3.4-0.37 S249.95,259.72,249.95,259.93z"/>
    <path class="st1" d="M311.94,259.4c0,0.21-11.36,0.37-25.37,0.37s-25.37-0.16-25.37-0.37s11.36-0.36,25.37-0.36 S311.94,259.2,311.94,259.4z"/>
    <path class="st1" d="M307.5,248.68c0,0.2-10.84,0.37-24.2,0.37s-24.19-0.17-24.19-0.37c0-0.2,10.83-0.37,24.19-0.37 S307.5,248.48,307.5,248.68z"/>
    <path class="st1" d="M424.42,238.22c0,0.2-36.9,0.36-82.39,0.36s-82.4-0.16-82.4-0.36c0-0.2,36.88-0.37,82.4-0.37 S424.42,238.01,424.42,238.22z"/>
  </g>
</svg>