<svg xmlns="http://www.w3.org/2000/svg" viewBox="0 0 496.19 495.46">
    <defs>
        <style>.cls-1{fill:#060606;}</style>
    </defs>
    <g id="Camada_2" data-name="Camada 2">
        <g id="Camada_1-2" data-name="Camada 1">
            <path class="cls-1" d="M158.25,318c0-16,3.92-27.43,10.95-37.79a231.47,231.47,0,0,1,21.61-27.65A174.63,174.63,0,0,1,246.91,212a25,25,0,0,1,15-1.84c10.59,1.93,15.35,10.31,12.19,21.39-2.46,8.61-7.11,16.21-12,23.59a155.42,155.42,0,0,1-48.91,47.19c-1.81,1.12-4.28,3.95-6.07,1.11s1.88-3.74,3.66-4.85c17.39-10.84,32.38-24.29,44-41.18,6-8.71,11.49-17.75,15-27.92s-4-14.9-10.95-15.1a25.77,25.77,0,0,0-12,2.61c-26.3,12.59-48.24,30.43-65.33,54.14-4.22,5.87-8.95,11.36-12.29,17.82a56.72,56.72,0,0,0-6.42,29.26,6.28,6.28,0,0,0,2.84,5.27c7,5.08,14.56,4.4,22.22,2.09a62.25,62.25,0,0,0,15.18-7.23c26-16.38,49.26-35.8,67.62-60.69a212.54,212.54,0,0,0,20.34-34,45.88,45.88,0,0,0,4.63-22.48c-.09-1.82.13-2.93-2.55-2.15-7.83,2.28-13.9-1.29-16.32-9.36-.5-1.7-1.16-2.12-2.87-1.87a47.53,47.53,0,0,0-10.15,2.44,185.29,185.29,0,0,0-59.09,36.11c-1.49,1.37-3.23,3.77-5.29,1.68s.36-3.82,1.87-5.15c19.85-17.4,42.14-30.75,67.25-39,4.87-1.59,9.34-2.24,13-6.65s10.71-3.7,15.17-.37a12.35,12.35,0,0,1,4.09,15,10.59,10.59,0,0,0-.71,6.45A45.27,45.27,0,0,1,294.83,227c-7,13-14.34,25.68-23.46,37.33-17.68,22.59-39.16,40.84-63.3,56.16-6.89,4.37-13.95,8.27-21.88,10.37a28.56,28.56,0,0,1-15.9-.05C161.05,328,158.22,324.15,158.25,318ZM289,179a8.1,8.1,0,1,0,.06,16.2,8,8,0,0,0,8.15-8.35A7.91,7.91,0,0,0,289,179Z" />
            <path class="cls-1" d="M496.18,47.53c-.17,21.64-5.81,42.13-13.27,62.22-2,5.49-4.22,10.92-6.49,16.32-.63,1.51-.52,2.24.79,3.38,6,5.22,7.56,12,4.4,18.43s-9.68,9.49-17.32,7.72c-2.71-.63-2.92,1.07-3.68,2.49a671.58,671.58,0,0,1-42.4,69.65,658.4,658.4,0,0,1-71.56,86.42c-9.39,9.48-19.39,18.35-29.17,27.45-.79.74-1.85,2.55-3,1.25-.94-1.11.88-2.06,1.68-2.86,6.16-6.2,12.44-12.27,18.55-18.52,48-49.13,88.89-103.49,121.18-164.19,1.54-2.9,2.27-4.94-.19-8.09-3.57-4.55-3.46-10-.58-15.15A14.11,14.11,0,0,1,468,126.43c1.65,0,2.93.24,3.82-1.81,8.3-19,15.19-38.46,18.41-59.09S491.34,25,482.38,6c-.58-1.23-1.44-2.32-2.08-3.53-.41-.78-.77-1.79.2-2.32a1.62,1.62,0,0,1,2.2.86c2.09,3.68,5.08,6.75,6.78,10.71C494.4,23.19,496.3,35.16,496.18,47.53Zm-18,93.79a10,10,0,1,0-9.92,10A9.92,9.92,0,0,0,478.17,141.32Z" />
            <path class="cls-1" d="M310.55,144c-10.33-.77-19.65,2.91-29,6.48C254.07,161,230,177.2,207,195.14a418,418,0,0,0-81,83.7c-16,21.91-30.47,44.77-40.45,70.16-4.26,10.86-7.44,22-6.75,33.85.79,13.56,7.94,22.45,20.34,27.43,1.74.69,3.54,1.22,5.24,2,1,.48,2,1.31,1.46,2.66a2.32,2.32,0,0,1-2.76,1.4,12.33,12.33,0,0,1-1.45-.37c-17.16-4.52-27.37-17.75-27.46-35.63-.07-13.25,4-25.54,9-37.57,7.65-18.26,17.73-35.19,28.71-51.59A427.58,427.58,0,0,1,244.67,163.46c11-6.74,22.79-11.78,34.52-17.05a75.74,75.74,0,0,1,32.27-7c3.57,0,6.75,1.21,10,2.42.59.22,1.23.57,1.19,1.27-.06,1.08-1,.87-1.69.91A57.13,57.13,0,0,1,310.55,144Z" />
            <path class="cls-1" d="M402.24,121.9c0,13.34-3.08,26.16-6.38,39-4.33,16.81-13.52,31.26-22.33,45.77-38.38,63.17-87.93,116.23-147.25,160.26a3,3,0,0,1-.31.22c-1.72.94-3.54,3.65-5.4,1.17s1.13-3.62,2.69-4.75a536.08,536.08,0,0,0,82.59-74.77c31-34.35,58.36-71.22,79.11-112.64,9.58-19.12,13.5-39.81,12.62-61.27a40,40,0,0,0-2.58-12c-4-11-12.38-16.46-23.36-18.72-1.1-.23-2.21-.45-3.32-.6-1.82-.25-3.83-.6-3.42-3s2.59-2,4.29-1.8c8.37,1.08,15.95,4,22.07,10,7.66,7.58,10.26,17.17,11,27.5C402.35,118.15,402.24,120,402.24,121.9Z" />
            <path class="cls-1" d="M64.72,312.54a3.84,3.84,0,0,1-1.48,0c-4.7-2.29-6.6.6-8.83,4.12-11.35,17.94-21.92,36.3-30.47,55.77-1.1,2.5-2.44,4.9-3.75,7.31-.52.94-1.12,2.25-2.52,1.57s-.79-1.88-.47-3a95.22,95.22,0,0,1,5.05-13.26,420.18,420.18,0,0,1,30.14-53.4c1.34-2,1.83-3.33.17-5.76-3.49-5.12-3.7-10.73-.08-16.12,3.41-5.07,9.48-7.81,15.32-6.2,3.11.86,4.5-.3,6.15-2.49a637.8,637.8,0,0,1,53.11-61.94c4.81-4.92,10.3-9.06,15.12-14,.76-.77,1.8-2.51,3-1.41,1.56,1.47-.55,2.32-1.34,3.18-21.91,24.1-44.36,47.74-64,73.82a24.84,24.84,0,0,1-1.59,2.08c-2.23,2.47-3,4.42-.78,8C83.47,300.31,76,312.63,64.72,312.54Zm.3-24.77a10.14,10.14,0,1,0-.3,20.27,10.14,10.14,0,1,0,.3-20.27Z" />
            <path class="cls-1" d="M151.34,365.06c-6.73.62-13.51-1.9-19.74-6.68-3.08-2.36-4.16-5.77-6-8.78a1.23,1.23,0,0,1,.28-1.69c.61-.34,1.12.28,1.54.75C141.84,364.5,160,362.22,175,356.2c28.44-11.36,52.08-29.77,74.55-50,1-.87,2.21-2.77,3.26-1.7s-.75,2.54-1.63,3.57c-17.65,20.89-40,35.49-64.07,47.85C176.17,361.58,165,365.51,151.34,365.06Z" />
            <path class="cls-1" d="M57.62,495.44c-14.62,0-26.27-1.39-36.51-7.95C6.2,477.93.36,463.43,0,446.39c-.35-18,3.37-35.32,10-52,.22-.58.53-1.12.72-1.71s.67-.9,1.08-.73c.24.11.37.92.25,1.33-1.05,3.82-2.2,7.61-3.27,11.42C4.56,419.76,1.6,435,3.94,450.75c3.35,22.57,15.17,36.94,39.74,40.66,20.79,3.14,40.62-2.08,60.15-8.5,7.51-2.47,15.07-4.84,22.26-8.19.73-.34,1.72-.77,2-.17s-.84.91-1.51,1.24c-17.56,8.71-35.82,15.32-55.25,18.4A84,84,0,0,1,57.62,495.44Z" />
            <path class="cls-1" d="M163.62,459.05c.08,0-.43.07-.56-.13-.32-.46.06-.86.33-1.28a9.62,9.62,0,0,1,3.27-3c34.27-20.43,66-44.45,97.32-69,12-9.4,23.26-19.63,34.68-29.68.46-.41.91-.86,1.41-1.23a1,1,0,0,1,1.34-.12.92.92,0,0,1,0,1.34,14.7,14.7,0,0,1-1.54,1.62c-30.35,29.63-62.74,56.75-98.48,79.72-10.9,7-22.11,13.54-33.15,20.34A13.55,13.55,0,0,1,163.62,459.05Z" />
            <path class="cls-1" d="M127.69,330.63c1.28-15.57,7.69-28.54,15.81-40.82,3.72-5.61,7.39-11.26,11.28-16.75a223.38,223.38,0,0,1,31.63-35.4c1.77-1.63,4.77-3.74,5.92-2.45,1.47,1.64-.94,4.08-2.67,5.66a237.56,237.56,0,0,0-43.31,53.23,167.67,167.67,0,0,0-12.25,24.68c-1.57,3.91-3.89,7.51-4.91,11.65-.15.61-.28,1.4-1,1.32C127,331.63,127.68,330.62,127.69,330.63Z" />
            <path class="cls-1" d="M334.74,171c0-2.74,0-5.47,0-8.21,0-1.72-.51-3.93,1.92-4.14s2.41,2,2.64,3.72c1.77,13.11-.42,25.77-4.2,38.27-4.26,14.1-12.31,26-21.31,37.39-.85,1.08-1.86,2-3.09.82s-.17-2.2.58-3.22c10.5-14.14,18.52-29.44,22.24-46.8A68.87,68.87,0,0,0,334.74,171Z" />
            <path class="cls-1" d="M123.57,415.35c-1-.41-2.39.85-2.72-.46-.2-.74,1.29-1.08,2.15-1.37,6.11-2,12.28-3.94,18.39-6a300.07,300.07,0,0,0,47.8-21.11c4.69-2.56,9.63-4.68,14.05-7.76.82-.57,2-1.77,2.9-.43s-.61,1.92-1.44,2.57c-13.79,10.94-29.21,18.93-45.54,25.35-10.36,4.08-21.16,6.44-32,8.79A33.71,33.71,0,0,1,123.57,415.35Z" />
            <path class="cls-1" d="M343.5,80c-.61,1.51-1.86,1.23-2.7,1.45a308.32,308.32,0,0,0-43.34,14.81c-13.6,5.76-27.47,11.09-40,19.17-.87.57-2,1.7-2.83.26-.59-1.1.84-1.62,1.61-2.16C273.09,101.79,290.9,92,310.67,86c9.9-3,20.07-4.73,30.25-6.42A3,3,0,0,1,343.5,80Z" />
            <path class="cls-1" d="M250.32,233.76a51.52,51.52,0,0,0-35.26,15c-3.95,3.8-7.65,7.87-11.43,11.84-.95,1-2,1.71-3.22.67s-.48-2.07.16-3c9.71-14.06,22.33-24.14,39.35-27.74a33.24,33.24,0,0,1,15.57.4c.78.21,1.93.36,1.92,1.44,0,1.39-1.25,1.33-2.22,1.35C253.57,233.79,251.94,233.76,250.32,233.76Z" />
            <path class="cls-1" d="M179.2,295.54c1.08-6.94,3.26-14.44,9.14-20.4.46-.47.87-1,1.49-.65.25.15.16.9.18,1.38.17,4.52-2.45,8.28-3.46,12.48-.76,3.14-1.92,6.16-2,9.46,0,3.82,1.36,5.39,5.27,5.63,1.86.12,3.73.14,5.6.21.89,0,1.84.11,2,1.23s-.7,1.38-1.52,1.8a12.32,12.32,0,0,1-12.16-.07C180,304.47,179.27,300.61,179.2,295.54Z" />
            <path class="cls-1" d="M177.69,174.53c-.68-.14-1.27-.4-.8-1.18a9,9,0,0,1,1.44-1.7c18.63-18.48,38.54-35.32,61.7-48,.81-.44,1.92-1.58,2.52-.57s-1,1.42-1.73,1.9c-21.36,14.89-42.39,30.21-61.4,48.11C178.88,173.62,178.27,174.05,177.69,174.53Z" />
            <path class="cls-1" d="M275.09,283.74c-.32-.16-.76-.25-.93-.51-.31-.45-.08-.89.25-1.33a35.7,35.7,0,0,1,3-4.2c6.7-6.66,12.47-14.13,18.79-21.13.42-.47.76-1.17,1.42-.89s.44,1.07.21,1.62C293.31,268,287,277.26,276.39,283,276,283.18,275.55,283.46,275.09,283.74Z" />
            <path class="cls-1" d="M151.78,198.5c-1.82-.47-2.65-1.82-1.55-3.26a35.61,35.61,0,0,1,8.38-7.77,2,2,0,0,1,2.69,2.95,53.78,53.78,0,0,1-8.42,7.75A3.65,3.65,0,0,1,151.78,198.5Z" />
        </g>
    </g>
</svg>