<?xml version="1.0" encoding="utf-8"?>
<svg version="1.1" x="0px" y="0px" viewBox="0 0 261.396 378.196" style="enable-background:new 0 0 1366 768;" xmlns="http://www.w3.org/2000/svg">
  <style type="text/css">
	.st0{display:none;}
	.st1{display:inline;}
	.st2{fill:#FFFFFF;}
	.st3{fill:#E5CCA3;}
	.st4{fill:#FFF9CC;}
	.st5{fill:#F7E6BB;}
	.st6{fill:#39B4BC;}
	.st7{fill:#4ADADD;}
	.st8{fill:#343434;}
	.st9{opacity:0.4;}
	.st10{fill:#2DA2A5;}
	.st11{fill:#CEB48E;}
	.st12{opacity:0.2;}
</style>
  <g id="Camada_1" transform="matrix(1, 0, 0, 1, -630.109985, -189)">
    <g>
      <path class="st2" d="M891,543.89c0,12.71-10.31,23.02-23.02,23.02H653.13c-12.71,0-23.02-10.31-23.02-23.02V311.77 c0-12.71,10.31-23.02,23.02-23.02h214.85c12.71,0,23.02,10.31,23.02,23.02V543.89z"/>
      <g>
        <path class="st2" d="M630.11,543.89c0,12.71,10.31,23.02,23.02,23.02h214.85c12.71,0,23.02-10.31,23.02-23.02v-0.12H630.11 V543.89z"/>
      </g>
      <path class="st3" d="M847.69,424.37h-15.93c-11.59-25.53-37.29-43.3-67.15-43.3c-40.72,0-73.72,33.01-73.72,73.72 s33.01,73.72,73.72,73.72c29.87,0,55.56-17.77,67.15-43.3h15.93V424.37z"/>
      <circle class="st4" cx="760.55" cy="450.74" r="73.72"/>
      <ellipse transform="matrix(0.7071 -0.7071 0.7071 0.7071 -95.9603 669.8107)" class="st5" cx="760.55" cy="450.74" rx="51.04" ry="51.04"/>
      <ellipse transform="matrix(0.7071 -0.7071 0.7071 0.7071 -95.9603 669.8107)" class="st6" cx="760.55" cy="450.74" rx="46.26" ry="46.26"/>
      <rect x="822.79" y="420.32" class="st4" width="20.85" height="60.85"/>
      <g>
        <path class="st7" d="M805.12,463.01c-4.57,1.02-8.99,1.47-13.26,1.47c-14.01,0-26.35-4.72-37.06-8.81 c-5.81-2.22-11.31-4.32-16.31-5.37c-9.01-1.9-16.59-0.82-24.05,3.46c-0.06-1-0.15-2-0.15-3.01c0,25.55,20.71,46.26,46.26,46.26 c22.62,0,41.41-16.24,45.44-37.69C805.75,460.56,805.45,461.79,805.12,463.01z"/>
      </g>
      <g>
        <path class="st2" d="M738.49,450.3c5,1.05,10.49,3.15,16.31,5.37c10.71,4.09,23.05,8.81,37.06,8.81c4.26,0,8.68-0.44,13.26-1.47 c0.33-1.22,0.64-2.45,0.87-3.7c-19.19,4.92-35.41-1.23-49.98-6.79c-5.95-2.27-11.56-4.42-16.82-5.52c-9.27-1.95-17.16-1-24.86,3 c0,0.25-0.04,0.5-0.04,0.75c0,1.02,0.09,2.01,0.15,3.01C721.9,449.48,729.48,448.4,738.49,450.3z"/>
      </g>
      <g>
        <g>
          <rect x="716.94" y="305.17" class="st8" width="87.22" height="33.09"/>
        </g>
      </g>
      <g>
        <path class="st2" d="M746.41,464.48c-1.44,0-2.61,1.17-2.61,2.61c0,1.44,1.17,2.61,2.61,2.61c1.44,0,2.61-1.17,2.61-2.61 C749.02,465.65,747.85,464.48,746.41,464.48z M746.41,468.75c-0.92,0-1.66-0.74-1.66-1.66c0-0.92,0.74-1.66,1.66-1.66 c0.92,0,1.66,0.74,1.66,1.66C748.06,468.01,747.32,468.75,746.41,468.75z"/>
        <path class="st2" d="M763.09,458.12c-0.91,0-1.65,0.74-1.65,1.65c0,0.91,0.74,1.65,1.65,1.65s1.65-0.74,1.65-1.65 C764.74,458.85,764,458.12,763.09,458.12z M763.09,460.81c-0.58,0-1.04-0.47-1.04-1.04c0-0.58,0.47-1.04,1.04-1.04 c0.58,0,1.04,0.47,1.04,1.04C764.14,460.34,763.67,460.81,763.09,460.81z"/>
        <path class="st2" d="M737.71,453.6c-0.91,0-1.64,0.74-1.64,1.65s0.74,1.65,1.64,1.65c0.91,0,1.64-0.74,1.64-1.65 S738.62,453.6,737.71,453.6z M737.71,456.29c-0.58,0-1.04-0.47-1.04-1.04s0.47-1.04,1.04-1.04c0.58,0,1.04,0.47,1.04,1.04 S738.29,456.29,737.71,456.29z"/>
        <path class="st2" d="M774.41,484.83c-0.91,0-1.65,0.74-1.65,1.65c0,0.91,0.74,1.64,1.65,1.64s1.64-0.74,1.64-1.64 C776.06,485.57,775.32,484.83,774.41,484.83z M774.41,487.52c-0.58,0-1.04-0.47-1.04-1.04c0-0.58,0.47-1.04,1.04-1.04 c0.58,0,1.04,0.47,1.04,1.04C775.46,487.05,774.99,487.52,774.41,487.52z"/>
        <path class="st2" d="M789.43,465.44c-0.91,0-1.65,0.74-1.65,1.65c0,0.91,0.74,1.64,1.65,1.64c0.91,0,1.64-0.74,1.64-1.64 C791.08,466.18,790.34,465.44,789.43,465.44z M789.43,468.13c-0.58,0-1.04-0.47-1.04-1.04c0-0.58,0.47-1.04,1.04-1.04 c0.58,0,1.04,0.47,1.04,1.04C790.48,467.67,790.01,468.13,789.43,468.13z"/>
        <path class="st2" d="M767.73,471.34c-2.03,0-3.67,1.64-3.67,3.67c0,2.03,1.64,3.67,3.67,3.67s3.67-1.64,3.67-3.67 C771.4,472.99,769.76,471.34,767.73,471.34z M767.73,477.34c-1.29,0-2.33-1.04-2.33-2.33c0-1.29,1.04-2.33,2.33-2.33 s2.33,1.04,2.33,2.33C770.06,476.3,769.02,477.34,767.73,477.34z"/>
        <path class="st2" d="M726.73,460.81c-2.03,0-3.67,1.64-3.67,3.67c0,2.03,1.64,3.67,3.67,3.67s3.67-1.64,3.67-3.67 C730.4,462.45,728.75,460.81,726.73,460.81z M726.73,466.81c-1.29,0-2.33-1.04-2.33-2.33c0-1.29,1.04-2.33,2.33-2.33 c1.29,0,2.33,1.04,2.33,2.33C729.06,465.76,728.02,466.81,726.73,466.81z"/>
        <path class="st2" d="M787.49,476.37c-2.03,0-3.67,1.64-3.67,3.67c0,2.03,1.64,3.67,3.67,3.67c2.03,0,3.67-1.64,3.67-3.67 C791.16,478.02,789.52,476.37,787.49,476.37z M787.49,482.37c-1.29,0-2.33-1.04-2.33-2.33c0-1.29,1.04-2.33,2.33-2.33 c1.29,0,2.33,1.04,2.33,2.33C789.82,481.33,788.78,482.37,787.49,482.37z"/>
        <path class="st2" d="M749.02,485.03c-2.03,0-3.67,1.64-3.67,3.67c0,2.03,1.64,3.67,3.67,3.67c2.03,0,3.67-1.64,3.67-3.67 C752.69,486.67,751.04,485.03,749.02,485.03z M749.02,491.03c-1.29,0-2.33-1.04-2.33-2.33c0-1.29,1.04-2.33,2.33-2.33 s2.33,1.04,2.33,2.33C751.35,489.98,750.31,491.03,749.02,491.03z"/>
      </g>
      <rect x="646.99" y="302.65" class="st4" width="56.07" height="35.61"/>
      <path class="st4" d="M866.59,321.71c0,7.12-5.77,12.89-12.89,12.89c-7.12,0-12.89-5.77-12.89-12.89c0-7.12,5.77-12.89,12.89-12.89 C860.82,308.82,866.59,314.59,866.59,321.71z"/>
      <g class="st9">
        <path class="st10" d="M735.45,457.49c0-22.5,18.24-40.74,40.74-40.74c7.73,0,14.92,2.19,21.08,5.93 c-8.45-11.04-21.73-18.2-36.71-18.2c-25.55,0-46.26,20.71-46.26,46.26c0,25.55,20.71,46.26,46.26,46.26 c1.64,0,3.26-0.09,4.86-0.26C748.15,492.01,735.45,476.25,735.45,457.49z"/>
      </g>
      <g>
        <path class="st3" d="M675.03,308.37c4.14,0,7.53-2.69,8.09-6.18h-16.18C667.5,305.68,670.89,308.37,675.03,308.37z"/>
      </g>
      <g>
        <path class="st4" d="M743.79,346.01c0,2.33-1.89,4.23-4.23,4.23c-2.33,0-4.23-1.89-4.23-4.23c0-2.33,1.89-4.23,4.23-4.23 C741.9,341.78,743.79,343.67,743.79,346.01z"/>
        <path class="st4" d="M764.78,346.01c0,2.33-1.89,4.23-4.23,4.23s-4.23-1.89-4.23-4.23c0-2.33,1.89-4.23,4.23-4.23 S764.78,343.67,764.78,346.01z"/>
        <path class="st4" d="M785.76,346.01c0,2.33-1.89,4.23-4.23,4.23s-4.23-1.89-4.23-4.23c0-2.33,1.89-4.23,4.23-4.23 S785.76,343.67,785.76,346.01z"/>
      </g>
      <g>
        <path class="st5" d="M853.7,302.86c-10.41,0-18.85,8.44-18.85,18.85c0,10.41,8.44,18.85,18.85,18.85 c10.41,0,18.85-8.44,18.85-18.85C872.56,311.3,864.11,302.86,853.7,302.86z M853.7,337.74c-8.85,0-16.03-7.18-16.03-16.03 c0-8.85,7.18-16.03,16.03-16.03c8.85,0,16.03,7.18,16.03,16.03C869.73,330.57,862.56,337.74,853.7,337.74z"/>
      </g>
      <path class="st2" d="M638.28,367.98v65.35c0,0,24.23-48.17,64.79-65.35H638.28z"/>
      <rect x="630.11" y="355.97" class="st11" width="260.89" height="2.57"/>
      <rect x="656.99" y="331.29" class="st11" width="36.07" height="2.57"/>
      <rect x="630.11" y="542.48" class="st11" width="260.89" height="2.57"/>
      <g>
        <path class="st2" d="M777.7,255.5c0,8.02-6.5,14.51-14.51,14.51c-8.02,0-14.52-6.5-14.52-14.51c0-8.02,6.5-14.52,14.52-14.52 C771.21,240.98,777.7,247.48,777.7,255.5z"/>
        <g>
          <path class="st2" d="M763.19,223.49c-14.74,0-27.11,9.97-30.83,23.52l5.48,2.56c2.69-11.53,13-20.13,25.35-20.13 c12.35,0,22.66,8.6,25.35,20.13l5.49-2.56C790.3,233.46,777.92,223.49,763.19,223.49z"/>
          <path class="st2" d="M763.19,207.3c-21.23,0-39.21,13.74-45.64,32.81l4.76,2.22c5.56-17.28,21.76-29.79,40.89-29.79 c19.13,0,35.32,12.51,40.88,29.79l4.76-2.22C802.4,221.04,784.42,207.3,763.19,207.3z"/>
          <path class="st2" d="M763.19,189c-28.57,0-52.86,18.05-62.27,43.35l5.71,2.66c8.39-23.15,30.51-39.73,56.56-39.73 c26.05,0,48.17,16.58,56.56,39.73l5.71-2.66C816.05,207.05,791.76,189,763.19,189z"/>
        </g>
      </g>
      <g class="st12">
        <circle class="st2" cx="774.41" cy="456.78" r="25.39"/>
      </g>
      <path class="st2" d="M700.34,454.8c0-37.22,30.17-67.39,67.39-67.39c10.68,0,20.74,2.55,29.71,6.97 c-10.6-6.95-23.26-11.03-36.88-11.03c-37.22,0-67.39,30.17-67.39,67.39c0,26.54,15.38,49.43,37.68,60.42 C712.49,499.12,700.34,478.39,700.34,454.8z"/>
    </g>
  </g>
</svg>