<?xml version="1.0" encoding="utf-8"?>
<svg viewBox="0 0 651.755 260.234" xmlns="http://www.w3.org/2000/svg">
  <g transform="matrix(1, 0, 0, 1, 3.183988, -4.454276)">
    <g id="Camada_2" data-name="Camada 2" transform="matrix(0.816644, 0, 0, 0.816644, 200.002182, 161.781357)" style="">
      <g id="Camada_1-2" data-name="Camada 1">
        <path class="cls-1" d="M271.88,43.88c-5.24,0-10.48,0-15.72,0-4.63,0-7-2.26-7-6.78q-.09-15,0-29.91c0-4.52,2.67-7.07,7.28-7.08q15.72,0,31.44,0c4.65,0,7.2,2.52,7.22,7.13q.07,14.77,0,29.54c0,4.77-2.37,7.07-7.11,7.1C282.61,43.91,277.25,43.88,271.88,43.88Zm.17-5.31c4.61,0,9.22-.07,13.83,0,2,0,2.93-.36,2.9-2.65-.12-9.21-.09-18.42,0-27.63,0-1.94-.6-2.61-2.56-2.59q-14,.12-28.05,0c-2.2,0-2.7.79-2.68,2.84q.14,13.62,0,27.26c0,2.1.61,2.85,2.75,2.78C262.82,38.47,267.43,38.56,272.05,38.57Z" style="fill: rgb(64, 107, 98);"/>
        <path class="cls-2" d="M440.4,21.88c0-6.12.08-12.23,0-18.35C440.31,1,441,0,443.74,0c11,.14,22,0,33,.09,5.27,0,8.37,3.16,8.4,8.41q.11,13.47,0,26.95c0,5.44-2.91,8.3-8.35,8.37-7.25.08-14.49,0-21.74,0-1.76,0-3.16,0-3.18-2.49s1.26-2.85,3.29-2.83c6.37,0,12.75,0,19.12,0,3.51,0,4.91-1.42,4.85-5-.16-7.73-.15-15.47,0-23.21.07-3.59-1.39-4.86-4.91-4.78q-12.18.25-24.36,0c-2.44,0-3.21.64-3.18,3.13.14,10.48,0,21,.08,31.45,0,2.36-.33,3.69-3.2,3.69s-3.2-1.45-3.17-3.75C440.46,34.11,440.4,28,440.4,21.88Z" style="fill: rgb(64, 107, 98);"/>
        <path class="cls-2" d="M128.2,22.12c0-6.11.09-12.22,0-18.33-.06-2.65.65-3.8,3.57-3.76,10.74.15,21.48,0,32.22.08,5.84,0,8.88,2.73,9,8.62q.36,13.45,0,26.94c-.13,5.44-3.17,8.13-8.62,8.18-7.12.07-14.24,0-21.36,0-1.84,0-3.48.12-3.52-2.57-.05-2.93,1.77-2.75,3.72-2.74,6.37,0,12.75-.08,19.12,0,3.35.06,4.71-1.3,4.66-4.68-.14-7.86-.11-15.72,0-23.58,0-3.35-1.37-4.73-4.72-4.69-8.24.12-16.49.17-24.73,0-2.58,0-3.06.93-3,3.24.1,10.48,0,21,.06,31.44,0,2.09-.13,3.58-2.93,3.58-2.63,0-3.51-.9-3.45-3.5C128.3,34.35,128.2,28.24,128.2,22.12Z" style="fill: rgb(64, 107, 98);"/>
        <path class="cls-2" d="M233.5,43.78c-4.69,1.22-7.69.2-10-3.59-2.47-4-5.56-7.66-8.31-11.51a4,4,0,0,0-3.79-1.83c-1.74.11-3.5,0-5.24,0s-3.83.47-3.93-2.55,1.88-2.63,3.73-2.64c3.74,0,7.5.16,11.23-.1,4.08-.29,7.3-3.16,7.76-6.41.57-4.1-1.14-7.31-4.68-8.84a10,10,0,0,0-4-.61c-5.37,0-10.74.15-16.1,0-2.49-.08-3.18.71-3.15,3.16.12,10.47,0,21,.07,31.42,0,2.36-.31,3.68-3.19,3.68s-3.21-1.33-3.2-3.68c.07-12.21.1-24.43,0-36.65,0-2.82.95-3.65,3.7-3.59,7.74.15,15.48,0,23.22.07a13.48,13.48,0,0,1,13.28,10A12.73,12.73,0,0,1,224.28,25c-3,1.57-2.55,2.72-.92,4.86C226.75,34.32,230,38.89,233.5,43.78Z" style="fill: rgb(64, 107, 98);"/>
        <path class="cls-1" d="M385.76,21.81c0-6.11.09-12.22-.05-18.33,0-2.59.83-3.47,3.46-3.44,10.36.12,20.73.07,31.09,0,1.95,0,3.33.12,3.37,2.71,0,2.8-1.48,3-3.57,3-8.24,0-16.49.11-24.72,0-2.62,0-3.4.73-3.35,3.36.15,8.85.13,17.7,0,26.56,0,2.28.67,3,3,3,8.36-.1,16.73,0,25.1,0,1.93,0,4.14-.53,4.11,2.75,0,3.07-2.12,2.53-3.9,2.53-10.37,0-20.73,0-31.09.06-2.6,0-3.54-.77-3.48-3.41C385.86,34.29,385.76,28.05,385.76,21.81Z" style="fill: rgb(64, 107, 98);"/>
        <path class="cls-2" d="M520.39.15c2.58-.57,3.89.87,4.93,3,6,12.31,12.14,24.59,18.13,36.92.51,1.07,2.52,2.86.21,3.6-1.65.54-4.26,1.39-5.54-1.36-1-2.26-2.33-4.43-3.24-6.74a3.56,3.56,0,0,0-4-2.55c-4.86.13-9.74.11-14.61,0-1.12,0-3.33.92-3.16-1.07.14-1.68.82-4.06,3.55-4.06,3.75,0,7.5-.12,11.25,0,2.64.11,3-.71,1.87-3-2.77-5.72-5.38-11.52-8.09-17.27C521.44,7,521,6.08,520.46,6c-1.07-.18-1.25,1-1.61,1.75q-8.24,16.79-16.4,33.61c-.62,1.27-1,2.61-2.79,2.5-1.1-.07-2.46.48-3.22-.45s.19-2.14.65-3.08c6.1-12.43,12.27-24.81,18.35-37.24C516.5.92,517.85-.37,520.39.15Z" style="fill: rgb(64, 107, 98);"/>
        <path class="cls-2" d="M35.09,27.6,24.88,5.69c-1.63.69-1.85,2-2.36,3Q14.86,24.35,7.25,40a14.52,14.52,0,0,1-1.6,3c-1.34,1.63-3.41,1.27-4.84.67-1.78-.75-.15-2.13.32-3.08C7.19,28.09,13.34,15.69,19.4,3.24,20.44,1.12,21.72,0,24.27,0s4.05,1,5.17,3.29c6,12.34,12.13,24.61,18.12,36.94.5,1,2.31,2.79.58,3.37s-4.55,1.46-6-1.31c-1.07-2.11-2.14-4.24-3-6.44S37,32.88,34.66,33c-4.75.19-9.5.13-14.25,0-1.11,0-3.34.93-3.16-1.07.15-1.65.73-4.09,3.52-4.06,4,0,8,0,12,0C33.37,27.82,34,27.71,35.09,27.6Z" style="fill: rgb(64, 107, 98);"/>
        <path class="cls-1" d="M321.09,9.5q0,15.46,0,30.94c0,1.4.5,3.18-1.82,3.41-2.15.22-3.57-.14-3.55-2.88.09-12.59,0-25.18,0-37.77,0-1.23-.19-2.71,1.48-3a4.8,4.8,0,0,1,5,1.57c5,6,10.29,11.85,15.2,18,2.06,2.57,3.19,2.62,5.22,0,4.53-5.78,9.5-11.22,14-17,2.11-2.72,4.44-3.08,8.07-2.2-3.12,3.7-6,7.06-8.83,10.46-4.47,5.35-9,10.7-13.36,16.11-1.73,2.13-3,2.36-4.95,0-5.09-6.1-10.45-12-15.7-18Z" style="fill: rgb(64, 107, 98);"/>
        <path class="cls-2" d="M63.21.4c3.66-.53,6.18-.55,8.66,2.45C80.38,13.12,89.31,23,98.09,33.09c.73.84,1.53,1.63,2.31,2.45,1.5-.73.84-2,.84-3,.07-9.48.06-19,.08-28.44,0-1.95-.49-4.1,2.79-4.06,3.06,0,3,1.85,3,4,0,11.73,0,23.46-.06,35.18,0,1.56,1.08,3.94-1.28,4.5s-4.68.66-6.53-1.56c-3.35-4-6.84-7.93-10.28-11.88L64.35,2.09C64,1.73,63.81,1.29,63.21.4Z" style="fill: rgb(64, 107, 98);"/>
        <path class="cls-3" d="M460.69,63c2.74,0,5.48,0,8.22,0,3.21-.07,4.89,1.29,4.85,4.64q-.09,7.84,0,15.68c0,3-1.43,4.47-4.25,4.51q-9,.15-17.94,0c-2.74,0-4.05-1.69-4.08-4.32q-.08-8.22,0-16.43c0-2.71,1.5-4.09,4.23-4.1Zm0,21.34c2.37,0,4.74-.08,7.1,0,1.8.08,2.37-.6,2.33-2.37-.1-4.35-.12-8.71,0-13.06.06-2-.78-2.57-2.64-2.5-2.73.11-5.48,0-8.22,0-8.18,0-8.18,0-8.18,8.16C451.1,84.33,451.1,84.33,460.71,84.33Z" style="fill: rgb(7, 7, 7);"/>
        <path class="cls-3" d="M486.09,75.05c0-3.12.1-6.24,0-9.36-.09-2.17.77-2.78,2.85-2.74,5.87.11,11.75,0,17.62.07,3.77.06,5.54,1.79,5.64,5.51.12,4.61.09,9.24,0,13.85-.06,3.23-1.81,5.23-5,5.4-3.87.21-7.75.09-11.62.1-1.06,0-2-.15-2.13-1.52-.1-1.53.87-1.94,2.13-2,3.12,0,6.25-.1,9.37,0,2.35.07,3.46-.8,3.39-3.27-.1-3.86-.08-7.73,0-11.6,0-2.23-.9-3.18-3.13-3.14-4.25.08-8.5.11-12.74,0-1.84,0-2.33.7-2.3,2.43.09,5.11,0,10.23,0,15.35,0,1.55.48,3.45-2.14,3.44s-1.84-1.89-1.87-3.24C486,81.29,486.09,78.17,486.09,75.05Z" style="fill: rgb(7, 7, 7);"/>
        <path class="cls-4" d="M427.77,63H436c1.28,0,2.58-.11,2.49,1.83-.08,1.69-1.27,1.58-2.39,1.59-4.49,0-9,.14-13.48,0-2.29-.08-3.06.65-3,3,.17,3.86.18,7.74,0,11.59-.12,2.55.6,3.54,3.3,3.43,4.49-.2,9-.05,13.48,0,1.22,0,2.7-.14,2.65,1.75s-1.46,1.73-2.71,1.73q-8.43,0-16.85,0c-2.43,0-3.61-1.08-3.57-3.67.11-5.86.09-11.72,0-17.58,0-2.79,1.32-3.76,3.94-3.66S425.15,63,427.77,63Z" style="fill: rgb(9, 9, 9);"/>
        <path class="cls-5" d="M534.23,63c2.38,0,4.76-.14,7.12,0,1.38.1,3.78-1.09,3.81,1.54,0,2.84-2.51,1.73-4,1.79-3.86.16-7.75.18-11.62,0-2.25-.08-3.12.59-3,3,.18,4,.15,8,0,12-.09,2.23.54,3.13,2.91,3,4.37-.15,8.75,0,13.12,0,1.19,0,2.71-.33,2.81,1.58.1,2.16-1.53,1.89-2.87,1.9-5.5,0-11-.07-16.5,0-2.34,0-3.39-.62-3.33-3.17.14-6.24.16-12.49,0-18.72-.07-2.6,1-3.21,3.32-3.08C528.73,63.11,531.48,63,534.23,63Z" style="fill: rgb(8, 8, 8);"/>
        <path class="cls-1" d="M64,9.27c2.84,2.63,5.27,5.07,5,9.59-.4,7.43-.14,14.91-.08,22.36,0,1.86-.56,2.73-2.56,2.69-1.85,0-3.09-.25-3.06-2.58.09-10.43.07-20.87.11-31.3C63.46,9.85,63.71,9.67,64,9.27Z" style="fill: rgb(64, 107, 98);"/>
        <path class="cls-1" d="M364.54,8.51c0,11.76,0,22.43,0,33.1,0,1.87-1,2.33-2.59,2.28s-3.1.14-3.1-2.14c0-8.7-.16-17.41.14-26.11C359.1,12.84,361.92,11.28,364.54,8.51Z" style="fill: rgb(64, 107, 98);"/>
        <path class="cls-4" d="M409.75,18.28c3,0,6,0,9,0,1.9-.05,2.64.73,2.64,2.66s-.59,3-2.75,3c-6.22-.06-12.44-.05-18.66,0-2,0-2.9-.76-2.89-2.88s1-2.8,3-2.76C403.29,18.33,406.52,18.28,409.75,18.28Z" style="fill: rgb(64, 107, 98);"/>
        <path class="cls-6" d="M536.58,76.49c-1.61,0-3.22,0-4.83,0-1,0-1.63-.43-1.63-1.55a1.42,1.42,0,0,1,1.6-1.58c3.47,0,6.93,0,10.4,0a1.41,1.41,0,0,1,1.62,1.56,1.39,1.39,0,0,1-1.59,1.58C540.29,76.5,538.43,76.5,536.58,76.49Z" style="fill: rgb(27, 27, 27);"/>
      </g>
    </g>
    <g id="g-1" data-name="Camada 2" transform="matrix(0.510212, 0, 0, 0.510212, 0.011565, 8.183409)" style="">
      <g id="g-2" data-name="Camada 1">
        <path class="cls-1" d="M158.25,318c0-16,3.92-27.43,10.95-37.79a231.47,231.47,0,0,1,21.61-27.65A174.63,174.63,0,0,1,246.91,212a25,25,0,0,1,15-1.84c10.59,1.93,15.35,10.31,12.19,21.39-2.46,8.61-7.11,16.21-12,23.59a155.42,155.42,0,0,1-48.91,47.19c-1.81,1.12-4.28,3.95-6.07,1.11s1.88-3.74,3.66-4.85c17.39-10.84,32.38-24.29,44-41.18,6-8.71,11.49-17.75,15-27.92s-4-14.9-10.95-15.1a25.77,25.77,0,0,0-12,2.61c-26.3,12.59-48.24,30.43-65.33,54.14-4.22,5.87-8.95,11.36-12.29,17.82a56.72,56.72,0,0,0-6.42,29.26,6.28,6.28,0,0,0,2.84,5.27c7,5.08,14.56,4.4,22.22,2.09a62.25,62.25,0,0,0,15.18-7.23c26-16.38,49.26-35.8,67.62-60.69a212.54,212.54,0,0,0,20.34-34,45.88,45.88,0,0,0,4.63-22.48c-.09-1.82.13-2.93-2.55-2.15-7.83,2.28-13.9-1.29-16.32-9.36-.5-1.7-1.16-2.12-2.87-1.87a47.53,47.53,0,0,0-10.15,2.44,185.29,185.29,0,0,0-59.09,36.11c-1.49,1.37-3.23,3.77-5.29,1.68s.36-3.82,1.87-5.15c19.85-17.4,42.14-30.75,67.25-39,4.87-1.59,9.34-2.24,13-6.65s10.71-3.7,15.17-.37a12.35,12.35,0,0,1,4.09,15,10.59,10.59,0,0,0-.71,6.45A45.27,45.27,0,0,1,294.83,227c-7,13-14.34,25.68-23.46,37.33-17.68,22.59-39.16,40.84-63.3,56.16-6.89,4.37-13.95,8.27-21.88,10.37a28.56,28.56,0,0,1-15.9-.05C161.05,328,158.22,324.15,158.25,318ZM289,179a8.1,8.1,0,1,0,.06,16.2,8,8,0,0,0,8.15-8.35A7.91,7.91,0,0,0,289,179Z" style="fill: rgb(64, 107, 98);"/>
        <path class="cls-1" d="M496.18,47.53c-.17,21.64-5.81,42.13-13.27,62.22-2,5.49-4.22,10.92-6.49,16.32-.63,1.51-.52,2.24.79,3.38,6,5.22,7.56,12,4.4,18.43s-9.68,9.49-17.32,7.72c-2.71-.63-2.92,1.07-3.68,2.49a671.58,671.58,0,0,1-42.4,69.65,658.4,658.4,0,0,1-71.56,86.42c-9.39,9.48-19.39,18.35-29.17,27.45-.79.74-1.85,2.55-3,1.25-.94-1.11.88-2.06,1.68-2.86,6.16-6.2,12.44-12.27,18.55-18.52,48-49.13,88.89-103.49,121.18-164.19,1.54-2.9,2.27-4.94-.19-8.09-3.57-4.55-3.46-10-.58-15.15A14.11,14.11,0,0,1,468,126.43c1.65,0,2.93.24,3.82-1.81,8.3-19,15.19-38.46,18.41-59.09S491.34,25,482.38,6c-.58-1.23-1.44-2.32-2.08-3.53-.41-.78-.77-1.79.2-2.32a1.62,1.62,0,0,1,2.2.86c2.09,3.68,5.08,6.75,6.78,10.71C494.4,23.19,496.3,35.16,496.18,47.53Zm-18,93.79a10,10,0,1,0-9.92,10A9.92,9.92,0,0,0,478.17,141.32Z" style="fill: rgb(64, 107, 98);"/>
        <path class="cls-1" d="M310.55,144c-10.33-.77-19.65,2.91-29,6.48C254.07,161,230,177.2,207,195.14a418,418,0,0,0-81,83.7c-16,21.91-30.47,44.77-40.45,70.16-4.26,10.86-7.44,22-6.75,33.85.79,13.56,7.94,22.45,20.34,27.43,1.74.69,3.54,1.22,5.24,2,1,.48,2,1.31,1.46,2.66a2.32,2.32,0,0,1-2.76,1.4,12.33,12.33,0,0,1-1.45-.37c-17.16-4.52-27.37-17.75-27.46-35.63-.07-13.25,4-25.54,9-37.57,7.65-18.26,17.73-35.19,28.71-51.59A427.58,427.58,0,0,1,244.67,163.46c11-6.74,22.79-11.78,34.52-17.05a75.74,75.74,0,0,1,32.27-7c3.57,0,6.75,1.21,10,2.42.59.22,1.23.57,1.19,1.27-.06,1.08-1,.87-1.69.91A57.13,57.13,0,0,1,310.55,144Z" style="fill: rgb(64, 107, 98);"/>
        <path class="cls-1" d="M402.24,121.9c0,13.34-3.08,26.16-6.38,39-4.33,16.81-13.52,31.26-22.33,45.77-38.38,63.17-87.93,116.23-147.25,160.26a3,3,0,0,1-.31.22c-1.72.94-3.54,3.65-5.4,1.17s1.13-3.62,2.69-4.75a536.08,536.08,0,0,0,82.59-74.77c31-34.35,58.36-71.22,79.11-112.64,9.58-19.12,13.5-39.81,12.62-61.27a40,40,0,0,0-2.58-12c-4-11-12.38-16.46-23.36-18.72-1.1-.23-2.21-.45-3.32-.6-1.82-.25-3.83-.6-3.42-3s2.59-2,4.29-1.8c8.37,1.08,15.95,4,22.07,10,7.66,7.58,10.26,17.17,11,27.5C402.35,118.15,402.24,120,402.24,121.9Z" style="fill: rgb(64, 107, 98);"/>
        <path class="cls-1" d="M64.72,312.54a3.84,3.84,0,0,1-1.48,0c-4.7-2.29-6.6.6-8.83,4.12-11.35,17.94-21.92,36.3-30.47,55.77-1.1,2.5-2.44,4.9-3.75,7.31-.52.94-1.12,2.25-2.52,1.57s-.79-1.88-.47-3a95.22,95.22,0,0,1,5.05-13.26,420.18,420.18,0,0,1,30.14-53.4c1.34-2,1.83-3.33.17-5.76-3.49-5.12-3.7-10.73-.08-16.12,3.41-5.07,9.48-7.81,15.32-6.2,3.11.86,4.5-.3,6.15-2.49a637.8,637.8,0,0,1,53.11-61.94c4.81-4.92,10.3-9.06,15.12-14,.76-.77,1.8-2.51,3-1.41,1.56,1.47-.55,2.32-1.34,3.18-21.91,24.1-44.36,47.74-64,73.82a24.84,24.84,0,0,1-1.59,2.08c-2.23,2.47-3,4.42-.78,8C83.47,300.31,76,312.63,64.72,312.54Zm.3-24.77a10.14,10.14,0,1,0-.3,20.27,10.14,10.14,0,1,0,.3-20.27Z" style="fill: rgb(64, 107, 98);"/>
        <path class="cls-1" d="M151.34,365.06c-6.73.62-13.51-1.9-19.74-6.68-3.08-2.36-4.16-5.77-6-8.78a1.23,1.23,0,0,1,.28-1.69c.61-.34,1.12.28,1.54.75C141.84,364.5,160,362.22,175,356.2c28.44-11.36,52.08-29.77,74.55-50,1-.87,2.21-2.77,3.26-1.7s-.75,2.54-1.63,3.57c-17.65,20.89-40,35.49-64.07,47.85C176.17,361.58,165,365.51,151.34,365.06Z" style="fill: rgb(64, 107, 98);"/>
        <path class="cls-1" d="M57.62,495.44c-14.62,0-26.27-1.39-36.51-7.95C6.2,477.93.36,463.43,0,446.39c-.35-18,3.37-35.32,10-52,.22-.58.53-1.12.72-1.71s.67-.9,1.08-.73c.24.11.37.92.25,1.33-1.05,3.82-2.2,7.61-3.27,11.42C4.56,419.76,1.6,435,3.94,450.75c3.35,22.57,15.17,36.94,39.74,40.66,20.79,3.14,40.62-2.08,60.15-8.5,7.51-2.47,15.07-4.84,22.26-8.19.73-.34,1.72-.77,2-.17s-.84.91-1.51,1.24c-17.56,8.71-35.82,15.32-55.25,18.4A84,84,0,0,1,57.62,495.44Z" style="fill: rgb(64, 107, 98);"/>
        <path class="cls-1" d="M163.62,459.05c.08,0-.43.07-.56-.13-.32-.46.06-.86.33-1.28a9.62,9.62,0,0,1,3.27-3c34.27-20.43,66-44.45,97.32-69,12-9.4,23.26-19.63,34.68-29.68.46-.41.91-.86,1.41-1.23a1,1,0,0,1,1.34-.12.92.92,0,0,1,0,1.34,14.7,14.7,0,0,1-1.54,1.62c-30.35,29.63-62.74,56.75-98.48,79.72-10.9,7-22.11,13.54-33.15,20.34A13.55,13.55,0,0,1,163.62,459.05Z" style="fill: rgb(64, 107, 98);"/>
        <path class="cls-1" d="M127.69,330.63c1.28-15.57,7.69-28.54,15.81-40.82,3.72-5.61,7.39-11.26,11.28-16.75a223.38,223.38,0,0,1,31.63-35.4c1.77-1.63,4.77-3.74,5.92-2.45,1.47,1.64-.94,4.08-2.67,5.66a237.56,237.56,0,0,0-43.31,53.23,167.67,167.67,0,0,0-12.25,24.68c-1.57,3.91-3.89,7.51-4.91,11.65-.15.61-.28,1.4-1,1.32C127,331.63,127.68,330.62,127.69,330.63Z" style="fill: rgb(64, 107, 98);"/>
        <path class="cls-1" d="M334.74,171c0-2.74,0-5.47,0-8.21,0-1.72-.51-3.93,1.92-4.14s2.41,2,2.64,3.72c1.77,13.11-.42,25.77-4.2,38.27-4.26,14.1-12.31,26-21.31,37.39-.85,1.08-1.86,2-3.09.82s-.17-2.2.58-3.22c10.5-14.14,18.52-29.44,22.24-46.8A68.87,68.87,0,0,0,334.74,171Z" style="fill: rgb(64, 107, 98);"/>
        <path class="cls-1" d="M123.57,415.35c-1-.41-2.39.85-2.72-.46-.2-.74,1.29-1.08,2.15-1.37,6.11-2,12.28-3.94,18.39-6a300.07,300.07,0,0,0,47.8-21.11c4.69-2.56,9.63-4.68,14.05-7.76.82-.57,2-1.77,2.9-.43s-.61,1.92-1.44,2.57c-13.79,10.94-29.21,18.93-45.54,25.35-10.36,4.08-21.16,6.44-32,8.79A33.71,33.71,0,0,1,123.57,415.35Z" style="fill: rgb(64, 107, 98);"/>
        <path class="cls-1" d="M343.5,80c-.61,1.51-1.86,1.23-2.7,1.45a308.32,308.32,0,0,0-43.34,14.81c-13.6,5.76-27.47,11.09-40,19.17-.87.57-2,1.7-2.83.26-.59-1.1.84-1.62,1.61-2.16C273.09,101.79,290.9,92,310.67,86c9.9-3,20.07-4.73,30.25-6.42A3,3,0,0,1,343.5,80Z" style="fill: rgb(64, 107, 98);"/>
        <path class="cls-1" d="M250.32,233.76a51.52,51.52,0,0,0-35.26,15c-3.95,3.8-7.65,7.87-11.43,11.84-.95,1-2,1.71-3.22.67s-.48-2.07.16-3c9.71-14.06,22.33-24.14,39.35-27.74a33.24,33.24,0,0,1,15.57.4c.78.21,1.93.36,1.92,1.44,0,1.39-1.25,1.33-2.22,1.35C253.57,233.79,251.94,233.76,250.32,233.76Z" style="fill: rgb(64, 107, 98);"/>
        <path class="cls-1" d="M179.2,295.54c1.08-6.94,3.26-14.44,9.14-20.4.46-.47.87-1,1.49-.65.25.15.16.9.18,1.38.17,4.52-2.45,8.28-3.46,12.48-.76,3.14-1.92,6.16-2,9.46,0,3.82,1.36,5.39,5.27,5.63,1.86.12,3.73.14,5.6.21.89,0,1.84.11,2,1.23s-.7,1.38-1.52,1.8a12.32,12.32,0,0,1-12.16-.07C180,304.47,179.27,300.61,179.2,295.54Z" style="fill: rgb(64, 107, 98);"/>
        <path class="cls-1" d="M177.69,174.53c-.68-.14-1.27-.4-.8-1.18a9,9,0,0,1,1.44-1.7c18.63-18.48,38.54-35.32,61.7-48,.81-.44,1.92-1.58,2.52-.57s-1,1.42-1.73,1.9c-21.36,14.89-42.39,30.21-61.4,48.11C178.88,173.62,178.27,174.05,177.69,174.53Z" style="fill: rgb(64, 107, 98);"/>
        <path class="cls-1" d="M275.09,283.74c-.32-.16-.76-.25-.93-.51-.31-.45-.08-.89.25-1.33a35.7,35.7,0,0,1,3-4.2c6.7-6.66,12.47-14.13,18.79-21.13.42-.47.76-1.17,1.42-.89s.44,1.07.21,1.62C293.31,268,287,277.26,276.39,283,276,283.18,275.55,283.46,275.09,283.74Z" style="fill: rgb(64, 107, 98);"/>
        <path class="cls-1" d="M151.78,198.5c-1.82-.47-2.65-1.82-1.55-3.26a35.61,35.61,0,0,1,8.38-7.77,2,2,0,0,1,2.69,2.95,53.78,53.78,0,0,1-8.42,7.75A3.65,3.65,0,0,1,151.78,198.5Z" style="fill: rgb(64, 107, 98);"/>
      </g>
    </g>
  </g>
  <title>icone</title>
  <title>icone</title>
</svg>