<?xml version="1.0" encoding="utf-8"?>
<svg version="1.1" x="0px" y="0px" viewBox="0 0 700 700" style="enable-background:new 0 0 1122 1122;" xmlns="http://www.w3.org/2000/svg">
  <style type="text/css">
	.st0{fill:#FFFFFF;}
	.st1{fill:#AAD4C8;}
	.st2{fill:#616E7D;}
</style>
  <g id="Object" transform="matrix(1.061394, 0, 0, 1.061394, -271.974823, -211.480591)" style="">
    <g>
      <path class="st1" d="M910.4,396.71l-1.2-1.8l-40.69-42.4c-2.4-3.59-0.82-8.84,3.57-10.16c6.17-1.88,12.04-5.19,17.08-9.98 c16.96-16.18,17.72-42.81,1.52-58.97c-15.44-16.93-42.05-17.36-58.99-1.12c-5.01,4.8-8.59,10.52-10.72,16.61 c-1.53,4.32-6.84,5.66-10.31,3.11l-40.55-42.56l-1.76-1.27c-2.55-2.45-6.65-2.43-9.3,0.13l-47.03,45.11 c-2.92,0.19-5.79-1.43-6.68-4.54c-4-13.82-15.49-25.75-34.99-29.52c-2-0.39-4.12-0.41-6.14-0.05 c-39.92,7.02-50.2,48.53-28.75,71.05c4.54,4.77,10.01,8.14,15.87,10.12c3.16,1.07,4.57,4.29,4,7.31l-47.3,45.38 c-2.75,2.63-2.89,6.89-0.34,9.52l42.77,44.59l0.76,0.59l0.26,0.27c3.63,3.8,9.97,1.79,11.3-3.43 c3.92-15.07,16.38-28.52,37.17-32.61c3.89-0.28,7.8-0.03,11.61,0.77c8.75,2.39,15.7,6.57,20.87,11.84 c5.02,5.41,8.9,12.54,10.87,21.4c0.65,3.82,0.74,7.73,0.28,11.63c-5.04,20.59-19.04,32.43-34.27,35.65 c-5.26,1.12-7.56,7.36-3.92,11.14l0.26,0.27l0.56,0.8l42.61,44.72c2.53,2.66,6.8,2.7,9.53,0.09l47.45-45.24 c3.05-0.43,6.2,1.14,7.13,4.34c1.73,5.97,4.85,11.57,9.41,16.32c21.53,22.45,63.43,14.04,72.25-25.52 c0.44-2.02,0.53-4.14,0.21-6.14c-2.89-19.65-14.3-31.68-27.91-36.29c-3.06-1.04-4.59-3.98-4.23-6.88l47.16-44.95 C912.51,403.48,912.71,399.39,910.4,396.71z"/>
      <path class="st2" d="M694.31,811.24h0.36l0.98,0.14l61.76,0.27c3.68,0.02,6.65-3.05,6.67-6.82l0.27-65.56 c1.8-2.48,5.1-3.68,8.06-2.12c5.49,2.87,11.7,4.52,18.28,4.52c31.1,0.04,54.07-36,31.65-69.79c-1.13-1.7-2.62-3.24-4.27-4.41 c-16.18-11.52-32.73-11.63-45.49-5c-2.88,1.48-6.04,0.52-7.89-1.73l0.26-65.15c0.03-3.66-2.79-6.66-6.32-6.82l-2.14-0.41 l-58.76-0.04c-4.24-0.75-6.94-5.52-4.84-9.61c2.91-5.75,4.59-12.28,4.62-19.22c0.1-23.45-18.57-42.45-41.46-41.97 c-22.91-0.61-41.66,18.3-41.69,41.76c0.02,6.94,1.63,13.48,4.56,19.25c2.06,4.09-0.67,8.86-4.92,9.59l-58.78-0.27l-2.12,0.39 c-2.52,0.11-4.64,1.7-5.69,3.93c0.36,1.02,0.58,2.13,0.58,3.27l-0.11,67.27l-3.68-0.73c-1.67,0.73-3.58,0.86-5.41-0.11l-1.14-0.5 c-1.98,0.02-4.02,0.16-6.13,0.46l-0.54,0.07l-0.54-0.09c-2.32-0.43-4.39-0.8-6.39-0.8c-18.85,0.04-34.46,14.59-36.82,33.5 c-0.21,1.63-0.35,3.27-0.35,4.97c0,6.79,1.82,14.04,5.74,21.38c0.84,1.59,1.69,3.2,2.74,4.8c0.91,1.36,2.1,2.59,3.43,3.52 c8.66,6.13,17.15,8.59,25.06,8.61c2.12-0.02,4.19-0.19,6.22-0.52l0.54-0.11l0.54,0.09c1.72,0.28,3.06,0.55,4.3,0.7 c1.04-0.43,2.1-0.86,3.11-1.39c2.14-1.11,4.45-0.75,6.23,0.45l2.94-0.59l-0.11,68.29c0,0.87-0.15,1.73-0.35,2.56 c1.08,2.27,3.29,3.87,5.91,3.87l61.78,0.04l0.95-0.13h0.37c5.26,0.02,8.19-5.95,5.35-10.54c-8.15-13.25-9.2-31.54,2.26-49.38 c2.49-3.02,5.38-5.64,8.59-7.84c7.79-4.66,15.62-6.77,23.01-6.85c7.38,0.12,15.19,2.28,22.95,6.96c3.19,2.21,6.08,4.85,8.56,7.89 c11.37,17.89,10.2,36.18,1.98,49.4C686.16,805.26,689.05,811.24,694.31,811.24z"/>
      <path class="st2" d="M475.68,579.77l-0.14,0.36l-0.06,0.13l-0.35,1.41c-0.02,1.48,1.19,2.98,2.68,3.3l58.34-0.1 c0.84,0,1.54,0.23,2.27,0.41v-0.02c2.05,0.09,3.92,0.8,5.46,1.96l0.37-1.84l0.27-65.56c1.81-2.48,5.1-3.66,8.06-2.13 c5.48,2.87,11.69,4.52,18.28,4.52c31.12,0.04,54.08-36,31.66-69.79c-1.14-1.7-2.61-3.23-4.27-4.41 c-16.17-11.52-32.74-11.63-45.51-5c-2.86,1.48-6.05,0.52-7.88-1.73l0.28-65.15c0-3.66-2.81-6.66-6.34-6.82l-2.14-0.41l-58.76-0.04 c-4.25-0.75-6.95-5.52-4.86-9.61c2.93-5.75,4.6-12.29,4.64-19.22c0.11-23.46-18.57-42.45-41.47-41.97 c-22.89-0.6-41.65,18.31-41.68,41.76c0.01,6.95,1.64,13.49,4.56,19.25c2.06,4.09-0.66,8.86-4.91,9.57l-58.79-0.25l-2.13,0.39 c-3.54,0.15-6.36,3.13-6.36,6.81l-0.06,65.15c-1.87,2.23-5.04,3.2-7.89,1.68c-12.73-6.68-29.31-6.66-45.53,4.79 c-1.66,1.16-3.14,2.7-4.3,4.39c-22.6,33.66,0.2,69.81,31.31,69.93c6.59,0.04,12.81-1.57,18.29-4.43c2.98-1.53,6.28-0.32,8.05,2.18 l-0.05,65.56c0,0.82,0.19,1.59,0.45,2.32c1.53-1.13,3.39-1.82,5.43-1.91v0.02c0.72-0.18,1.44-0.41,2.27-0.41l58.34,0.1 c1.48-0.32,2.69-1.82,2.66-3.28l-0.34-1.43l-0.07-0.16l-0.08-0.16l-0.08-0.2c-2.97-6.02-4.69-12.81-4.74-20h-0.01v-0.19v-0.04 v-0.11c0-4.55,0.86-8.78,1.99-12.75c5.36-18.59,21.97-32.38,41.98-32.38l1.06,0.02l0.89-0.02c19.99,0,36.61,13.79,41.97,32.38 c1.13,3.97,1.98,8.2,1.98,12.77v0.09C480.44,566.8,478.69,573.68,475.68,579.77z"/>
      <path class="st2" d="M495.94,664.76c7.68-6.86,17.7-11.06,28.7-11.09l0.02,3.29v-3.29c2.67,0,5.01,0.46,7.18,0.84 c2.22-0.29,4.43-0.48,6.64-0.5c1.09,0,2.18,0.05,3.28,0.16l0.08-59.33c0-1.88-1.33-3.23-2.9-3.41l-0.22-0.06l-0.51-0.02 l-0.49-0.18l-0.99-0.2l-59.06,0.1l-0.29-0.05c-4.62-0.84-7.8-4.64-8.23-9.09l-0.16-0.89c0-1.4,0.33-2.82,0.99-4.2h-0.03l0.13-0.34 l0.08-0.11c2.62-5.29,4.13-11.2,4.13-17.52v-0.09c0-3.71-0.69-7.3-1.72-10.89c-4.62-15.93-18.72-27.52-35.51-27.52l-0.86,0.02 h-0.09h-0.1l-0.89-0.02c-7.9,0-15.15,2.63-21.15,7c-6.76,4.93-11.92,12.07-14.35,20.52c-0.6,2.04-1.02,4.09-1.32,6.16 c-0.23,1.55-0.42,3.11-0.42,4.7v0.02v0.11c0,6.32,1.52,12.23,4.16,17.5l0.08,0.15l0.06,0.16l0.08,0.2l-0.03,0.02 c0.62,1.34,0.96,2.77,0.96,4.16l-0.15,0.8c-0.4,4.48-3.6,8.32-8.23,9.16l-0.28,0.05l-59.06-0.1l-0.48,0.09l-0.52,0.11l-0.48,0.18 l-0.52,0.02c-1.66,0.07-3.12,1.5-3.13,3.45l0.11,66.36l-0.77,0.95c-1.85,2.21-4.57,3.63-7.58,3.63c-1.5,0-3.06-0.36-4.47-1.11 c-5.03-2.61-10.66-4.09-16.68-4.09c-7.95,0-16.6,2.57-25.32,8.77c-1.32,0.93-2.54,2.16-3.43,3.52 c-5.97,8.95-8.48,17.89-8.48,26.17c0,21.29,16.7,38.43,37.13,38.47h0.07c6,0,11.67-1.46,16.69-4.09c1.37-0.71,2.87-1.07,4.33-1.07 c3.3,0,6.21,1.71,8.02,4.23l0.64,0.89l0.1,66.63c0,1.98,1.54,3.46,3.27,3.46l61.53-0.1l0.98-0.15h0.25h0.36 c0.99-0.02,1.62-0.36,2.18-0.93c0.54-0.61,0.88-1.48,0.88-2.41l-0.58-2.05c-4.31-6.97-6.82-15.25-6.82-24.11 c0-9.3,2.77-19.24,8.94-28.88l0.12-0.18l0.12-0.14c2.69-3.27,5.83-6.13,9.3-8.5l0.08-0.05l0.07-0.05 c8.25-4.96,16.68-7.27,24.67-7.41h0.03h0.08c7.99,0.14,16.41,2.45,24.66,7.41l0.08,0.04l0.09,0.07c3.47,2.38,6.6,5.23,9.29,8.5 l0.13,0.16l0.11,0.16c6.16,9.65,8.94,19.58,8.93,28.9c0,8.84-2.48,17.13-6.81,24.11l-0.59,2.03c-0.01,0.93,0.35,1.8,0.89,2.41 c0.55,0.57,1.2,0.91,2.18,0.93h0.59l0.24,0.04l0.74,0.11l61.55,0.1c1.73,0,3.27-1.48,3.28-3.46l0.11-60.17 c-1.39,0.18-2.82,0.31-4.32,0.31h-0.02c-2.54-0.02-4.55-0.58-6.23-0.86c-2.16,0.32-4.33,0.55-6.58,0.55c-9,0-18.57-2.86-27.92-9.2 l-1.06-0.64c-1.98-1.43-3.74-3.21-5.12-5.29c-3.52-5.27-5.95-10.64-7.52-15.97c-0.48-1.66-0.84-3.32-1.15-4.96 c-0.58-3.04-0.94-6.04-0.94-8.99C480.76,685.26,486.63,673.06,495.94,664.76z"/>
    </g>
    <g>
      <path class="st0" d="M813.83,380.63c5.67,5.67,5.66,14.86,0,20.52c-5.67,5.67-14.86,5.67-20.53,0.01 c-5.67-5.67-5.67-14.86,0-20.53C798.98,374.95,808.16,374.96,813.83,380.63z"/>
      <g>
        <path class="st0" d="M780.94,368.25c-10.42,10.42-12.12,26.22-5.17,38.43l5.69-2.06c-6.25-10.06-5.04-23.43,3.69-32.16 c8.73-8.73,22.1-9.94,32.16-3.69l2.07-5.69C807.16,356.13,791.35,357.84,780.94,368.25z"/>
        <path class="st0" d="M769.49,356.8c-15.01,15.01-18.01,37.44-9.07,55.47l4.94-1.8c-8.29-16.15-5.68-36.45,7.85-49.98 c13.53-13.53,33.82-16.13,49.97-7.84l1.8-4.94C806.93,338.79,784.5,341.79,769.49,356.8z"/>
        <path class="st0" d="M756.55,343.86c-20.2,20.2-24.61,50.14-13.38,74.68l5.92-2.16c-10.44-22.3-6.52-49.67,11.9-68.09 c18.42-18.42,45.79-22.34,68.09-11.9l2.16-5.92C806.69,319.25,776.75,323.66,756.55,343.86z"/>
      </g>
    </g>
  </g>
</svg>